<?xml version="1.0" encoding="UTF-8" standalone="no"?>
<!-- Created with Inkscape (http://www.inkscape.org/) -->

<svg
   xmlns:dc="http://purl.org/dc/elements/1.1/"
   xmlns:cc="http://creativecommons.org/ns#"
   xmlns:rdf="http://www.w3.org/1999/02/22-rdf-syntax-ns#"
   xmlns:svg="http://www.w3.org/2000/svg"
   xmlns="http://www.w3.org/2000/svg"
   xmlns:sodipodi="http://sodipodi.sourceforge.net/DTD/sodipodi-0.dtd"
   xmlns:inkscape="http://www.inkscape.org/namespaces/inkscape"
   width="70.288925mm"
   height="52.30603mm"
   viewBox="0 0 70.288925 52.30603"
   version="1.1"
   id="svg8"
   inkscape:version="0.92.2 (5c3e80d, 2017-08-06)"
   sodipodi:docname="appearance.svg">
  <defs
     id="defs2" />
  <sodipodi:namedview
     id="base"
     pagecolor="#ffffff"
     bordercolor="#666666"
     borderopacity="1.0"
     inkscape:pageopacity="0.0"
     inkscape:pageshadow="2"
     inkscape:zoom="0.49497475"
     inkscape:cx="538.93913"
     inkscape:cy="22.876191"
     inkscape:document-units="mm"
     inkscape:current-layer="layer1"
     showgrid="false"
     inkscape:window-width="1920"
     inkscape:window-height="1048"
     inkscape:window-x="0"
     inkscape:window-y="0"
     inkscape:window-maximized="1" />
  <metadata
     id="metadata5">
    <rdf:RDF>
      <cc:Work
         rdf:about="">
        <dc:format>image/svg+xml</dc:format>
        <dc:type
           rdf:resource="http://purl.org/dc/dcmitype/StillImage" />
        <dc:title></dc:title>
      </cc:Work>
    </rdf:RDF>
  </metadata>
  <g
     inkscape:label="Layer 1"
     inkscape:groupmode="layer"
     id="layer1"
     transform="translate(102.69701,-96.495499)">
    <path
       style="fill:#ffffff;stroke-width:0.26458332"
       d="m -71.533905,148.6682 c -15.44853,-1.58349 -26.556823,-8.50552 -30.282745,-18.87039 -1.34007,-3.72785 -1.14088,-8.40591 0.53335,-12.52623 2.347937,-5.77831 8.426842,-11.72735 15.713991,-15.37828 6.699175,-3.356352 13.770747,-5.037272 22.50207,-5.348762 12.662141,-0.45172 20.316713,2.23893 20.415818,7.176352 0.04061,2.02296 -0.716237,2.72112 -6.169495,5.69112 -4.294952,2.33916 -5.124643,3.73715 -3.592248,6.05275 0.979366,1.47992 3.58417,2.69845 8.528216,3.98948 5.712563,1.49173 6.890038,1.9882 8.61292,3.63155 2.510695,2.3948 3.408767,5.08987 2.542889,7.63108 -1.080484,3.17104 -5.62039,8.33355 -9.700601,11.03093 -5.643146,3.73062 -11.584325,5.82284 -19.048377,6.70799 -3.002745,0.3561 -7.688421,0.45507 -10.055788,0.21241 z m 6.158793,-5.92172 c 1.15107,-0.31965 2.690207,-1.57851 3.24743,-2.65606 0.484767,-0.93743 0.49471,-3.1702 0.01908,-4.28184 -0.755911,-1.76667 -2.46394,-2.83577 -4.530507,-2.83577 -2.889398,0 -4.970386,2.05889 -4.970386,4.91761 0,2.29917 1.440495,4.18754 3.71733,4.87311 1.007371,0.30332 1.372324,0.30085 2.517057,-0.017 z m -18.397589,-7.04381 c 1.896882,-0.90012 3.091373,-3.60127 2.486025,-5.62175 -0.399608,-1.33377 -1.723358,-2.88678 -2.868451,-3.36523 -1.73014,-0.7229 -4.0259,-0.33169 -5.464744,0.93121 -0.828008,0.72676 -1.4932,2.33231 -1.4932,3.60408 0,3.85942 3.770136,6.14588 7.34037,4.45169 z m 36.130072,-2.02899 c 1.163471,-0.48613 2.482858,-2.05143 2.836667,-3.36537 0.733599,-2.72439 -1.17434,-5.56982 -4.150074,-6.18926 -1.236052,-0.2573 -2.891139,0.29129 -4.057272,1.34482 -3.302669,2.98377 -1.187328,8.56727 3.245752,8.56727 0.698167,0 1.654384,-0.16086 2.124927,-0.35746 z m -36.130072,-14.63975 c 1.890432,-0.89707 3.04043,-3.49322 2.470679,-5.57761 -0.370538,-1.35559 -1.678538,-2.91861 -2.853105,-3.40938 -1.73014,-0.7229 -4.0259,-0.33169 -5.464744,0.93121 -1.382178,1.21317 -1.906878,3.9773 -1.084117,5.71114 1.253758,2.6421 4.202457,3.63955 6.931287,2.34464 z m 20.886676,-6.98004 c 2.746353,-1.03764 3.934078,-4.54989 2.415119,-7.1418 -1.64302,-2.8036 -5.19648,-3.33685 -7.623651,-1.14405 -1.248286,1.12775 -1.686441,2.34068 -1.52944,4.2339 0.136131,1.64155 1.070298,3.0272 2.590509,3.8425 1.018426,0.54619 2.992379,0.64588 4.147463,0.20945 z"
       id="path866"
       inkscape:connector-curvature="0" />
  </g>
</svg>
