<?xml version="1.0" encoding="UTF-8" standalone="no"?>
<svg
   xmlns:dc="http://purl.org/dc/elements/1.1/"
   xmlns:cc="http://creativecommons.org/ns#"
   xmlns:rdf="http://www.w3.org/1999/02/22-rdf-syntax-ns#"
   xmlns:svg="http://www.w3.org/2000/svg"
   xmlns="http://www.w3.org/2000/svg"
   id="svg960"
   version="1.1"
   viewBox="0 0 214.7236 208.10306"
   height="208.10306mm"
   width="214.7236mm">
  <defs
     id="defs954" />
  <metadata
     id="metadata957">
    <rdf:RDF>
      <cc:Work
         rdf:about="">
        <dc:format>image/svg+xml</dc:format>
        <dc:type
           rdf:resource="http://purl.org/dc/dcmitype/StillImage" />
        <dc:title></dc:title>
      </cc:Work>
    </rdf:RDF>
  </metadata>
  <g
     transform="translate(-9.3932998,-67.956979)"
     id="layer1">
    <path
       id="path1518"
       d="m 79.439025,270.50438 c -7.422083,-5.07721 -19.05266,-13.49612 -23.24414,-16.41675 -0.17163,-0.003 -0.409755,-0.11022 -0.529167,-0.24085 -0.126489,-0.13835 -0.062,-0.14748 0.154498,-0.022 0.257823,0.14957 0.310388,0.11652 0.171675,-0.10792 -0.109963,-0.17791 -0.372671,-0.2572 -0.58379,-0.17619 -0.211119,0.081 -0.321911,0.0471 -0.246205,-0.0754 0.181962,-0.2944 -2.154031,-1.96411 -2.472516,-1.76726 -0.135805,0.0839 -0.333073,0.0132 -0.438372,-0.15719 -0.129334,-0.20926 -0.07088,-0.24098 0.180155,-0.0978 0.700889,0.39984 -0.12954,-0.2794 -2.042001,-1.67021 -1.036447,-0.75374 -1.968913,-1.37043 -2.072143,-1.37043 -0.10323,0 -0.70865,-0.42688 -1.34539,-0.94864 -0.68079,-0.55787 -1.28819,-0.86802 -1.47447,-0.75287 -0.17422,0.10766 -0.24822,0.0849 -0.16444,-0.0507 0.0838,-0.13557 -0.43924,-0.65997 -1.16228,-1.16538 -0.72303,-0.50538 -1.60706,-1.157 -1.9645,-1.44804 l -0.64989,-0.52916 0.89173,-1.85209 c 0.49044,-1.01864 1.26711,-2.65575 1.72591,-3.63802 0.45881,-0.98226 0.89559,-1.78594 0.97063,-1.78594 0.1955,0 1.35633,0.75194 2.96746,1.92217 0.766929,0.55709 1.529464,0.92941 1.694524,0.82738 0.172662,-0.1067 0.227624,-0.0682 0.129424,0.0907 -0.09635,0.1559 1.470292,1.40282 3.597142,2.86309 2.072302,1.42282 4.156824,2.87237 4.632272,3.22124 0.475451,0.34886 1.606545,1.13671 2.513542,1.75073 1.836021,1.24298 14.211871,9.89099 19.061741,13.31997 1.71883,1.21526 3.25527,2.12915 3.41432,2.03083 0.16114,-0.0996 0.21442,-0.0577 0.12033,0.0945 -0.21873,0.3539 1.86459,1.73797 2.25389,1.49738 0.17419,-0.10766 0.22262,-0.064 0.11758,0.10594 -0.23019,0.37245 2.11561,2.00117 2.52121,1.75048 0.17923,-0.11078 0.23126,-0.0709 0.12722,0.0974 -0.0988,0.15991 0.34734,0.63799 1.01745,1.09026 l 1.19347,0.80545 v -7.87932 -7.87932 l -2.26369,-1.83515 c -1.24503,-1.00936 -2.48007,-2.01377 -2.74453,-2.23205 -0.26446,-0.21828 -3.69576,-3.01625 -7.62512,-6.21771 -6.71665,-5.47242 -8.36754,-6.96429 -5.89854,-5.33038 0.58192,0.38509 1.12142,0.70017 1.1989,0.70017 0.0775,0 1.06229,0.5769 2.18848,1.28202 1.1262,0.70511 2.88107,1.76011 3.89971,2.34444 1.01865,0.58431 3.3999,2.00409 5.29167,3.15503 1.89177,1.15093 4.00513,2.42268 4.69635,2.82609 l 1.25677,0.73348 v -5.27524 -5.27524 l -1.38507,-0.88747 c -0.76178,-0.48812 -2.8542,-1.93086 -4.6498,-3.20609 -1.79561,-1.27523 -3.37793,-2.24865 -3.51628,-2.16314 -0.13835,0.0855 -0.21882,0.038 -0.17884,-0.10562 0.04,-0.1436 -1.59417,-1.42453 -3.63146,-2.84653 -2.0373,-1.42199 -7.27605,-5.08328 -11.64167,-8.13619 -4.365626,-3.05291 -8.086329,-5.55114 -8.26823,-5.55162 -0.181901,-5.2e-4 -0.275871,-0.0557 -0.20882,-0.12277 0.220795,-0.22079 -5.75242,-4.27282 -6.049378,-4.10369 -0.159634,0.0909 -0.206169,0.0721 -0.103418,-0.0419 0.256487,-0.28446 -7.174889,-5.47959 -7.526989,-5.26197 -0.15522,0.0959 -0.20716,0.053 -0.11541,-0.0955 0.0918,-0.14845 -0.85636,-0.97052 -2.1069,-1.82682 -1.25054,-0.8563 -2.78045,-1.9141 -3.39979,-2.35066 -0.61934,-0.43656 -2.36151,-1.62719 -3.87149,-2.64584 -1.50998,-1.01864 -2.80494,-1.92343 -2.8777,-2.01063 -0.0728,-0.0872 -1.79226,-1.31268 -3.8211,-2.72329 -4.2917,-2.98391 -3.82444,-3.08896 -5.17206,1.16286 -2.17498,6.86221 -2.4077,14.19753 -0.64357,20.28518 0.76983,2.65653 2.19938,5.69234 2.57204,5.46202 0.14701,-0.0908 0.18897,-0.0385 0.0933,0.1164 -0.24674,0.39924 0.092,1.15446 0.42546,0.9484 0.16146,-0.0998 0.19927,-0.0447 0.0903,0.13159 -0.19941,0.32265 0.4057,1.00358 2.03681,2.29206 l 1.00484,0.79375 -0.42736,0.85652 c -0.23505,0.47109 -0.34147,0.99551 -0.23649,1.16536 0.11126,0.18004 0.0765,0.23813 -0.0835,0.13929 -0.2364,-0.1461 -1.96985,4.0429 -1.92713,4.65705 0.008,0.112 -0.13717,0.3694 -0.32213,0.57199 -0.28518,0.31234 -0.42382,0.28723 -0.91203,-0.16522 -0.33435,-0.30986 -0.712,-0.44933 -0.90078,-0.33266 -0.22326,0.13798 -0.25723,0.0912 -0.10847,-0.14954 0.15694,-0.25393 0.0962,-0.30424 -0.22053,-0.18269 -0.25041,0.0961 -0.41021,0.0461 -0.37413,-0.11712 0.0894,-0.40452 -2.41016,-2.13356 -2.76624,-1.9135 -0.17055,0.10541 -0.22163,0.0634 -0.12094,-0.0996 0.20414,-0.33031 -2.3236,-1.96836 -2.62273,-1.69962 -0.11028,0.0991 -0.11978,0.0393 -0.0211,-0.13289 0.10541,-0.18395 -0.12595,-0.49337 -0.5611,-0.75042 -0.40726,-0.24058 -1.17629,-1.11175 -1.70896,-1.93595 -0.90251,-1.39647 -2.64794,-4.86935 -2.74779,-5.46728 -0.0243,-0.14552 -0.3481,-1.39568 -0.71956,-2.77813 -1.0385597,-3.86516 -1.3240597,-6.3403 -1.3122997,-11.37708 0.0172,-7.35974 1.1881997,-13.01139 3.6774597,-17.74846 1.5253,-2.90266 2.17987,-3.45232 5.97584,-5.01807 l 3.3596,-1.38576 1.79978,1.24567 c 0.98988,0.68512 2.51415,1.75079 3.38728,2.36816 4.24727,3.00315 5.20159,3.61026 5.44173,3.46185 0.14296,-0.0883 0.22721,-0.0421 0.18722,0.10285 -0.0815,0.29551 2.09301,1.84975 21.490842,15.36049 4.583906,3.19273 9.04875,6.29966 9.921875,6.9043 6.076988,4.20833 14.198088,9.88944 16.562088,11.58599 0.89591,0.64296 1.71978,1.05438 1.90195,0.94977 0.17676,-0.1015 0.23612,-0.0901 0.13191,0.0253 -0.2136,0.23657 0.21028,0.59405 2.78993,2.35288 0.99369,0.67751 1.93483,1.15266 2.0914,1.05589 0.16075,-0.0993 0.20866,-0.0529 0.11004,0.10664 -0.26037,0.42129 2.91409,2.44501 3.83531,2.44501 0.42444,0 3.53626,-1.14548 6.91516,-2.5455 3.378896,-1.39995 7.810326,-3.23491 9.847616,-4.07762 2.0373,-0.8427 5.60917,-2.32916 7.9375,-3.30323 4.72258,-1.97571 5.86274,-2.44909 10.05417,-4.17434 1.60073,-0.65888 4.81542,-1.99468 7.14375,-2.96844 2.32833,-0.97376 5.18583,-2.16366 6.35,-2.64422 1.16417,-0.48056 3.84307,-1.60543 5.95312,-2.49971 2.11006,-0.89429 4.93311,-2.05565 6.27346,-2.5808 1.36634,-0.53534 2.36549,-1.07054 2.27423,-1.21821 -0.0895,-0.14485 -0.0438,-0.18985 0.10157,-0.1 0.24276,0.15004 2.37305,-0.54061 3.46019,-1.12182 0.25204,-0.13474 1.03971,-0.46183 1.75037,-0.72687 0.75366,-0.28107 1.34781,-0.68415 1.42577,-0.96727 0.0967,-0.35129 0.18986,-0.39445 0.3371,-0.15621 0.16185,0.26187 0.37073,0.25988 1.02163,-0.01 0.45,-0.1864 0.81818,-0.45055 0.81818,-0.587 0,-0.13646 0.10154,-0.18535 0.22563,-0.10866 0.21007,0.12983 1.82177,-0.50397 10.35771,-4.07322 1.81901,-0.76061 6.81963,-2.84259 11.1125,-4.62661 9.33056,-3.8776 16.90265,-7.03413 24.60625,-10.25748 6.69533,-2.80147 8.13001,-3.3759 8.43145,-3.3759 0.12303,0 0.77774,0.42304 1.45492,0.9401 0.67773,0.51749 1.36736,0.85593 1.53413,0.75286 0.17378,-0.10741 0.23109,-0.071 0.13438,0.0855 -0.0927,0.14998 0.31277,0.60622 0.90099,1.01386 1.23243,0.85407 1.5685,1.37336 1.56342,2.41583 -0.008,1.72693 -0.0757,1.77987 -4.78076,3.75856 -2.46033,1.03468 -4.593,1.88123 -4.73927,1.88123 -0.1747,0 -0.26593,4.62277 -0.26593,13.47573 v 13.47572 l 2.28508,1.64962 c 1.25679,0.90729 2.44218,1.64962 2.63419,1.64962 0.19201,0 0.28781,0.0992 0.21285,0.22049 -0.075,0.12127 -0.0279,0.22049 0.10449,0.22049 0.1324,0 1.0346,0.60097 2.00488,1.3355 0.97028,0.73452 1.86116,1.27554 1.97974,1.20226 0.2639,-0.1631 0.34634,0.2615 0.36772,1.89401 0.022,1.66773 -0.11136,2.37152 -0.4481,2.36741 -0.89482,-0.0109 -1.21729,0.10795 -1.04579,0.38545 0.1134,0.18349 0.0729,0.23386 -0.10133,0.12615 -0.38085,-0.23537 -6.99876,2.58569 -6.73849,2.87246 0.10999,0.12119 0.0534,0.13609 -0.12576,0.0331 -0.17917,-0.10298 -1.07214,0.12403 -1.98437,0.50447 -0.91226,0.38044 -2.16467,0.87352 -2.78313,1.09574 -0.61846,0.22221 -1.12448,0.49205 -1.12448,0.59964 0,0.10759 -0.15166,0.19561 -0.33704,0.19561 -0.59051,0 -4.66857,1.76097 -4.54417,1.96225 0.0657,0.10629 -0.13747,0.12608 -0.45146,0.044 -0.42532,-0.11122 -0.5162,-0.0608 -0.35636,0.19784 0.13562,0.21945 0.11096,0.28313 -0.067,0.17312 -0.37011,-0.22874 -1.16144,0.0808 -0.97554,0.38154 0.0795,0.12861 -0.0186,0.17123 -0.21802,0.0947 -0.19939,-0.0765 -2.02128,0.5654 -4.04863,1.42648 -2.02736,0.86108 -4.95984,2.07753 -6.51663,2.70321 -1.55678,0.62569 -2.75877,1.25368 -2.6711,1.39555 0.0877,0.14187 0.0303,0.17814 -0.12748,0.0806 -0.1578,-0.0975 -2.46815,0.73273 -5.13411,1.84501 -2.66597,1.11229 -6.51409,2.71016 -8.55138,3.55082 -6.47061,2.67004 -7.12696,2.94941 -7.9375,3.37865 -0.43656,0.23119 -0.93965,0.44564 -1.11798,0.47654 -0.97318,0.16875 -2.68512,1.00322 -2.53996,1.23809 0.0923,0.14936 0.0486,0.19783 -0.0972,0.10777 -0.43294,-0.2676 -10.50183,3.85175 -10.20713,4.17589 0.11217,0.12335 0.0697,0.14766 -0.0944,0.054 -0.16409,-0.0937 -2.00956,0.55208 -4.10104,1.43505 -2.09148,0.88294 -4.00972,1.66841 -4.26274,1.74545 -0.25303,0.0771 -0.38346,0.26403 -0.28985,0.4155 0.0936,0.15145 0.0442,0.19749 -0.10987,0.10229 -0.41023,-0.25352 -6.44891,2.20573 -6.24123,2.54178 0.10024,0.16218 0.0439,0.19838 -0.13594,0.0872 -0.26629,-0.16457 -7.7394,2.82369 -19.0891,7.6331 -21.257476,9.90361 -28.325744,12.00584 -39.906505,3.20022 z m -53.674136,-14.3625 c 0.0435,-0.25466 0.26797,-0.82021 0.49876,-1.25677 0.47409,-0.89678 1.21856,-3.27478 1.42763,-4.56018 0.31251,-1.92135 0.53324,-4.65044 0.43195,-5.34056 l -0.1079,-0.73517 -2.26629,0.78116 c -1.65823,0.57155 -2.95723,0.81923 -4.84152,0.92305 -2.63263,0.14507 -6.86675,-0.32229 -6.86675,-0.75793 0,-0.12774 0.17157,-0.23225 0.38126,-0.23225 0.20969,0 0.46621,-0.13745 0.57005,-0.30546 0.1056,-0.17087 0.0736,-0.23429 -0.0726,-0.14393 -0.14376,0.0888 -0.26137,-0.005 -0.26137,-0.20942 0,-0.26355 0.12708,-0.30292 0.43902,-0.13597 0.51522,0.27572 2.53221,-0.80738 2.19433,-1.17835 -0.1144,-0.1256 -0.0741,-0.15192 0.0897,-0.0585 0.31659,0.18068 1.78882,-0.79867 3.20806,-2.1341 0.47294,-0.44501 0.85989,-0.74311 0.85989,-0.66247 0,0.0806 0.24283,-0.13946 0.53961,-0.48916 0.29679,-0.34967 0.96193,-1.07698 1.47808,-1.61623 0.58807,-0.61439 0.8647,-1.10833 0.74089,-1.32293 -0.10867,-0.18836 -0.10315,-0.25721 0.0122,-0.153 0.4892,0.44171 1.72734,-1.83015 3.62926,-6.65935 2.89264,-7.34476 4.87435,-10.04257 9.87178,-13.43896 2.78878,-1.89533 2.72015,-1.88825 4.79863,-0.49499 0.99878,0.66951 3.18518,2.17721 4.85867,3.35044 1.673486,1.17322 3.964359,2.75176 5.090826,3.50785 1.126466,0.75609 2.0492,1.43445 2.05052,1.50746 0.0013,0.073 -0.563147,0.42503 -1.254371,0.78226 -5.281265,2.72946 -8.730515,6.16237 -11.043565,10.99124 -3.26272,6.81146 -4.08946,8.67275 -3.95142,8.89609 0.0833,0.13483 0.0373,0.21243 -0.10239,0.17245 -0.13965,-0.04 -0.7028,0.58214 -1.25145,1.3825 -1.77337,2.58694 -3.14102,4.12319 -5.19689,5.83748 -0.82694,0.68956 -1.42225,1.33501 -1.32292,1.43436 0.0993,0.0993 0.0615,0.1442 -0.084,0.0997 -0.42182,-0.12893 -1.73283,0.86 -1.54435,1.16496 0.10056,0.1627 0.043,0.19746 -0.13994,0.0844 -0.17427,-0.10772 -0.79632,0.16494 -1.41592,0.62058 -1.26577,0.93085 -1.55898,1.00168 -1.44754,0.34967 z m 1.96366,0.1656 c 0.17947,-0.18081 0.39297,-0.26212 0.47443,-0.18066 0.0815,0.0815 -0.0654,0.22942 -0.32632,0.32878 -0.37708,0.14358 -0.40747,0.11318 -0.14811,-0.14812 z m -14.33223,-32.69794 c -0.14358,-0.37708 -0.11319,-0.40747 0.14812,-0.14811 0.18082,0.17947 0.26211,0.39297 0.18065,0.47443 -0.0815,0.0815 -0.22941,-0.0654 -0.32877,-0.32632 z m 77.754615,-5.23312 c -0.44529,-0.19864 -3.24326,-2.07235 -6.21771,-4.16382 -2.97444,-2.09147 -6.95589,-4.86095 -8.84766,-6.1544 -1.89177,-1.29345 -4.15396,-2.86999 -5.02709,-3.50344 -0.87312,-0.63344 -3.4925,-2.47298 -5.82083,-4.08787 -2.328332,-1.61489 -5.423957,-3.77156 -6.879165,-4.79261 -1.455208,-1.02104 -2.794662,-1.8581 -2.976563,-1.86012 -0.181901,-0.002 -0.274896,-0.0595 -0.206658,-0.12775 0.06824,-0.0682 -1.390274,-1.17547 -3.241146,-2.46052 -1.850869,-1.28504 -4.139123,-2.88474 -5.085013,-3.55488 -1.61278,-1.14263 -3.84763,-2.70428 -6.61458,-4.6221 -0.65484,-0.45388 -3.66136,-2.55106 -6.68115,-4.66039 -3.17358,-2.21675 -5.61924,-3.75558 -5.79557,-3.64661 -0.18094,0.11183 -0.23343,0.0727 -0.12902,-0.0963 0.0992,-0.16054 -0.37359,-0.65518 -1.0836,-1.13367 -9.79552,-6.6013 -12.09114,-8.47014 -13.05436,-10.62739 -0.17665,-0.39562 -0.44123,-0.64512 -0.58795,-0.55443 -0.15497,0.0958 -0.18464,0.032 -0.0708,-0.15223 0.10778,-0.1744 0.0218,-0.58289 -0.19104,-0.90775 -0.71224,-1.08702 -2.05769,-5.57357 -2.55328,-8.5142 -0.9724397,-5.77011 -0.9232297,-11.63879 0.14532,-17.33021 0.51491,-2.74257 0.48296,-2.61115 0.85662,-3.52295 0.16788,-0.40966 0.30524,-0.87213 0.30524,-1.02772 0,-0.48602 2.29005,-5.14331 3.12764,-6.3607 0.66998,-0.97378 1.13025,-1.29352 2.87005,-1.99374 1.13966,-0.45867 3.38179,-1.38233 4.98252,-2.05257 1.60073,-0.67023 3.11744,-1.28342 3.37046,-1.36263 0.25303,-0.0792 0.38346,-0.26794 0.28985,-0.4194 -0.0966,-0.15626 -0.0428,-0.19662 0.12441,-0.0933 0.27824,0.17195 2.20506,-0.56135 9.31216,-3.54399 1.67349,-0.70231 4.82864,-2.0181 7.01145,-2.92397 11.738657,-4.87156 14.126718,-5.86492 15.213547,-6.3284 0.654843,-0.27925 2.619375,-1.09848 4.365625,-1.82052 1.74625,-0.72203 6.092033,-2.53042 9.657293,-4.018639 3.56526,-1.488227 7.43479,-3.091563 8.59896,-3.562968 1.16416,-0.471406 4.02166,-1.662176 6.35,-2.646156 2.32833,-0.983983 5.18583,-2.171761 6.35,-2.63951 1.16416,-0.467749 4.73604,-1.945675 7.937496,-3.284279 3.20146,-1.338603 7.54724,-3.155487 9.65729,-4.037517 2.11005,-0.882031 4.37224,-1.839736 5.02708,-2.128232 0.65485,-0.288496 1.78594,-0.742154 2.51354,-1.008129 3.59038,-1.312457 13.07267,-5.488199 12.89856,-5.680173 -0.10921,-0.120412 -0.0483,-0.132384 0.1354,-0.02661 0.18716,0.107781 1.84542,-0.455094 3.77241,-1.280496 1.89115,-0.810051 3.50442,-1.472819 3.58504,-1.472819 0.0806,0 0.76428,-0.280405 1.51926,-0.62312 2.58057,-1.171443 8.59275,-3.610213 8.90008,-3.610213 0.16876,0 1.00022,0.470865 1.84768,1.046368 0.84747,0.575506 1.61484,0.992225 1.70528,0.926042 0.0904,-0.06618 0.10568,-0.04174 0.0339,0.05432 -0.0718,0.09606 0.7914,0.806995 1.91823,1.579861 1.12683,0.772867 2.16795,1.497944 2.3136,1.611289 1.59251,1.239248 2.29506,1.663877 2.52142,1.523979 0.14827,-0.09164 0.23687,-0.0089 0.19688,0.183785 -0.0402,0.193794 0.13296,0.334184 0.38747,0.314121 0.2531,-0.01995 0.40445,0.0539 0.33634,0.164108 -0.0681,0.110207 1.39168,1.238761 3.24399,2.507893 3.93931,2.699073 7.1319,4.916249 11.82499,8.21219 1.86487,1.309688 4.08049,2.8575 4.92359,3.439584 0.84311,0.582083 2.10641,1.463127 2.80733,1.957874 0.70093,0.49475 2.28644,1.5972 3.52337,2.449888 1.23693,0.852692 3.26099,2.269821 4.49792,3.149182 3.82456,2.718968 5.02768,3.454127 5.3385,3.262027 0.17686,-0.1093 0.22669,-0.0673 0.12168,0.10263 -0.10432,0.16879 0.81338,0.97869 2.21987,1.95911 1.31874,0.91926 3.55326,2.47984 4.9656,3.46797 1.41234,0.98813 2.86555,1.99828 3.22935,2.24478 0.3638,0.2465 1.35837,0.9555 2.21016,1.57555 0.85178,0.62005 1.68522,1.04933 1.85209,0.95395 0.16686,-0.0954 0.21429,-0.0752 0.10544,0.0449 -0.10888,0.12007 0.0908,0.40705 0.44373,0.63773 l 11.28821,7.54794 c 0.1392,-0.086 0.22035,0.001 0.18037,0.194 -0.0411,0.19817 0.1572,0.35054 0.45646,0.35073 0.48175,2.6e-4 0.53072,0.18259 0.54647,2.03423 0.01,1.11866 -0.05,2.01765 -0.13229,1.99778 -1.80188,0.95948 -3.94974,1.51256 -5.67336,2.23435 l -3.86895,1.62754 v 13.426 13.42599 l 1.64912,1.12567 c 0.907,0.61912 1.79473,1.12568 1.97274,1.12568 0.17798,0 0.27871,0.0727 0.22383,0.16146 -0.0549,0.0888 1.09496,0.99169 2.55519,2.00642 1.46024,1.01473 2.82006,2.07982 3.02183,2.36686 0.51152,0.72768 0.45948,2.35377 -0.0961,3.00423 -0.25466,0.29813 -2.18942,1.2508 -4.29947,2.11705 -2.11006,0.86625 -7.46787,3.09114 -11.90625,4.9442 -4.43839,1.85306 -8.96277,3.72358 -10.05417,4.15671 -1.09141,0.43314 -2.61298,1.07314 -3.38128,1.42224 -0.7683,0.34909 -1.44106,0.63472 -1.49504,0.63472 -0.0896,0 -7.39867,3.03509 -24.36014,10.11549 -3.4925,1.45791 -7.36203,3.06463 -8.59896,3.5705 -4.35445,1.78086 -5.21685,2.13903 -11.64167,4.83499 -3.56526,1.49604 -7.43479,3.10705 -8.59895,3.58001 -2.93792,1.19357 -11.68588,4.82198 -19.71146,8.17575 -13.80487,5.76886 -15.49349,6.47239 -21.828116,9.09427 -5.24192,2.1696 -5.55747,2.2541 -6.63046,1.77548 z m 7.98794,-11.92759 c 2.994976,-1.24659 5.617586,-2.20045 5.828016,-2.1197 0.21044,0.0808 0.31669,0.0402 0.23613,-0.0902 -0.0806,-0.13036 1.60989,-0.96715 3.75657,-1.85952 2.14668,-0.89238 4.43883,-1.854 5.09368,-2.13694 0.65484,-0.28293 6.25078,-2.61207 12.43541,-5.17586 6.18464,-2.56378 11.60198,-4.81866 12.03855,-5.01084 0.43656,-0.19218 3.29406,-1.37739 6.35,-2.6338 3.05593,-1.25641 6.21109,-2.56439 7.01145,-2.90663 0.80037,-0.34223 5.38427,-2.25385 10.18646,-4.24804 4.80219,-1.99418 9.23074,-3.85058 9.84122,-4.12534 0.61048,-0.27475 1.16767,-0.49954 1.2382,-0.49954 0.0705,0 2.78574,-1.11518 6.03379,-2.47818 3.24805,-1.36299 11.14429,-4.65255 17.54721,-7.31013 6.40292,-2.65758 12.32055,-5.13183 13.15029,-5.49833 l 1.50866,-0.66637 -0.008,-8.16308 c -0.004,-4.48969 -0.0382,-8.16308 -0.0751,-8.16308 -0.0682,0 -3.68171,1.22803 -18.25711,6.20452 -4.49865,1.53597 -8.22089,2.75114 -8.27166,2.70038 -0.0883,-0.0883 9.02013,-4.63109 20.76983,-10.38045 l 5.90632,-2.89008 -0.073,-5.20048 -0.0731,-5.20049 -1.20306,0.48022 c -0.66169,0.26412 -2.39368,0.97346 -3.84889,1.57631 -1.45521,0.60285 -3.98129,1.64347 -5.61352,2.31249 l -4.53405,1.89082 c 0,0 -2.71779,1.16333 -4.53681,1.90807 -2.9845,1.22192 -5.01909,2.06642 -11.77395,4.88707 -3.10017,1.29454 -7.09363,2.95231 -9.6573,4.00894 -4.42975,1.82576 -9.44729,3.91542 -11.64166,4.84843 -0.65485,0.27842 -2.97657,1.24205 -5.15938,2.14137 -2.18281,0.89934 -5.63562,2.34458 -7.67291,3.21165 -2.0373,0.86708 -5.54964,2.32671 -7.80521,3.24363 -4.18337,1.7006 -13.30989,5.49169 -18.78542,7.80331 -1.67349,0.7065 -5.78115,2.41647 -9.12812,3.79992 -3.34698,1.38346 -7.99042,3.31172 -10.318746,4.28503 -2.32834,0.9733 -4.67982,1.95217 -5.22553,2.17525 l -0.99218,0.4056 v 5.23622 5.23621 l 5.62239,-1.94172 c 3.092316,-1.06795 6.307006,-2.18314 7.143746,-2.4782 0.83675,-0.29506 1.52318,-0.45619 1.52541,-0.35807 0.002,0.0981 0.0915,0.0535 0.19844,-0.0993 0.10691,-0.15271 0.84923,-0.48506 1.64959,-0.73856 0.80036,-0.2535 4.18001,-1.41219 7.51032,-2.57487 5.87173,-2.04993 7.80846,-2.53024 4.89184,-1.21316 -0.78207,0.35317 -5.35101,2.57323 -10.1532,4.93346 -4.80219,2.36023 -10.90414,5.35151 -13.559896,6.64729 l -4.82864,2.35595 v 8.06763 c 0,4.4372 0.0625,8.06763 0.13884,8.06763 0.0764,0 2.58928,-1.01993 5.58426,-2.26651 z m -8.63352,-6.30504 v -7.7778 l -0.88828,-0.75501 c -0.48855,-0.41525 -1.11362,-0.93609 -1.38906,-1.15741 -0.58389,-0.46917 -13.13304,-10.73727 -15.02951,-12.2976 -0.70748,-0.58208 -1.59747,-1.33868 -1.97776,-1.68132 l -0.69143,-0.62299 0.66146,0.38501 c 0.3638,0.21175 4.66815,2.7833 9.56522,5.71457 4.89707,2.93126 9.09402,5.40258 9.32656,5.49181 0.37846,0.14523 0.4228,-0.38007 0.4228,-5.00828 v -5.17052 l -1.06375,-0.74477 c -0.58506,-0.40962 -1.86498,-1.30343 -2.84427,-1.98624 -0.97929,-0.68281 -2.13771,-1.49408 -2.57427,-1.80282 -0.43656,-0.30874 -3.175,-2.21302 -6.08542,-4.23174 -6.66276,-4.62142 -6.53141,-4.52995 -8.65337,-6.02555 -0.97581,-0.68777 -2.91484,-2.0244 -4.30895,-2.97029 -1.394113,-0.94588 -2.679316,-1.84337 -2.856005,-1.99443 -0.176691,-0.15105 -2.642976,-1.89165 -5.480632,-3.868 -20.930668,-14.57766 -24.624238,-17.15172 -25.796878,-17.97789 -4.29896,-3.02879 -7.31865,-5.04484 -7.41379,-4.9497 -0.37772,0.37772 -1.56193,3.55059 -2.10432,5.63811 -2.13402,8.21343 -1.27587,17.39512 2.21331,23.68108 1.19534,2.15347 1.70695,2.65087 5.18814,5.04403 4.63741,3.18802 6.17971,4.25557 7.79242,5.39382 0.79333,0.55994 2.40068,1.67734 3.57187,2.48313 1.1712,0.80579 3.49867,2.43119 5.17216,3.612 1.67349,1.18081 3.29532,2.31949 3.604069,2.53041 0.308747,0.21092 2.268318,1.57411 4.3546,3.02932 2.086282,1.45521 4.055197,2.82443 4.375364,3.04271 0.969251,0.6608 8.804282,6.13633 11.346182,7.9293 1.30969,0.92381 3.51234,2.4574 4.89479,3.40799 1.38245,0.95059 4.12089,2.85952 6.08542,4.24207 1.96453,1.38255 4.70297,3.28597 6.08541,4.22982 1.38245,0.94385 2.8501,1.99259 3.26145,2.33054 0.41135,0.33794 0.85783,0.61444 0.99219,0.61444 0.14378,0 0.24428,-3.19988 0.24428,-7.7778 z m 69.585416,-72.26677 c 4.43838,-1.8465 8.72463,-3.62693 9.525,-3.95651 11.84233,-4.87641 12.37027,-5.11557 11.77193,-5.33269 -0.14663,-0.0532 -1.36878,-0.87629 -2.71588,-1.82906 -1.36932,-0.96849 -2.58225,-1.65014 -2.75084,-1.54594 -0.18348,0.11339 -0.22896,0.0689 -0.11616,-0.11362 0.1117,-0.18073 -0.33023,-0.644 -1.11167,-1.16536 -0.71339,-0.47595 -2.23694,-1.5195 -3.38567,-2.31899 -1.14872,-0.79949 -2.28478,-1.57339 -2.52458,-1.71979 -0.2398,-0.1464 -1.31136,-0.89548 -2.38125,-1.66463 -1.06989,-0.76915 -3.01682,-2.14698 -4.32651,-3.06185 -14.4198,-10.072776 -19.75256,-13.789108 -22.16733,-15.448107 l -2.85274,-1.959903 -2.30663,0.960472 c -1.26865,0.528259 -2.96147,1.247537 -3.76184,1.598395 -0.80036,0.350859 -5.20568,2.181463 -9.78958,4.068014 -4.58391,1.886548 -9.66983,3.990435 -11.30206,4.675304 l -2.96768,1.245215 2.7031,1.86278 c 4.23441,2.91805 6.38085,4.41149 15.09219,10.50084 8.78701,6.14224 17.62666,12.30823 23.49208,16.38664 0.63827,0.44381 1.63674,1.15527 2.21883,1.58102 0.58208,0.42575 1.17739,0.73381 1.32291,0.68457 0.14552,-0.0492 3.89599,-1.60029 8.33438,-3.4468 z M 94.061964,267.9573 c -0.0795,-0.12862 0.0403,-0.16293 0.26611,-0.0763 0.22584,0.0867 0.41061,0.0456 0.41061,-0.0912 0,-0.13685 0.16378,-0.24882 0.36394,-0.24882 0.45807,0 3.35152,-1.13966 3.82906,-1.50818 0.19609,-0.15131 0.57161,-0.30794 0.83448,-0.34808 0.262866,-0.0401 1.412116,-0.47236 2.553876,-0.9606 1.14177,-0.48821 3.04764,-1.29307 4.23527,-1.78855 1.18764,-0.49552 2.10419,-0.99018 2.03678,-1.09924 -0.0674,-0.10906 0.0365,-0.13727 0.23093,-0.0627 0.19442,0.0746 3.62365,-1.24491 7.62052,-2.93224 3.99686,-1.68735 8.01371,-3.35272 8.92634,-3.70083 0.91262,-0.34812 2.04371,-0.80902 2.51354,-1.02421 0.46982,-0.21521 3.05688,-1.29627 5.74901,-2.40236 2.69214,-1.10612 5.54964,-2.29021 6.35,-2.63136 0.80037,-0.34113 2.52677,-1.06651 3.83646,-1.61195 1.30969,-0.54546 3.15516,-1.32122 4.10104,-1.72397 0.94589,-0.40272 4.10105,-1.70775 7.01146,-2.90005 2.91042,-1.19231 5.64886,-2.32592 6.08542,-2.51915 0.43656,-0.19322 2.99641,-1.26132 5.68854,-2.37357 5.9206,-2.44607 8.08307,-3.34898 12.56771,-5.24747 1.89177,-0.80084 4.0349,-1.68862 4.7625,-1.97284 0.7276,-0.28421 3.22792,-1.32338 5.55625,-2.30925 2.32833,-0.98588 5.18583,-2.1791 6.35,-2.65161 4.51305,-1.83176 15.06112,-6.23356 15.14964,-6.32208 0.127,-0.12701 0.076,-16.10315 -0.0518,-16.23097 -0.056,-0.056 -3.47589,1.04899 -7.59982,2.45548 -4.12393,1.40649 -10.05789,3.42962 -13.18659,4.49585 -3.1287,1.06623 -5.73156,1.89583 -5.78413,1.84356 -0.0526,-0.0523 3.84187,-2.02586 8.65431,-4.38576 4.89622,-2.40097 8.67839,-4.40643 8.58752,-4.55345 -0.0893,-0.14451 -0.0321,-0.18223 0.12711,-0.0838 0.38431,0.23752 4.30416,-1.71256 4.10151,-2.04046 -0.0867,-0.14031 -0.0215,-0.17093 0.14502,-0.068 0.2309,0.14271 4.57647,-1.66631 5.02415,-2.09149 0.19373,-0.184 0.16208,-10.44937 -0.0322,-10.44931 -0.1161,5e-5 -2.08064,0.78158 -4.36564,1.73674 -2.28499,0.95517 -5.10703,2.13219 -6.27119,2.61562 -1.16417,0.48342 -3.54542,1.47594 -5.29167,2.20559 -9.21825,3.85177 -17.48045,7.29188 -22.35729,9.30886 -13.67903,5.65741 -16.89323,7.00037 -17.52588,7.32266 -0.39865,0.20309 -0.78618,0.36547 -0.86116,0.36086 -0.075,-0.005 -0.58224,0.18435 -1.12725,0.41991 -1.24352,0.53747 -9.39993,3.92816 -13.9555,5.80144 -1.89177,0.7779 -4.57068,1.88807 -5.95313,2.46703 -1.38245,0.57897 -4.35901,1.82549 -6.61458,2.77004 -7.39273,3.09581 -20.15414,8.40633 -24.60625,10.23962 -2.401096,0.98873 -5.318126,2.20002 -6.482286,2.69176 l -2.11667,0.89408 -0.0718,5.24861 c -0.0674,4.92008 -0.0425,5.23941 0.39687,5.10156 0.64485,-0.20233 4.8006,-1.6488 10.787476,-3.75473 2.76489,-0.97255 7.22974,-2.51976 9.92187,-3.4382 2.69214,-0.91845 5.7781,-1.97869 6.85769,-2.35612 1.07959,-0.3774 2.01884,-0.63025 2.08722,-0.56187 0.0684,0.0684 -0.16009,0.23559 -0.50769,0.37156 -0.34761,0.13599 -5.45404,2.61646 -11.34763,5.51214 -5.8936,2.89571 -12.414966,6.09174 -14.491946,7.10234 l -3.77631,1.83745 0.0199,8.12232 c 0.017,6.96002 0.0745,8.10135 0.40136,7.97591 0.20982,-0.0805 0.31646,-0.25161 0.23698,-0.3802 z"
       style="fill:#ffffff;stroke-width:0.26458335" />
  </g>
</svg>
