<?xml version="1.0" encoding="UTF-8" standalone="no"?>
<svg
   xmlns:dc="http://purl.org/dc/elements/1.1/"
   xmlns:cc="http://creativecommons.org/ns#"
   xmlns:rdf="http://www.w3.org/1999/02/22-rdf-syntax-ns#"
   xmlns:svg="http://www.w3.org/2000/svg"
   xmlns="http://www.w3.org/2000/svg"
   id="svg1094"
   version="1.1"
   viewBox="0 0 17.695116 4.469141"
   height="4.469141mm"
   width="17.695116mm">
  <defs
     id="defs1088" />
  <metadata
     id="metadata1091">
    <rdf:RDF>
      <cc:Work
         rdf:about="">
        <dc:format>image/svg+xml</dc:format>
        <dc:type
           rdf:resource="http://purl.org/dc/dcmitype/StillImage" />
        <dc:title></dc:title>
      </cc:Work>
    </rdf:RDF>
  </metadata>
  <g
     transform="translate(15.651129,-293.25352)"
     id="layer1">
    <path
       id="path1077"
       d="m -5.1486829,297.69667 c -0.5300401,-0.0721 -0.9992299,-0.2682 -1.3231299,-0.55282 -0.0781,-0.0686 -0.1651,-0.13729 -0.19332,-0.1526 -0.0466,-0.0253 -0.0543,-0.0251 -0.0841,0.002 -0.018701,0.017 -0.05,0.10074 -0.0729,0.1955 -0.022101,0.0912 -0.0561,0.19234 -0.0755,0.22471 -0.0423,0.0703 -0.1492298,0.13569 -0.2850999,0.17412 -0.3175199,0.0898 -1.11848,0.12175 -1.5083301,0.0601 -0.7054301,-0.11148 -1.27973,-0.38261 -1.6441602,-0.77624 -0.20463,-0.22101 -0.30798,-0.43106 -0.3602,-0.73204 -0.0155,-0.0893 -0.037,-0.18773 -0.0479,-0.21874 -0.0217,-0.0622 -0.0593,-0.0739 -0.0793,-0.0248 -0.0496,0.12232 -0.0981,0.28702 -0.20083,0.68191 -0.13781,0.52978 -0.19523,0.72429 -0.25148,0.85189 l -0.0411,0.0932 -0.11461,0.0109 c -1.13911,0.10853 -2.862019,0.16413 -3.193209,0.10303 -0.540188,-0.0997 -0.908237,-0.42442 -1.005752,-0.88747 -0.04933,-0.23423 -0.01499,-0.45054 0.114593,-0.72197 0.07049,-0.14765 0.104191,-0.19333 0.246546,-0.33418 0.18273,-0.1808 0.289881,-0.25092 0.542136,-0.35479 0.350957,-0.1445 0.798757,-0.22809 1.483083,-0.27683 0.39544,-0.0281 1.128461,-0.0644 1.302431,-0.0644 h 0.10076 l -0.0126,-0.15805 c -0.025,-0.31447 -0.0593,-0.41756 -0.1765,-0.53132 -0.0805,-0.0781 -0.213764,-0.1333 -0.419297,-0.17367 -0.218012,-0.0428 -1.057268,-0.0412 -1.372847,0.002 -0.308233,0.0428 -0.615603,0.10601 -0.794807,0.16336 -0.18364,0.0588 -0.214804,0.0597 -0.203,0.006 0.03742,-0.17006 0.161615,-0.60542 0.188237,-0.65989 0.04561,-0.0933 0.155643,-0.1329 0.556677,-0.20014 0.486834,-0.0816 0.877371,-0.11416 1.390911,-0.11584 0.476546,-0.002 0.610936,0.0112 0.917058,0.0873 0.62524,0.15541 1.05386,0.49524 1.14981,0.91163 0.0102,0.0444 0.0188,0.17988 0.0191,0.301 2.4e-4,0.12111 0.008,0.22469 0.0165,0.23016 0.023,0.0142 0.12688,-0.10619 0.20943,-0.24289 0.14371,-0.23799 0.27225,-0.39193 0.4499203,-0.53884 0.76499,-0.63254 2.0115598,-0.8906 3.3716899,-0.69799 0.2490599,0.0353 0.34954,0.0649 0.35736,0.1055 0.009,0.0457 -0.2882297,0.64119 -0.3560297,0.71378 -0.0463,0.0495 -0.0658,0.0586 -0.1062,0.0496 -0.2323902,-0.0518 -0.4787101,-0.0716 -0.89852,-0.0723 -0.5210202,-7.8e-4 -0.6132402,0.0155 -0.9031901,0.15969 -0.21056,0.10471 -0.3623699,0.22109 -0.5652199,0.43327 -0.1799,0.18818 -0.28345,0.36657 -0.3414001,0.58812 -0.0461,0.176 -0.045,0.67204 0.00201,0.82798 0.0706,0.23529 0.23169,0.41001 0.5059701,0.54865 0.3655398,0.18476 1.1234198,0.23101 1.7355399,0.10592 0.14902,-0.0305 0.2729899,-0.0554 0.2754601,-0.0554 0.00201,-4e-5 0.005,-0.23377 0.006,-0.5194 6.615e-4,-0.56363 0.014999,-0.699 0.097,-0.91501 0.1301184,-0.34288 0.3373382,-0.647 0.6599282,-0.96856 0.5049504,-0.50332 1.1439904,-0.86942 1.7932804,-1.02733 0.35275,-0.0858 0.49469,-0.10126 0.9264,-0.10096 0.33836,2e-4 0.42707,0.006 0.59706,0.0405 0.44759,0.0902 0.67665,0.20366 0.99095,0.4909 0.10685,0.0977 0.16702,0.14106 0.17896,0.12912 0.01,-0.01 0.0476,-0.12604 0.0836,-0.2581 l 0.0656,-0.24013 0.37865,-0.0141 c 0.49520997,-0.0184 0.92117997,-0.0106 0.94912997,0.0174 0.0164,0.0163 0.0122,0.0569 -0.0178,0.17452 -0.0459,0.17982 -0.0858,0.45771 -0.0683,0.47521 0.0213,0.0213 0.0895,-0.0229 0.22913,-0.14829 0.36361,-0.3265 0.85115,-0.54354 1.36095003,-0.60587 0.18006,-0.022 0.30748,-0.0145 0.51982,0.0309 l 0.137621,0.0293 -0.0606,0.20112 c -0.0333,0.11061 -0.0949,0.32418 -0.13674,0.47459 l -0.0762,0.27348 -0.49762,0.009 c -0.53154003,0.0101 -0.64799003,0.0248 -0.87695003,0.11118 -0.18244,0.0688 -0.33231,0.17356 -0.49671,0.34724 -0.31587,0.3337 -0.38829,0.50028 -0.69616,1.60162 -0.21472997,0.76816 -0.31091997,1.07888 -0.34475997,1.11375 -0.0226,0.0233 -0.12314,0.0267 -0.70387,0.0247 -0.37267,-0.002 -0.68049,-0.005 -0.68404,-0.009 -0.004,-0.004 0.0703,-0.28302 0.16418,-0.6208 0.21677,-0.78023 0.58467,-2.15762 0.58467,-2.18896 0,-0.0131 -0.005,-0.0238 -0.0114,-0.0238 -0.019,0 -0.13566,0.0758 -0.25112,0.1631 -0.12415,0.0939 -0.43041,0.25596 -0.58302,0.30851 -0.38602,0.13295 -1.20671,0.23568 -2.15123,0.26928 -0.60656,0.0215 -0.75458,0.0384 -0.8815303,0.10025 -0.0787,0.0384 -0.10121,0.061 -0.1388301,0.13971 -0.062,0.12968 -0.0912,0.33794 -0.0773,0.55118 0.0329,0.50374 0.2615694,0.84511 0.7052994,1.05275 0.18677,0.0874 0.35577,0.12539 0.60726,0.13651 0.52411,0.0232 1.02372,-0.14565 1.56059,-0.52734 0.21357,-0.15184 0.27355,-0.17751 0.29347,-0.1256 0.0216,0.0564 -0.0176,0.1299 -0.1257,0.23558 -0.23567,0.23047 -0.76418,0.53309 -1.09954,0.62961 -0.34249,0.0986 -0.81709,0.12716 -1.21392,0.0732 z m -8.1001081,-0.69488 c 0.260245,-0.0382 0.513281,-0.10327 0.626788,-0.16118 0.193583,-0.0987 0.410425,-0.49718 0.517228,-0.95034 0.0256,-0.10875 0.0505,-0.20914 0.0552,-0.22311 0.007,-0.0216 -0.0895,-0.0237 -0.655746,-0.0137 -0.708222,0.0124 -0.823199,0.0242 -1.079566,0.11055 -0.530173,0.1786 -0.780008,0.48707 -0.667982,0.82475 0.03752,0.11309 0.203265,0.29279 0.329397,0.35714 0.194813,0.0994 0.46222,0.11648 0.87468,0.056 z m 8.0800681,-1.7795 c 0.89236,-0.0683 1.54946,-0.16906 1.95993,-0.30053 0.17534,-0.0561 0.42179,-0.18859 0.52729,-0.28335 0.18951,-0.17021 0.31861,-0.44851 0.29849,-0.64343 -0.0129,-0.1247 -0.0628,-0.21911 -0.16656,-0.31471 -0.29152,-0.26871 -0.87991,-0.3203 -1.4319,-0.12553 -0.44599,0.15737 -0.89208,0.47159 -1.19318,0.84045 -0.28413,0.34806 -0.5088799,0.7046 -0.5088799,0.80727 0,0.0438 0.006,0.0476 0.0768,0.0475 0.0422,-10e-6 0.23936,-0.0124 0.43805,-0.0277 z"
       style="fill:#ffffff;stroke-width:0.01806378" />
  </g>
</svg>
