<?xml version="1.0" encoding="UTF-8" standalone="no"?>
<svg
   xmlns:dc="http://purl.org/dc/elements/1.1/"
   xmlns:cc="http://creativecommons.org/ns#"
   xmlns:rdf="http://www.w3.org/1999/02/22-rdf-syntax-ns#"
   xmlns:svg="http://www.w3.org/2000/svg"
   xmlns="http://www.w3.org/2000/svg"
   width="15.314158mm"
   height="5.2039762mm"
   viewBox="0 0 15.314158 5.2039761"
   version="1.1"
   id="svg1094">
  <defs
     id="defs1088" />
  <metadata
     id="metadata1091">
    <rdf:RDF>
      <cc:Work
         rdf:about="">
        <dc:format>image/svg+xml</dc:format>
        <dc:type
           rdf:resource="http://purl.org/dc/dcmitype/StillImage" />
        <dc:title></dc:title>
      </cc:Work>
    </rdf:RDF>
  </metadata>
  <g
     transform="matrix(0.10749409,0,0,0.10749409,5.8031774,7.551541)"
     id="g848">
    <path
       style="fill:#ffffff;stroke-width:0.26458332"
       d="m 51.979608,-22.203087 c -1.066792,-0.470895 -1.609841,-1.138965 -1.956601,-2.407044 -0.386872,-1.414762 -0.387131,-14.458908 -2.65e-4,-15.875 0.451866,-1.654244 1.328348,-2.572509 3.646231,-3.820054 4.335097,-2.333291 5.373976,-3.908064 5.421698,-8.218487 0.03255,-2.939531 -0.259924,-3.704167 -1.416827,-3.704167 -1.38796,0 -1.593194,0.672217 -1.593194,5.218247 v 4.04217 h -3.175 -3.175 l 0.0065,-3.770313 c 0.0035,-2.073671 0.128974,-4.306093 0.278702,-4.960937 0.728858,-3.187666 3.339004,-4.811884 7.747063,-4.820771 2.143855,-0.0043 2.492658,0.07128 4.090805,0.886669 1.390973,0.709687 1.911006,1.156777 2.551102,2.193275 l 0.803984,1.301882 0.07544,16.888223 0.07544,16.888221 h -2.88885 c -2.772188,0 -2.895296,-0.02405 -3.048389,-0.595313 -0.08777,-0.327422 -0.161185,-0.863203 -0.163173,-1.190625 -0.0049,-0.814887 -0.301622,-0.745405 -0.929653,0.217726 -0.839126,1.286859 -2.444385,2.099172 -4.124288,2.087023 -0.787579,-0.0057 -1.789149,-0.168024 -2.225712,-0.360725 z m 6.578902,-5.204373 0.69714,-0.54837 v -7.149311 -7.149311 l -1.256771,0.895582 c -2.051907,1.462202 -2.181926,1.926998 -2.182402,7.801827 -5.3e-4,5.239618 0.15871,6.300666 0.976751,6.512676 0.876681,0.227206 1.063757,0.188727 1.765282,-0.363093 z m 12.153804,5.025075 c -0.793356,-0.392705 -1.266192,-0.870455 -1.653646,-1.670825 -0.528896,-1.092554 -0.542591,-1.528122 -0.542192,-17.243059 5.29e-4,-17.93766 -0.06067,-17.305059 1.79169,-18.542101 2.015177,-1.345777 4.406024,-1.01646 6.441209,0.887219 l 1.291691,1.208225 v -5.997997 -5.997996 l 2.976562,0.07481 2.976563,0.07481 0.06757,23.614061 0.06757,23.614062 h -3.044136 -3.044129 v -1.058331 c 0,-0.582083 -0.07487,-1.058333 -0.16637,-1.058333 -0.0915,0 -0.640435,0.428289 -1.219846,0.951751 -1.952947,1.764372 -3.92276,2.143483 -5.942536,1.143704 z m 6.571837,-4.982339 0.624623,-0.505635 0.07842,-12.525094 c 0.04313,-6.888802 0.0087,-12.90822 -0.07654,-13.376485 -0.08523,-0.468264 -0.337378,-1.033811 -0.560337,-1.25677 -0.532683,-0.532684 -1.658306,-0.516531 -2.264979,0.0325 -0.456544,0.413167 -0.483854,1.189715 -0.483854,13.758333 0,12.967673 0.01402,13.334465 0.529166,13.849617 0.664694,0.664694 1.352177,0.672205 2.153502,0.02352 z M -47.636015,-42.998672 v -20.6375 h -3.174999 -3.175 v -2.910416 -2.910417 h 9.392708 9.392708 v 2.910417 2.910416 h -3.042708 -3.042709 v 20.6375 20.637499 h -3.175 -3.175 z m 14.352224,-2.976563 0.06757,-23.614061 2.976562,-0.07481 2.976563,-0.07481 0.0045,6.027936 0.0044,6.027936 0.536186,-0.836986 c 0.663744,-1.036101 1.420426,-1.544216 2.888218,-1.939452 2.712284,-0.730342 5.216943,0.462901 5.795635,2.761091 0.203139,0.806756 0.296044,6.535931 0.296044,18.256468 v 17.08075 h -2.904455 -2.904456 l -0.07211,-16.161004 c -0.06982,-15.648285 -0.0884,-16.172916 -0.585697,-16.536458 -0.732547,-0.535519 -1.911543,-0.463863 -2.529118,0.153713 -0.517503,0.517505 -0.529166,0.881944 -0.529166,16.536458 v 16.007291 h -3.04413 -3.044131 z m 18.985276,4.696354 v -18.917707 h 3.042708 3.0427082 v 18.917707 18.917708 h -3.0427082 -3.042708 z m 9.5250002,0 v -18.917707 h 2.9104162 2.9104166 v 1.250908 1.250909 l 0.7845742,-0.951824 c 1.0699565,-1.298044 2.2725909,-1.814577 4.2248481,-1.814577 2.287706,0 3.354631,0.510389 3.9890777,1.908271 0.493318,1.086936 0.515122,1.868403 0.520689,18.663083 l 0.0058,17.528645 H 7.6619013 4.7514846 v -15.839318 c 0,-15.623581 -0.00746,-15.848814 -0.5483701,-16.536458 -0.6871044,-0.873511 -1.5745037,-0.893971 -2.5457309,-0.0587 l -0.74235728,0.638445 v 15.897926 15.897923 l -2.84427072,9e-5 -2.8442704,8.7e-5 z m 18.7854158,-4.630208 v -23.547916 h 2.910416 2.910417 v 13.361458 c 0,10.512962 0.07051,13.361384 0.330729,13.361111 0.22339,-2.35e-4 0.884314,-2.833983 2.036419,-8.73125 l 1.705689,-8.730902 h 2.963172 2.963172 l -0.614903,2.84427 c -0.338195,1.564349 -1.160867,5.436465 -1.828157,8.604701 l -1.213254,5.76043 1.86033,9.717696 c 1.023181,5.344731 1.920978,9.989391 1.995104,10.321464 l 0.134776,0.603771 -3.116016,-0.0746 -3.11602,-0.0746 -1.719791,-9.855424 c -1.184788,-6.789542 -1.822678,-9.855518 -2.050521,-9.855729 -0.258709,-2.38e-4 -0.330729,2.160296 -0.330729,9.92157 v 9.921875 h -2.910417 -2.910416 z m 18.256249,-0.02024 v -23.568147 l 5.093229,0.08638 c 5.806731,0.09848 6.326963,0.248726 8.309957,2.40002 1.855393,2.012866 1.985547,2.785327 1.891945,11.228727 -0.07856,7.086409 -0.104121,7.401912 -0.688361,8.496113 -1.541632,2.887266 -3.995687,4.544901 -6.735416,4.549555 l -1.521354,0.0026 v 10.186458 10.186458 h -3.175 -3.175 v -23.568154 z m 8.879118,-2.471543 c 0.475673,-0.347413 0.519861,-0.79181 0.598524,-6.019271 0.125487,-8.338951 -0.09339,-9.328616 -2.135454,-9.655579 l -0.992188,-0.158853 v 8.10441 8.10441 h 1.007764 c 0.55427,0 1.238879,-0.168798 1.521354,-0.375107 z m 44.683163,25.391184 c -0.501589,-0.765522 -0.311301,-1.609847 0.455282,-2.020107 1.361053,-0.728416 2.780538,0.764225 1.942742,2.042866 -0.566076,0.863942 -1.824863,0.851993 -2.398024,-0.02275 z m 2.217774,-0.491974 c 0.166926,-1.455801 -1.172858,-2.047791 -1.950053,-0.86164 -0.625483,0.954606 -0.114858,1.797018 1.022472,1.686841 0.702643,-0.06807 0.856456,-0.204902 0.927581,-0.825201 z m -1.467122,-0.162063 c 0.06337,-0.973672 0.355055,-1.2173 0.982771,-0.820841 0.300082,0.189527 0.320889,0.323038 0.08682,0.557104 -0.169315,0.169315 -0.248626,0.501695 -0.17625,0.738625 0.08574,0.280675 0.01725,0.250481 -0.196564,-0.08665 -0.325678,-0.513519 -0.329774,-0.513519 -0.541941,0 -0.159496,0.386043 -0.198816,0.287459 -0.154839,-0.388234 z m 0.852691,-0.549531 c -0.08994,-0.145521 -0.275558,-0.264584 -0.412491,-0.264584 -0.136932,0 -0.248967,0.119063 -0.248967,0.264584 0,0.14552 0.185621,0.264583 0.41249,0.264583 0.22687,0 0.338905,-0.119063 0.248968,-0.264583 z"
       id="path842" />
    <path
       id="path844"
       d="m -13.131359,-63.078151 c -1.39346,-0.849725 -1.960906,-1.797282 -1.960906,-3.274451 0,-2.33264 1.544254,-3.898153 3.845216,-3.898153 2.1003342,0 4.0976262,2.323585 3.7190012,4.326568 -0.51205,2.708846 -3.4124422,4.182014 -5.6033112,2.846036 z"
       style="fill:#e22319;fill-opacity:1;stroke-width:0.26458332" />
  </g>
</svg>
