<?xml version="1.0" encoding="UTF-8" standalone="no"?>
<svg
   xmlns:dc="http://purl.org/dc/elements/1.1/"
   xmlns:cc="http://creativecommons.org/ns#"
   xmlns:rdf="http://www.w3.org/1999/02/22-rdf-syntax-ns#"
   xmlns:svg="http://www.w3.org/2000/svg"
   xmlns="http://www.w3.org/2000/svg"
   id="svg8"
   version="1.1"
   viewBox="0 0 49.863659 42.862209"
   height="42.862209mm"
   width="49.863659mm">
  <defs
     id="defs2" />
  <metadata
     id="metadata5">
    <rdf:RDF>
      <cc:Work
         rdf:about="">
        <dc:format>image/svg+xml</dc:format>
        <dc:type
           rdf:resource="http://purl.org/dc/dcmitype/StillImage" />
        <dc:title></dc:title>
      </cc:Work>
    </rdf:RDF>
  </metadata>
  <g
     transform="translate(-43.050051,-60.689282)"
     id="layer1">
    <path
       id="path826"
       d="M 51.850479,103.08876 C 51.408734,102.7221 50.40829,99.321796 47.043492,86.750741 42.941174,71.424281 42.808068,70.84681 43.191338,70.038456 c 0.218343,-0.460507 0.612126,-0.902663 0.875071,-0.982567 0.262946,-0.0799 2.085428,-0.572521 4.049959,-1.094703 5.562082,-1.478426 5.202705,-1.307272 5.370418,-2.55767 0.08024,-0.598247 0.396072,-1.33814 0.701844,-1.644207 0.526732,-0.527239 0.867753,-0.560695 6.488865,-0.636601 5.847843,-0.07897 5.935441,-0.08845 6.109013,-0.661459 0.287848,-0.95026 1.209053,-1.771967 1.98653,-1.771967 0.396372,0 5.406009,1.25499 11.132526,2.788866 5.726515,1.533876 10.863051,2.908955 11.414525,3.055731 0.748742,0.19928 1.10957,0.491019 1.424742,1.151941 0.416179,0.87274 0.363643,1.103485 -3.770032,16.558153 -2.546536,9.520783 -4.385617,15.919107 -4.685091,16.299827 -0.692889,0.88085 -1.699014,0.81241 -6.407714,-0.43585 -5.702676,-1.511774 -5.790192,-1.505204 -15.91154,1.19458 -4.63657,1.23677 -8.684828,2.2488 -8.996128,2.24896 -0.311301,1.6e-4 -0.817032,-0.20807 -1.123847,-0.46273 z m 29.936125,-6.895864 c 0.533889,-0.5339 6.811015,-23.581022 6.811015,-25.007365 0,-1.588164 -0.538789,-1.832389 -9.126831,-4.13707 -4.356902,-1.169215 -8.072449,-2.125845 -8.256773,-2.125845 -0.184322,0 -0.685999,0.327422 -1.114838,0.727604 -0.712605,0.664986 -1.054521,1.758135 -3.972925,12.702028 -1.756269,6.585934 -3.191394,12.300934 -3.189165,12.699999 0.0022,0.399069 0.102746,0.881193 0.223374,1.071391 0.321934,0.5076 16.390051,4.823928 17.366448,4.665088 0.436057,-0.0709 1.002919,-0.33906 1.259695,-0.59583 z M 53.332466,70.315102 c -0.04433,-0.04433 -1.136288,0.209844 -2.426569,0.564836 -2.551698,0.702042 -3.58025,1.415534 -3.588541,2.48932 -0.0029,0.374815 1.336559,5.707376 2.976562,11.850133 l 2.981825,11.168655 0.06866,-12.996172 c 0.03776,-7.147892 0.03239,-13.032439 -0.01194,-13.076772 z m 5.942523,24.422234 c -0.321339,-0.34205 -0.575079,-0.95522 -0.574815,-1.389063 2.6e-4,-0.427183 1.548072,-6.548293 3.439583,-13.602465 1.891512,-7.054172 3.439112,-12.858469 3.439112,-12.898438 0,-0.03997 -1.591288,-0.07267 -3.536194,-0.07267 -3.176841,0 -3.607038,0.05573 -4.233333,0.54837 l -0.69714,0.548371 v 13.151092 c 0,14.741443 -0.0515,14.327163 1.780915,14.327163 h 0.957159 z"
       style="fill:#ffffff;stroke-width:0.26458335" />
    <rect
       transform="matrix(0.7898321,-0.61332312,0.37584695,0.92668175,0,0)"
       y="110.91937"
       x="37.52607"
       height="8.2772293"
       width="8.2772293"
       id="rect830"
       style="opacity:1;fill:#ffffff;fill-opacity:1;fill-rule:evenodd;stroke:none;stroke-width:2.25819945;stroke-linecap:butt;stroke-linejoin:miter;stroke-miterlimit:4;stroke-dasharray:none;stroke-dashoffset:0;stroke-opacity:1;paint-order:normal" />
  </g>
</svg>
