<?xml version="1.0" encoding="UTF-8" standalone="no"?>
<svg
   xmlns:dc="http://purl.org/dc/elements/1.1/"
   xmlns:cc="http://creativecommons.org/ns#"
   xmlns:rdf="http://www.w3.org/1999/02/22-rdf-syntax-ns#"
   xmlns:svg="http://www.w3.org/2000/svg"
   xmlns="http://www.w3.org/2000/svg"
   viewBox="0 0 255.70677 249.966"
   height="249.966"
   width="255.70677"
   id="svg96"
   version="1.1">
  <metadata
     id="metadata102">
    <rdf:RDF>
      <cc:Work
         rdf:about="">
        <dc:format>image/svg+xml</dc:format>
        <dc:type
           rdf:resource="http://purl.org/dc/dcmitype/StillImage" />
        <dc:title></dc:title>
      </cc:Work>
    </rdf:RDF>
  </metadata>
  <defs
     id="defs100" />
  <path
     id="path137"
     d="m 136.32374,246.71601 c -1.6733,-1.7875 -4.72489,-6.62375 -6.7813,-10.74722 -7.11561,-14.26803 -23.49817,-39.98505 -43.915354,-68.93747 -4.4074,-6.24989 -6.65332,-10.38819 -6.65332,-12.25936 0,-2.31595 6.86668,-10.38719 38.127014,-44.81531 29.05245,-31.996501 38.67203,-41.990637 40.41696,-41.990637 1.25948,0 6.93982,3.115974 12.62299,6.924388 16.28713,10.914352 44.09588,24.831512 70.33304,35.198859 13.09945,5.17611 12.49251,4.75744 14.19406,9.79113 2.61385,7.73252 0.13623,22.03944 -5.64306,32.58562 -18.51251,33.78201 -49.06113,65.83475 -85.47883,89.68754 -11.60604,7.6017 -12.09309,7.81246 -18.05383,7.81246 -5.62065,0 -6.37698,-0.2681 -9.16837,-3.25 z m 22.52154,-25.31096 c 0.69949,-0.6566 -9.28402,-16.82057 -14.08007,-22.79657 -3.84234,-4.78765 -4.79144,-6.72633 -4.79144,-9.7873 0,-3.24022 0.3788,-3.91214 2.50657,-4.44618 5.41474,-1.35901 9.09836,0.49423 22.09515,11.11614 7.04927,5.76118 13.28518,10.45458 13.85757,10.42979 0.57239,-0.0248 3.70062,-2.4994 6.95163,-5.49912 7.15339,-6.60047 7.27032,-6.09787 -4.52815,-19.46293 -15.63882,-17.71533 -15.02097,-16.83865 -14.68735,-20.83983 0.30041,-3.60301 0.37009,-3.65723 5.0877,-3.95918 4.34826,-0.27831 5.39379,0.13357 11.5,4.53044 10.52226,7.5767 24.83,16.0975 25.52911,15.20355 0.18403,-0.23532 2.47254,-3.24967 5.08557,-6.69856 l 4.75097,-6.27071 -10.70798,-11.22929 c -12.76424,-13.38565 -15.70972,-17.51312 -15.26567,-21.39164 0.29192,-2.54972 0.74581,-2.86835 4.47334,-3.14019 3.32731,-0.24265 5.21138,0.37742 9.51846,3.13262 5.64788,3.61291 17.53678,9.86035 21.91592,11.5165 2.42553,0.91732 2.75986,0.64957 5.4891,-4.39579 1.88056,-3.47646 2.55717,-5.69502 1.91716,-6.28617 -0.54401,-0.50247 -12.0141,-6.18056 -25.4891,-12.61798 -13.475,-6.43742 -30.07418,-14.6388 -36.88707,-18.22529 l -12.38707,-6.520893 -4.20496,4.349776 c -2.31274,2.392367 -15.27165,16.321777 -28.79759,30.954237 l -24.59262,26.60447 7.26241,10.89553 c 9.70619,14.56184 29.48173,46.2627 34.0511,54.58507 l 3.67287,6.68954 5.19147,-3.04565 c 2.8553,-1.67511 5.35864,-3.20258 5.56297,-3.39439 z M 63.847516,139.1627 c -8.13968,-11.3097 -9.14961,-13.65415 -9.67133,-22.45106 -0.65791,-11.09326 0.86422,-15.51403 8.08519,-23.482082 l 5.99318,-6.613239 -4.0989,-3.575153 C 61.901266,81.074832 46.988616,67.541013 31.016426,52.966013 9.87118,33.670468 1.975778,25.870358 1.974932,24.275029 1.974293,23.069988 1.52377,21.805931 0.97377,21.466012 c -1.29836,-0.802431 -1.29836,-6.197569 0,-7 0.55,-0.339919 1,-1.541525 1,-2.670237 0,-1.128711 1.841903,-4.252153 4.093118,-6.9409824 3.837652,-4.58365301 4.383773,-4.88652201 8.75,-4.85258901 l 4.656882,0.03619 34.469396,31.46380941 c 18.95817,17.305096 34.78081,31.46381 35.16141,31.46381 0.38061,0 3.36934,-2.921832 6.64163,-6.49296 6.386074,-6.96927 10.021324,-9.012832 17.889464,-10.056577 8.90545,-1.18135 15.15867,0.881949 25.54213,8.427821 6.77124,4.920802 9.37362,7.416382 9.58188,9.188646 0.23219,1.975892 -6.62905,9.949143 -36.515,42.433067 -31.205774,33.91847 -37.254754,40.03908 -39.785914,40.25704 -2.68136,0.2309 -3.55729,-0.53814 -8.61125,-7.56035 z"
     style="fill:#ffffff" />
</svg>
