<?xml version="1.0" encoding="UTF-8" standalone="no"?>
<svg
   xmlns:dc="http://purl.org/dc/elements/1.1/"
   xmlns:cc="http://creativecommons.org/ns#"
   xmlns:rdf="http://www.w3.org/1999/02/22-rdf-syntax-ns#"
   xmlns:svg="http://www.w3.org/2000/svg"
   xmlns="http://www.w3.org/2000/svg"
   id="svg844"
   version="1.1"
   viewBox="0 0 91.605072 91.807068"
   height="91.807068mm"
   width="91.605072mm">
  <defs
     id="defs838" />
  <metadata
     id="metadata841">
    <rdf:RDF>
      <cc:Work
         rdf:about="">
        <dc:format>image/svg+xml</dc:format>
        <dc:type
           rdf:resource="http://purl.org/dc/dcmitype/StillImage" />
        <dc:title></dc:title>
      </cc:Work>
    </rdf:RDF>
  </metadata>
  <g
     transform="translate(-60.817342,-103.39028)"
     id="layer1">
    <path
       id="path1432"
       d="m 102.42128,194.8613 c -17.134791,-1.52638 -32.070291,-12.77457 -38.519611,-29.00979 -3.17099,-7.98251 -3.92653,-17.22397 -2.12919,-26.04365 3.42869,-16.82487 16.44987,-30.56836 33.14994,-34.98883 4.07457,-1.07853 7.044001,-1.43748 11.818051,-1.42859 21.05064,1.86151 37.1577,13.09417 43.39462,31.29648 1.66498,4.98053 2.29061,8.99003 2.28731,14.65879 -0.008,14.6282 -6.63344,27.75634 -18.4836,36.62767 -6.87592,5.14748 -14.96762,8.19262 -23.68987,8.91517 -2.31771,0.192 -4.29339,0.32977 -4.3904,0.30616 -0.097,-0.0236 -1.64378,-0.17365 -3.43725,-0.33341 z M 92.100189,174.05261 c 1.09706,-0.49727 3.60616,-2.72787 8.121581,-7.22008 l 6.53406,-6.50051 6.51871,6.53059 c 3.86468,3.87173 7.10267,6.81447 7.95301,7.22784 4.95473,2.40861 11.11094,-1.57738 11.08156,-7.17503 -0.0145,-2.75691 -1.05971,-4.22826 -7.92157,-11.15082 l -6.49948,-6.55699 6.49801,-6.55 c 6.94449,-7.00007 7.90915,-8.37704 7.92304,-11.3095 0.0109,-2.3089 -1.51821,-5.11491 -3.52009,-6.45938 -1.15425,-0.77521 -2.08034,-1.08082 -3.61058,-1.19151 -3.52496,-0.25497 -4.28543,0.23982 -11.55523,7.51825 -3.58754,3.5918 -6.6816,6.53055 -6.87568,6.53055 -0.19408,0 -3.21194,-2.84376 -6.70635,-6.31947 -3.494421,-3.47571 -6.986141,-6.65071 -7.759371,-7.05556 -2.64241,-1.38348 -6.52572,-0.80366 -8.78096,1.31111 -2.26797,2.1267 -3.01074,6.18223 -1.66031,9.06531 0.40359,0.86165 3.1479,3.88227 7.04781,7.75744 3.51276,3.49048 6.38684,6.50838 6.38684,6.70645 0,0.19807 -2.87408,3.21598 -6.38684,6.70646 -3.89991,3.87516 -6.64422,6.89579 -7.04781,7.75743 -0.85628,1.8281 -0.86228,4.84847 -0.0133,6.71738 0.69915,1.53917 2.40648,3.16561 4.0994,3.90517 1.58054,0.69047 4.35236,0.58041 6.17361,-0.24513 z"
       style="fill:#ffffff;stroke-width:0.35277778" />
  </g>
</svg>
