<?xml version="1.0" encoding="UTF-8" standalone="no"?>
<svg
   xmlns:dc="http://purl.org/dc/elements/1.1/"
   xmlns:cc="http://creativecommons.org/ns#"
   xmlns:rdf="http://www.w3.org/1999/02/22-rdf-syntax-ns#"
   xmlns:svg="http://www.w3.org/2000/svg"
   xmlns="http://www.w3.org/2000/svg"
   version="1.1"
   id="Capa_1"
   x="0px"
   y="0px"
   width="240"
   height="240"
   viewBox="0 0 239.99999 239.99999"
   xml:space="preserve"><metadata
   id="metadata45"><rdf:RDF><cc:Work
       rdf:about=""><dc:format>image/svg+xml</dc:format><dc:type
         rdf:resource="http://purl.org/dc/dcmitype/StillImage" /><dc:title></dc:title></cc:Work></rdf:RDF></metadata><defs
   id="defs43" />
<g
   id="g8"
   transform="matrix(0.61862048,0,0,0.61862048,-129.89211,-46.594743)">
	<g
   id="g6">
		
		
	<path
   d="m 348.8156,442.8634 c 0,11.279 9.144,20.417 20.423,20.417 h 69.425 c 11.279,0 20.422,-9.144 20.422,-20.417 v -118.428 h 118.429 c 11.279,0 20.416,-9.144 20.416,-20.416 v -69.432 c 0,-11.279 -9.144,-20.417 -20.416,-20.417 H 459.0856 V 95.737402 c 0,-11.279 -9.143,-20.417 -20.422,-20.417 h -69.426 c -11.279,0 -20.422,9.144 -20.422,20.417 V 214.1714 h -118.428 c -11.279,0 -20.417,9.144 -20.417,20.417 v 69.425 c 0,11.279 9.143,20.417 20.417,20.417 h 118.434 v 118.434 h -0.006 z m 169.94,-203.318 52.412,29.67 -52.412,29.67 z m -114.805,-137.553 29.67,52.417 h -59.333 z m 29.67,282.027 -29.67,52.412 -29.67,-52.418 h 59.34 z m -144.475,-85.135 -52.412,-29.67 52.412,-29.67 z"
   id="path2"
   style="fill:#ffffff" /></g>
</g>
<g
   id="g10"
   transform="matrix(0.7032967,0,0,0.7032967,-147.67162,-85.823577)">
</g>
<g
   id="g12"
   transform="matrix(0.7032967,0,0,0.7032967,-147.67162,-85.823577)">
</g>
<g
   id="g14"
   transform="matrix(0.7032967,0,0,0.7032967,-147.67162,-85.823577)">
</g>
<g
   id="g16"
   transform="matrix(0.7032967,0,0,0.7032967,-147.67162,-85.823577)">
</g>
<g
   id="g18"
   transform="matrix(0.7032967,0,0,0.7032967,-147.67162,-85.823577)">
</g>
<g
   id="g20"
   transform="matrix(0.7032967,0,0,0.7032967,-147.67162,-85.823577)">
</g>
<g
   id="g22"
   transform="matrix(0.7032967,0,0,0.7032967,-147.67162,-85.823577)">
</g>
<g
   id="g24"
   transform="matrix(0.7032967,0,0,0.7032967,-147.67162,-85.823577)">
</g>
<g
   id="g26"
   transform="matrix(0.7032967,0,0,0.7032967,-147.67162,-85.823577)">
</g>
<g
   id="g28"
   transform="matrix(0.7032967,0,0,0.7032967,-147.67162,-85.823577)">
</g>
<g
   id="g30"
   transform="matrix(0.7032967,0,0,0.7032967,-147.67162,-85.823577)">
</g>
<g
   id="g32"
   transform="matrix(0.7032967,0,0,0.7032967,-147.67162,-85.823577)">
</g>
<g
   id="g34"
   transform="matrix(0.7032967,0,0,0.7032967,-147.67162,-85.823577)">
</g>
<g
   id="g36"
   transform="matrix(0.7032967,0,0,0.7032967,-147.67162,-85.823577)">
</g>
<g
   id="g38"
   transform="matrix(0.7032967,0,0,0.7032967,-147.67162,-85.823577)">
</g>
</svg>