<?xml version="1.0" encoding="UTF-8" standalone="no"?>
<svg
   xmlns:dc="http://purl.org/dc/elements/1.1/"
   xmlns:cc="http://creativecommons.org/ns#"
   xmlns:rdf="http://www.w3.org/1999/02/22-rdf-syntax-ns#"
   xmlns:svg="http://www.w3.org/2000/svg"
   xmlns="http://www.w3.org/2000/svg"
   id="svg889"
   version="1.1"
   viewBox="0 0 117.61678 80.615883"
   height="80.615883mm"
   width="117.61678mm">
  <defs
     id="defs883" />
  <metadata
     id="metadata886">
    <rdf:RDF>
      <cc:Work
         rdf:about="">
        <dc:format>image/svg+xml</dc:format>
        <dc:type
           rdf:resource="http://purl.org/dc/dcmitype/StillImage" />
        <dc:title></dc:title>
      </cc:Work>
    </rdf:RDF>
  </metadata>
  <g
     transform="translate(-17.622465,-36.707973)"
     id="layer1">
    <path
       id="path1445"
       d="m 99.777841,117.19271 c -1.40455,-0.35678 -2.52457,-1.7442 -2.52457,-3.12732 0,-1.40306 0.74429,-2.40108 2.46433,-3.30443 3.005469,-1.57844 5.096739,-3.1243 7.219779,-5.33681 1.76244,-1.83671 4.07422,-5.01221 4.07422,-5.596406 0,-0.0872 -0.8632,0.712586 -1.91823,1.777296 -2.41554,2.43773 -5.08261,4.31252 -8.79474,6.18216 -4.611509,2.32264 -12.174649,4.56027 -13.916809,4.11743 -1.06962,-0.27188 -1.88252,-0.93346 -2.26152,-1.84055 -0.46503,-1.11297 -0.45537,-1.79178 0.0404,-2.83647 0.52731,-1.11123 1.40175,-1.58353 3.96447,-2.14133 3.23626,-0.70439 6.61003,-1.90449 9.47178,-3.36925 1.42593,-0.72985 2.549929,-1.36968 2.497769,-1.42185 -0.0522,-0.0522 -0.742589,0.15161 -1.534279,0.45282 -4.79249,1.82336 -11.8917,1.71412 -16.645371,-0.25614 -2.203881,-0.913446 -3.025825,-1.996136 -2.835161,-3.734566 0.102624,-0.93572 0.332316,-1.36732 1.104032,-2.07455 0.877104,-0.8038 1.097756,-0.8814 2.208882,-0.77679 0.678938,0.0639 1.948808,0.3895 2.821938,0.7235 2.00528,0.76708 6.38328,1.02564 8.73619,0.51595 l 1.58256,-0.34281 -2.38125,-0.35146 c -4.76495,-0.70329 -7.69583,-2.04434 -10.360661,-4.7406 -3.192555,-3.23023 -4.77271,-8.5915 -3.08937,-10.48187 1.960512,-2.20164 5.231411,-1.137 5.886131,1.91587 0.58314,2.71908 2.2529,4.78133 4.74088,5.85526 1.80572,0.77943 5.4469,1.18846 7.3798,0.829 3.411339,-0.63441 6.307899,-2.80348 7.806109,-5.84556 0.81234,-1.64943 0.86627,-1.93231 0.86627,-4.54334 0,-2.56161 -0.0652,-2.92205 -0.81539,-4.50494 -1.03595,-2.18592 -2.81742,-3.96903 -5.07541,-5.08007 -1.713959,-0.84335 -1.878309,-0.87186 -4.952449,-0.85918 -2.6474,0.0109 -3.42967,0.11201 -4.67319,0.60391 -3.17159,1.25458 -4.75935,3.0898 -5.29268,6.11758 -0.34397,1.95276 -1.16427,3.05101 -2.600157,3.48121 -0.862108,0.25829 -1.162082,0.22945 -2.013948,-0.19366 -2.064371,-1.02534 -2.515922,-2.80591 -1.55548,-6.13365 1.347896,-4.67017 4.781845,-7.96219 10.832895,-10.38515 4.45683,-1.7846 8.72882,-2.43862 15.141009,-2.31802 l 4.19992,0.079 1.84202,-0.90512 c 2.20136,-1.08169 5.72364,-4.47115 7.48322,-7.20105 l 1.13481,-1.76058 0.97762,0.2631 c 5.62022,1.51255 10.50394,7.13289 13.14002,15.12196 1.34277,4.06948 1.36147,4.24972 0.48209,4.64621 -3.2215,1.45247 -8.63586,6.08081 -9.81304,8.38845 -1.47531,2.89205 -4.39417,12.71544 -5.32801,17.93137 -0.56241,3.14132 -1.44763,5.944286 -2.60065,8.234656 -2.75964,5.48185 -8.37329,10.90455 -14.08507,13.60599 -1.70672,0.8072 -2.03402,0.87423 -3.031679,0.62081 z M 30.44598,104.85602 c -4.331434,-1.62578 -7.491652,-4.895296 -10.173756,-10.525616 -1.279223,-2.68537 -2.667329,-6.87479 -2.649591,-7.99669 0.0064,-0.40721 0.592911,-0.9576 2.093167,-1.96439 4.03591,-2.70841 6.906588,-5.66123 8.234048,-8.46966 1.68344,-3.56156 4.663953,-13.32017 5.144263,-16.84303 1.16015,-8.50919 7.48726,-16.98796 15.941646,-21.36291 2.209044,-1.14313 3.459668,-1.27232 4.742815,-0.48993 1.061458,0.64722 1.435542,1.3417 1.454288,2.69988 0.0205,1.48549 -0.640213,2.25622 -3.140395,3.66329 -3.431929,1.93144 -5.284954,3.41616 -7.572036,6.06702 -1.089607,1.26292 -2.829658,3.9137 -2.829658,4.31068 0,0.0698 0.922734,-0.78134 2.050521,-1.89131 4.373353,-4.30429 11.092991,-7.7852 18.454686,-9.55991 3.398645,-0.81933 5.054214,-0.58302 6.069357,0.86629 0.662246,0.9455 0.537162,2.92941 -0.243166,3.85678 -0.757851,0.90065 -1.33442,1.14245 -4.238691,1.77757 -2.77052,0.60588 -6.130641,1.79704 -8.598958,3.04832 -2.88295,1.46147 -3.380179,1.93789 -1.190625,1.1408 4.966076,-1.80788 10.212676,-1.87106 15.543077,-0.18719 2.909089,0.91898 3.903797,1.87536 3.903797,3.75336 0,1.58119 -0.813321,2.74795 -2.244859,3.2204 -0.788067,0.26009 -1.213541,0.19249 -3.302117,-0.52463 -2.889771,-0.99221 -5.913924,-1.2737 -8.676941,-0.80766 -2.122752,0.35805 -2.319681,0.80448 -0.354875,0.80448 3.479266,0 8.007646,1.91896 10.661882,4.51811 2.925133,2.86442 4.762834,7.60129 3.822285,9.85234 -0.56257,1.34642 -1.837113,2.09506 -3.310996,1.9448 -1.58727,-0.16182 -2.597369,-1.20326 -3.04823,-3.14279 -1.018468,-4.38131 -4.356407,-6.55877 -10.082606,-6.57725 -3.44093,-0.0111 -5.750327,0.92564 -7.986199,3.2394 -3.87129,4.00614 -3.87129,10.45588 0,14.46203 2.24201,2.32011 4.561787,3.26289 7.986199,3.24566 5.905206,-0.0297 9.362797,-2.41548 10.158766,-7.00964 0.228656,-1.31976 0.449501,-1.77213 1.208194,-2.47485 2.124292,-1.96756 5.434081,-0.44561 5.434081,2.49877 0,3.04246 -1.556324,6.45393 -4.080491,8.94446 -1.555189,1.53446 -2.443893,2.13425 -5.182158,3.49746 -5.778371,2.87669 -8.666435,3.56343 -15.403563,3.66278 -5.306819,0.0783 -6.329364,0.30396 -8.897661,1.96393 -1.866556,1.20642 -5.165335,4.278386 -6.56468,6.113326 -0.544829,0.71443 -1.114961,1.29275 -1.266959,1.28517 -0.151999,-0.008 -0.990736,-0.28192 -1.863861,-0.60965 z"
       style="fill:#ffffff;stroke-width:0.26458332" />
  </g>
</svg>
