<?xml version="1.0" encoding="UTF-8" standalone="no"?>
<svg
   xmlns:dc="http://purl.org/dc/elements/1.1/"
   xmlns:cc="http://creativecommons.org/ns#"
   xmlns:rdf="http://www.w3.org/1999/02/22-rdf-syntax-ns#"
   xmlns:svg="http://www.w3.org/2000/svg"
   xmlns="http://www.w3.org/2000/svg"
   id="svg8"
   version="1.1"
   viewBox="0 0 118.00417 126.40611"
   height="126.40611mm"
   width="118.00417mm">
  <defs
     id="defs2" />
  <metadata
     id="metadata5">
    <rdf:RDF>
      <cc:Work
         rdf:about="">
        <dc:format>image/svg+xml</dc:format>
        <dc:type
           rdf:resource="http://purl.org/dc/dcmitype/StillImage" />
        <dc:title></dc:title>
      </cc:Work>
    </rdf:RDF>
  </metadata>
  <g
     transform="translate(-45.997915,-85.296947)"
     id="layer1">
    <path
       id="path4758"
       d="m 141.29713,204.36832 c -2.80208,-4.13886 -5.20642,-7.59424 -5.34296,-7.67863 -0.13655,-0.0844 -1.18068,0.38438 -2.32029,1.04171 -5.63715,3.2515 -12.5391,5.67408 -19.7817,6.94335 -3.74288,0.65594 -14.490652,0.65594 -18.233525,0 -6.242468,-1.094 -11.502642,-2.7926 -16.944698,-5.47174 -15.412776,-7.58775 -26.703885,-21.47655 -31.080295,-38.23078 -0.661286,-2.5316 -1.595622,-8.0701 -1.595694,-9.45886 l -5.3e-5,-0.99218 h 8.322387 8.322383 l 0.159883,0.99218 c 1.671632,10.37373 5.346422,17.76264 12.279284,24.68998 6.147424,6.14253 12.812038,9.73357 21.424613,11.54407 2.87551,0.60448 3.989295,0.70248 8.096655,0.71238 5.3264,0.0128 8.65401,-0.48917 13.18353,-1.98891 2.44433,-0.80932 7.34078,-3.03256 8.15998,-3.70505 0.39945,-0.3279 -0.0991,-1.15505 -5.24118,-8.69674 l -5.6826,-8.33437 3.91826,-0.0709 c 5.88069,-0.10638 44.75,0.33317 44.92486,0.50803 0.1429,0.1429 -16.95437,45.1154 -17.30872,45.5287 -0.091,0.10612 -2.45803,-3.1934 -5.26012,-7.33226 z m 5.65725,-61.05703 c -0.94543,-5.44293 -3.22423,-11.14513 -6.41771,-16.05891 -6.15894,-9.47673 -15.53056,-15.8158 -27.07,-18.31046 -2.38,-0.51452 -3.55543,-0.60058 -8.20209,-0.60058 -5.987108,0 -8.37739,0.3583 -13.295053,1.99295 -2.459578,0.81758 -8.400778,3.58577 -8.400778,3.9142 0,0.0967 2.548594,3.92211 5.663541,8.50084 3.114948,4.57874 5.633118,8.35673 5.59593,8.39555 -0.0802,0.0837 -48.642001,-0.45548 -48.727392,-0.54102 -0.03224,-0.0323 1.132228,-3.15434 2.587707,-6.93788 3.373538,-8.76958 7.915606,-20.63815 11.644341,-30.427082 1.607497,-4.220104 3.020419,-7.77811 3.139829,-7.906679 0.120419,-0.129656 0.431143,0.109114 0.697722,0.53616 0.264337,0.423455 2.603185,3.883025 5.19744,7.687931 l 4.716828,6.91802 1.595234,-0.934946 c 6.964366,-4.081704 15.85897,-6.933161 24.140503,-7.739031 14.807688,-1.440929 30.153378,3.14716 42.136298,12.598007 2.40111,1.89374 7.07565,6.55263 9.20166,9.17084 5.02556,6.18908 9.0912,14.31803 11.11988,22.23338 0.75321,2.93882 1.72382,8.47531 1.72382,9.83291 0,0.3324 -1.18374,0.38778 -8.28832,0.38778 h -8.28832 z"
       style="fill:#ffffff;stroke-width:0.26458335" />
  </g>
</svg>
