<?xml version="1.0" encoding="UTF-8" standalone="no"?>
<svg
   xmlns:dc="http://purl.org/dc/elements/1.1/"
   xmlns:cc="http://creativecommons.org/ns#"
   xmlns:rdf="http://www.w3.org/1999/02/22-rdf-syntax-ns#"
   xmlns:svg="http://www.w3.org/2000/svg"
   xmlns="http://www.w3.org/2000/svg"
   id="svg8"
   version="1.1"
   viewBox="0 0 101.35822 121.61427"
   height="121.61427mm"
   width="101.35822mm">
  <defs
     id="defs2" />
  <metadata
     id="metadata5">
    <rdf:RDF>
      <cc:Work
         rdf:about="">
        <dc:format>image/svg+xml</dc:format>
        <dc:type
           rdf:resource="http://purl.org/dc/dcmitype/StillImage" />
        <dc:title></dc:title>
      </cc:Work>
    </rdf:RDF>
  </metadata>
  <g
     transform="translate(-40.940235,-96.689077)"
     id="layer1">
    <path
       id="path4529"
       d="m 88.25744,218.15071 c -1.77204,-0.32251 -2.09171,-1.53491 -1.06267,-4.03036 1.1906,-2.88724 2.52607,-7.20749 3.27476,-10.59386 1.25758,-5.68813 1.59694,-8.94841 1.61114,-15.47812 l 0.0132,-6.08542 -0.9865,-2.06599 c -2.20974,-4.62782 -6.46957,-7.32044 -11.58121,-7.32044 -1.09141,0 -2.57969,0.15926 -3.30729,0.35391 -4.42818,1.18464 -8.13268,4.97727 -9.08106,9.2971 -0.15974,0.72761 -0.36294,2.98979 -0.45156,5.02709 -0.28573,6.56884 -0.87716,10.31816 -2.31638,14.68437 -0.93989,2.85139 -1.60435,3.70417 -2.88619,3.70417 -0.72943,0 -1.15359,-0.29652 -2.64725,-1.85058 -2.27571,-2.36775 -2.5171,-3.14379 -1.81802,-5.84472 0.88747,-3.42879 1.09176,-5.01146 1.34676,-10.4333 0.28697,-6.10157 0.7462,-8.34452 2.38705,-11.65889 1.98381,-4.0071 5.35628,-7.37532 9.38123,-9.36943 3.15715,-1.56416 5.74615,-2.15936 9.39271,-2.15936 3.64656,0 6.23556,0.5952 9.39271,2.15936 5.38431,2.66758 9.40013,7.63767 11.00865,13.62463 0.48874,1.81912 0.56554,2.79187 0.54629,6.9199 -0.044,9.44814 -1.29359,17.38378 -4.04664,25.6995 -1.14746,3.46597 -1.90191,4.65936 -3.32026,5.25199 -0.81724,0.34146 -3.40498,0.43135 -4.8495,0.16845 z m -15.38282,-4.23932 c -3.23711,-1.64273 -3.30265,-1.82113 -1.85236,-5.04204 2.53244,-5.62418 3.92605,-12.18699 4.24924,-20.01048 0.10863,-2.62961 0.32622,-5.01881 0.48354,-5.30934 1.38246,-2.55315 4.62765,-3.10251 6.61101,-1.11915 1.27234,1.27234 1.41428,2.24072 1.11427,7.60236 -0.50306,8.99039 -2.25095,16.51384 -5.3171,22.88646 -1.29927,2.70036 -1.75429,2.78573 -5.2886,0.99219 z m 33.37449,0.46302 c -0.68382,-0.68382 -0.66683,-1.34108 0.11499,-4.44997 0.87218,-3.46822 1.64101,-7.56697 2.15325,-11.47938 0.56207,-4.29293 0.80617,-15.04236 0.40132,-17.67274 -0.66813,-4.34097 -2.46307,-8.7845 -5.08396,-12.58581 -1.53676,-2.2289 -5.295,-5.95439 -7.50748,-7.44206 -3.5446,-2.38339 -8.07462,-4.20106 -12.03854,-4.83047 -2.211,-0.35107 -7.314,-0.35107 -9.525,0 -6.13678,0.97443 -11.95051,4.03355 -16.44363,8.65245 -4.65189,4.78212 -7.35052,10.28035 -8.25565,16.82023 -0.23642,1.7082 -0.51386,2.73718 -0.83317,3.09001 -0.61439,0.67889 -2.07804,0.69974 -2.73875,0.039 -0.5895,-0.5895 -2.00238,-4.37405 -2.75191,-7.37129 -0.51899,-2.07536 -0.52409,-2.25066 -0.11395,-3.91268 0.58433,-2.36785 2.18924,-5.70631 4.29954,-8.9437 2.14562,-3.29156 7.15942,-8.38356 10.30106,-10.46171 13.11879,-8.67789 29.45258,-8.67909 42.59792,-0.003 2.76656,1.82594 8.32216,7.38154 10.1481,10.14811 0.76835,1.16416 1.97479,3.30729 2.68096,4.7625 3.23766,6.6718 4.16772,12.19785 3.69998,21.98375 -0.4394,9.193 -1.68329,17.15713 -3.08072,19.72467 -0.88388,1.62398 -1.74427,2.37135 -4.08972,3.5525 -2.05723,1.03601 -3.17087,1.14348 -3.93464,0.37971 z m 20.98744,-15.81254 c -1.25843,-0.20584 -1.27599,-0.34652 -1.27599,-10.22346 0,-8.71406 -0.0375,-9.45695 -0.6096,-12.064 -4.18678,-19.08026 -17.81336,-32.70384 -36.82894,-36.82081 -2.44662,-0.52971 -3.52005,-0.60148 -8.99583,-0.60148 -5.47578,0 -6.54921,0.0718 -8.99583,0.60148 -9.72832,2.10623 -18.26935,6.80254 -24.81063,13.6422 -2.18871,2.28855 -2.99085,2.54493 -4.19494,1.34084 -0.6389,-0.6389 -0.66284,-0.76904 -0.49885,-2.71198 0.25988,-3.07912 0.6057,-4.79435 1.22423,-6.07207 1.50449,-3.10785 11.39448,-9.49111 18.75519,-12.10508 10.0764,-3.57839 21.85863,-4.11545 32.1188,-1.46406 4.06448,1.05033 6.34728,1.89705 10.34682,3.83776 14.0728,6.82861 24.52471,19.23321 28.81701,34.20077 1.1561,4.0314 1.68875,7.20944 2.02895,12.10555 0.39266,5.65116 0.12909,7.44532 -1.51895,10.33983 -1.62656,2.85677 -3.77103,5.7068 -4.45618,5.9223 -0.29104,0.0916 -0.78841,0.12404 -1.10526,0.0722 z m 11.83955,-36.7734 c -0.31302,-0.25466 -1.0815,-1.59411 -1.70774,-2.97656 -3.18851,-7.03882 -7.63987,-13.29645 -13.56121,-19.06408 -9.48125,-9.23513 -20.387,-14.79458 -33.82264,-17.24186 -4.3749,-0.79688 -15.63268,-0.86434 -20.11561,-0.12054 -6.17222,1.02409 -11.33396,2.57976 -16.92452,5.10079 -1.7414,0.78528 -3.38392,1.42777 -3.65004,1.42777 -0.66308,0 -1.78273,-1.1729 -1.78273,-1.86751 0,-0.31275 0.44462,-1.41949 0.98805,-2.45942 1.3041,-2.4956 4.081,-5.27986 6.55257,-6.56996 3.26463,-1.70405 10.33205,-3.47026 16.80104,-4.19873 3.55765,-0.40062 11.76056,-0.40264 15.34584,-0.004 13.62429,1.51572 26.82611,7.03331 37.57083,15.70242 3.73804,3.01594 9.14118,8.61639 12.05369,12.49385 4.60686,6.13316 5.17066,7.61681 5.3491,14.0764 l 0.12573,4.5514 -0.80641,0.80641 c -0.91614,0.91615 -1.59359,1.01244 -2.41595,0.34339 z m -13.90929,-42.81542 c -10.40962,-7.09242 -21.18038,-11.36977 -33.73334,-13.39636 -3.13341,-0.50587 -4.68832,-0.5806 -12.64081,-0.60753 -10.01574,-0.0339 -9.938,-0.0206 -9.938,-1.70373 0,-1.19491 0.71226,-1.80334 3.92466,-3.352555 6.03156,-2.908793 9.55842,-3.618812 15.08125,-3.036117 9.42828,0.994748 18.10613,3.169612 25.85777,6.480542 6.87082,2.9347 11.21914,6.55371 16.14483,13.43695 0.83674,1.16928 1.52135,2.35966 1.52135,2.64529 0,0.65657 -1.38941,2.06756 -2.03017,2.0617 -0.26585,-0.002 -2.15025,-1.14012 -4.18754,-2.52819 z"
       style="fill:#ffffff;stroke-width:0.26458332" />
  </g>
</svg>
