<?xml version="1.0" encoding="UTF-8" standalone="no"?>
<svg
   xmlns:dc="http://purl.org/dc/elements/1.1/"
   xmlns:cc="http://creativecommons.org/ns#"
   xmlns:rdf="http://www.w3.org/1999/02/22-rdf-syntax-ns#"
   xmlns:svg="http://www.w3.org/2000/svg"
   xmlns="http://www.w3.org/2000/svg"
   xmlns:sodipodi="http://sodipodi.sourceforge.net/DTD/sodipodi-0.dtd"
   xmlns:inkscape="http://www.inkscape.org/namespaces/inkscape"
   id="svg8"
   version="1.1"
   viewBox="0 0 117.86052 118.8503"
   height="118.8503mm"
   width="117.86053mm"
   sodipodi:docname="io.svg"
   inkscape:version="0.92.2 (5c3e80d, 2017-08-06)">
  <sodipodi:namedview
     pagecolor="#ffffff"
     bordercolor="#666666"
     borderopacity="1"
     objecttolerance="10"
     gridtolerance="10"
     guidetolerance="10"
     inkscape:pageopacity="0"
     inkscape:pageshadow="2"
     inkscape:window-width="1920"
     inkscape:window-height="1080"
     id="namedview820"
     showgrid="false"
     inkscape:zoom="2.0482507"
     inkscape:cx="244.09129"
     inkscape:cy="201.70307"
     inkscape:window-x="0"
     inkscape:window-y="0"
     inkscape:window-maximized="1"
     inkscape:current-layer="layer1" />
  <defs
     id="defs2" />
  <metadata
     id="metadata5">
    <rdf:RDF>
      <cc:Work
         rdf:about="">
        <dc:format>image/svg+xml</dc:format>
        <dc:type
           rdf:resource="http://purl.org/dc/dcmitype/StillImage" />
        <dc:title />
      </cc:Work>
    </rdf:RDF>
  </metadata>
  <g
     transform="translate(-78.283629,-153.64958)"
     id="layer1">
    <path
       style="fill:#ffffff;stroke-width:0.26458332"
       d="m 133.4375,272.40632 c -11.30417,-0.59875 -22.13235,-4.57626 -31.71155,-11.64858 -3.246926,-2.39721 -9.43987,-8.59765 -11.844805,-11.85915 -5.783415,-7.84329 -9.235887,-15.84608 -11.01484,-25.53229 -0.502956,-2.73854 -0.583055,-4.10248 -0.582675,-9.92188 4.76e-4,-7.27625 0.296814,-9.74837 1.871249,-15.61041 3.254857,-12.1187 11.226498,-23.8386 21.431881,-31.50913 3.10849,-2.33639 4.28904,-2.87418 6.31845,-2.87831 5.52847,-0.0112 8.67289,6.06185 5.47753,10.57923 -0.36194,0.51168 -1.78529,1.76184 -3.16301,2.77812 -10.17749,7.50752 -16.869482,19.0711 -18.333149,31.67917 -0.396683,3.41704 -0.204865,9.63356 0.399727,12.95448 1.706918,9.37583 6.061713,17.57684 12.966302,24.41831 6.38927,6.33086 13.90077,10.33204 23.16879,12.34138 2.41577,0.52375 3.52306,0.59993 8.72026,0.59993 6.66498,0 8.91982,-0.33431 14.26153,-2.11446 16.01322,-5.3365 27.55215,-18.79383 30.60881,-35.69768 0.66409,-3.67251 0.66484,-11.40141 0.002,-15.08125 -0.96561,-5.35642 -3.4633,-12.02879 -6.03751,-16.12867 -3.11374,-4.95917 -8.08592,-10.22005 -12.85506,-13.60145 -3.26775,-2.31689 -4.02843,-3.41561 -4.22019,-6.09563 -0.20978,-2.93194 1.1203,-5.22121 3.79341,-6.52904 1.27017,-0.62144 1.67854,-0.69368 3.27535,-0.57943 2.1306,0.15244 2.99238,0.59469 6.84045,3.51033 14.68249,11.12485 23.3337,28.53734 23.3337,46.96451 0,16.11391 -6.4648,31.3329 -18.04848,42.48848 -12.14244,11.69369 -27.5555,17.37928 -44.65776,16.47342 z m 0.30938,-46.51103 c -1.15556,-0.29101 -2.37004,-1.47909 -2.70921,-2.6503 -0.18088,-0.6246 -0.24507,-11.96801 -0.19253,-34.02165 0.0747,-31.36767 0.10359,-33.12243 0.55621,-33.81315 0.98355,-1.50094 1.81885,-1.75952 5.68731,-1.76061 3.94944,-10e-4 4.74808,0.23557 5.61996,1.6655 0.50509,0.82838 0.51648,1.58793 0.51648,34.44914 0,32.86121 -0.0114,33.62075 -0.51648,34.44913 -0.85723,1.40591 -1.87571,1.76845 -5.17008,1.84034 -1.60073,0.0349 -3.30697,-0.0363 -3.79166,-0.1584 z"
       id="path833"
       inkscape:connector-curvature="0" />
  </g>
</svg>
