<?xml version="1.0" encoding="UTF-8" standalone="no"?>
<!-- Created with Inkscape (http://www.inkscape.org/) -->

<svg
   xmlns:dc="http://purl.org/dc/elements/1.1/"
   xmlns:cc="http://creativecommons.org/ns#"
   xmlns:rdf="http://www.w3.org/1999/02/22-rdf-syntax-ns#"
   xmlns:svg="http://www.w3.org/2000/svg"
   xmlns="http://www.w3.org/2000/svg"
   xmlns:sodipodi="http://sodipodi.sourceforge.net/DTD/sodipodi-0.dtd"
   xmlns:inkscape="http://www.inkscape.org/namespaces/inkscape"
   version="1.1"
   id="svg6860"
   width="600"
   height="561.24493"
   viewBox="0 0 600.00001 561.24494"
   sodipodi:docname="key.svg"
   inkscape:version="0.92.2 (5c3e80d, 2017-08-06)">
  <metadata
     id="metadata6866">
    <rdf:RDF>
      <cc:Work
         rdf:about="">
        <dc:format>image/svg+xml</dc:format>
        <dc:type
           rdf:resource="http://purl.org/dc/dcmitype/StillImage" />
        <dc:title />
      </cc:Work>
    </rdf:RDF>
  </metadata>
  <defs
     id="defs6864" />
  <sodipodi:namedview
     pagecolor="#ffffff"
     bordercolor="#666666"
     borderopacity="1"
     objecttolerance="10"
     gridtolerance="10"
     guidetolerance="10"
     inkscape:pageopacity="0"
     inkscape:pageshadow="2"
     inkscape:window-width="1920"
     inkscape:window-height="1021"
     id="namedview6862"
     showgrid="false"
     inkscape:zoom="0.34570311"
     inkscape:cx="-453.49464"
     inkscape:cy="409.71965"
     inkscape:window-x="0"
     inkscape:window-y="27"
     inkscape:window-maximized="1"
     inkscape:current-layer="svg6860" />
  <path
     style="fill:#ffffff;stroke-width:1.34744954"
     d="m 597.56451,164.34309 c -1.58908,-3.39118 -13.81965,-16.62786 -32.98292,-35.69619 -16.7515,-16.6685 -30.45728,-30.874242 -30.45728,-31.568302 0,-0.69407 4.55079,-5.93831 10.11286,-11.65387 13.68108,-14.058603 17.45151,-22.189953 17.45151,-37.636033 0,-9.56838 -0.58952,-12.72135 -3.58206,-19.15812 -4.72153,-10.15571 -13.98479,-19.8606796 -23.60831,-24.7340296 -7.09236,-3.59158004 -8.98373,-3.93793004 -21.25946,-3.89311004 -11.0436,0.0403 -14.68996,0.59935 -20.21175,3.09872004 -5.56903,2.52074 -28.35017,24.6491196 -131.38123,127.6167546 L 237.00189,255.28613 226.2272,250.63033 C 131.268,209.59813 24.022464,266.08649 2.4814252,368.48172 c -2.95853399,14.0634 -3.34522499,43.46653 -0.761993,57.94032 5.902991,33.07429 21.5700938,63.17764 45.2728898,86.98897 77.271608,77.62549 207.154848,58.03626 258.148108,-38.93435 22.74125,-43.24556 24.80479,-91.6604 5.89722,-138.36079 l -5.01249,-12.3805 51.72348,-51.73655 c 28.44791,-28.45513 52.31644,-51.73657 53.04118,-51.73657 0.72475,0 15.58334,14.19742 33.01907,31.54985 27.39654,27.26561 32.49432,31.75967 37.54078,33.09483 6.10375,1.61489 12.04519,0.92661 17.74096,-2.05518 1.85273,-0.96991 24.68989,-23.18035 50.74923,-49.35649 39.87889,-40.05763 47.61129,-48.44634 48.83753,-52.98278 1.99393,-7.3764 1.81943,-9.91177 -1.11288,-16.16939 z M 223.60569,411.83412 c -2.72833,12.87289 -8.31432,23.29186 -17.31115,32.28871 -24.39245,24.39245 -62.84465,24.70131 -88.21344,0.70858 -12.94481,-12.24267 -19.195168,-26.96332 -19.167004,-45.14154 0.0287,-18.5392 5.809454,-32.69831 18.552094,-45.44099 35.69047,-35.69047 98.02716,-15.57112 106.72119,34.44458 1.60104,9.21053 1.49746,13.33062 -0.58169,23.14066 z"
     id="path7413"
     inkscape:connector-curvature="0" />
</svg>
