<?xml version="1.0" encoding="UTF-8" standalone="no"?>
<svg
   xmlns:dc="http://purl.org/dc/elements/1.1/"
   xmlns:cc="http://creativecommons.org/ns#"
   xmlns:rdf="http://www.w3.org/1999/02/22-rdf-syntax-ns#"
   xmlns:svg="http://www.w3.org/2000/svg"
   xmlns="http://www.w3.org/2000/svg"
   version="1.1"
   id="svg4881"
   width="480"
   height="188.60794"
   viewBox="0 0 479.99999 188.60796">
  <metadata
     id="metadata4887">
    <rdf:RDF>
      <cc:Work
         rdf:about="">
        <dc:format>image/svg+xml</dc:format>
        <dc:type
           rdf:resource="http://purl.org/dc/dcmitype/StillImage" />
        <dc:title></dc:title>
      </cc:Work>
    </rdf:RDF>
  </metadata>
  <defs
     id="defs4885" />
  <path
     id="path4689"
     d="m 455.35409,29.849319 c 5.02775,6.418493 8.11885,10.509629 9.83131,13.011907 2.19838,3.212362 7.88791,14.184452 8.44941,16.294474 0.1945,0.730906 0.86274,2.633846 1.48498,4.228733 6.40329,16.412448 6.52148,44.342047 0.25895,61.197117 -0.46713,1.25729 -1.38982,3.76109 -2.05038,5.56399 -0.66058,1.80292 -1.87113,4.42197 -2.69011,5.82012 -0.81898,1.39816 -1.52988,2.90441 -1.57975,3.34723 -0.16023,1.42245 -7.1471,11.27118 -14.12715,19.91372 -3.92666,4.86189 -18.09663,15.32603 -26.27965,19.40678 -9.62084,4.79779 -21.78959,8.49814 -30.91173,9.39983 -2.69027,0.26592 -24.73432,0.50404 -48.98679,0.52913 l -44.09545,0.0456 3.61227,-4.24839 c 11.87308,-13.96395 17.67884,-22.42934 22.14855,-32.2948 1.00549,-2.21929 2.17757,-4.38447 2.60463,-4.81153 0.42704,-0.42704 12.15186,-0.76385 26.05514,-0.74845 13.90327,0.0154 27.05259,-0.0151 29.2207,-0.0677 18.37149,-0.44619 35.41763,-11.07376 43.68503,-27.23582 2.31751,-4.53054 4.78964,-11.4315 5.18271,-14.46755 1.07695,-8.318414 1.07653,-11.704544 -0.003,-20.861908 -0.33511,-2.843549 -3.13916,-10.625482 -5.45756,-15.146132 -2.51002,-4.894252 -3.24846,-5.837462 -9.04747,-11.556211 -5.45019,-5.374761 -6.96126,-6.560937 -11.04078,-8.667101 -5.50071,-2.839872 -6.80914,-3.366576 -11.28451,-4.542451 -4.47247,-1.175117 -7.20788,-1.671043 -9.4702,-1.716931 -12.17508,-0.24695 -123.38466,-0.112378 -127.11449,0.153811 -6.39575,0.456451 -9.82901,1.222119 -15.39936,3.434275 -5.23753,2.079984 -5.6877,2.345204 -12.41208,7.313127 -4.55521,3.365337 -5.51921,4.331059 -8.70392,8.719411 -4.89768,6.748762 -5.98305,8.707066 -7.8286,14.124893 -2.26082,6.636893 -2.4183,7.362883 -2.857,13.170374 -0.34248,4.533749 0.14511,13.037633 0.97808,17.058973 0.23902,1.15387 -2.24669,1.30663 -21.13334,1.29877 l -21.40422,-0.009 -0.38175,-2.83619 c -1.18275,-8.787244 -0.0127,-25.5373 2.39976,-34.353172 3.3275,-12.159907 7.85327,-21.796387 14.74295,-31.391395 3.79868,-5.290301 15.08569,-16.78249 20.34412,-20.713978 7.19907,-5.382394 17.70402,-10.7520286 26.7748,-13.6860196 4.07904,-1.319376 6.68123,-1.958064 15.19503,-3.72946514 3.68108,-0.7658976 131.36132,-1.1250432 140.25981,-0.3945312 9.1722,0.75297604 7.44101,0.4801728 14.40393,2.26981434 2.11147,0.542678 4.29733,1.015296 4.85746,1.05025 0.56013,0.03494 1.14929,0.19439 1.30922,0.354326 0.15994,0.159946 2.11737,0.94055 4.34985,1.734691 11.36562,4.043002 30.3443,16.6764286 36.11024,24.0372676 z M 305.33862,83.79459 c 0.1336,1.224441 0.26056,5.836569 0.28212,10.249166 0.10218,20.908114 -5.57009,38.983914 -17.45701,55.630314 -3.77013,5.27966 -15.04976,16.76912 -20.33986,20.71824 -8.42375,6.28844 -21.29124,12.40942 -32.03267,15.23774 -6.35311,1.67283 -7.79365,1.91126 -15.51817,2.56856 -7.24125,0.61615 -131.726526,0.45299 -138.082217,-0.181 C 72.883796,187.08922 60.473861,183.32668 51.20777,178.62392 42.866647,174.3906 28.86836,164.03638 24.983813,159.22662 18.003758,150.58409 11.016887,140.73535 10.85666,139.31289 10.80681,138.87008 10.100763,137.35895 9.28773,135.95486 7.7942421,133.37561 5.0985834,126.72454 3.9913834,122.88705 3.6604136,121.73994 3.0780713,119.78641 2.6972945,118.5459 -1.5568615,104.68655 -0.65666798,77.998052 4.5364098,64.021297 5.0035555,62.764004 5.926236,60.260199 6.5868137,58.457281 7.2473851,56.654382 8.4579301,54.035329 9.2769109,52.637175 10.095892,51.239022 10.809215,49.735201 10.862082,49.295377 11.14258,46.961444 21.792124,32.737316 27.545975,27.011434 36.551325,18.049892 50.285268,9.4200104 61.935329,5.4025354 67.932152,3.3345604 76.756865,0.98892546 78.204631,1.0781191 78.729673,1.1104711 81.116102,0.87665346 83.507819,0.55852866 85.899537,0.24040386 107.5652,-0.01077054 131.65376,3.5585989e-4 L 175.45113,0.02061186 170.89022,5.1959814 c -9.84086,11.1666816 -17.01608,21.6801216 -21.39994,31.3560866 -1.00201,2.2116 -2.17815,4.377418 -2.61366,4.812922 -0.4355,0.435513 -8.72955,0.768 -18.43119,0.738892 -40.018069,-0.120096 -41.512019,-0.05837 -49.804647,2.05944 -12.193694,3.11402 -24.680522,13.38168 -30.670569,25.219776 -2.315496,4.5761 -4.89924,11.731085 -5.228613,14.479268 -1.080102,9.01186 -1.078911,11.63332 0.0094,20.868714 0.335106,2.84355 3.139152,10.62548 5.457556,15.14612 2.495822,4.8666 3.27937,5.87169 9.025803,11.5779 5.571049,5.53199 6.854571,6.53468 11.191739,8.7426 7.038635,3.58318 15.909861,6.2008 21.036815,6.20728 85.424676,0.10794 124.129596,0.093 126.776636,-0.0487 11.2623,-0.60329 24.20552,-6.55934 32.56798,-14.98669 6.27621,-6.32494 11.91667,-16.71071 13.54804,-24.94604 1.54459,-7.797284 1.60309,-18.613886 0.1263,-23.352686 l -0.61569,-1.975671 21.40338,-0.0067 c 11.77187,-0.0038 21.4985,0.102624 21.61474,0.236592 0.11623,0.133959 0.32065,1.24538 0.45425,2.469831 z"
     style="fill:#ff0000;stroke-width:0.63343507" />
</svg>
