<?xml version="1.0" encoding="UTF-8" standalone="no"?>
<svg
   xmlns:dc="http://purl.org/dc/elements/1.1/"
   xmlns:cc="http://creativecommons.org/ns#"
   xmlns:rdf="http://www.w3.org/1999/02/22-rdf-syntax-ns#"
   xmlns:svg="http://www.w3.org/2000/svg"
   xmlns="http://www.w3.org/2000/svg"
   viewBox="0 0 383 446.08774"
   height="446.08774"
   width="383"
   id="svg80"
   version="1.1">
  <metadata
     id="metadata86">
    <rdf:RDF>
      <cc:Work
         rdf:about="">
        <dc:format>image/svg+xml</dc:format>
        <dc:type
           rdf:resource="http://purl.org/dc/dcmitype/StillImage" />
        <dc:title></dc:title>
      </cc:Work>
    </rdf:RDF>
  </metadata>
  <defs
     id="defs84" />
  <path
     id="path90"
     d="m 26.301058,445.41537 c -6.086311,-1.03928 -14.124733,-5.44846 -18.018797,-9.88355 -1.694019,-1.92938 -4.250536,-6.0035 -5.681148,-9.0536 L 0,420.93259 v -86.5 -86.5 l 2.601113,-5.54563 c 3.712403,-7.91493 8.103496,-12.43748 15.713414,-16.18383 l 6.643418,-3.27054 H 191.47897 358 l 5.54563,2.60111 c 7.91493,3.71241 12.43748,8.1035 16.18383,15.71342 L 383,247.89054 v 86.54205 86.54205 l -3.27054,6.64342 c -3.74635,7.60992 -8.2689,12.00101 -16.18383,15.71342 L 358,445.93259 194.5,446.07516 c -89.925,0.0784 -165.614524,-0.21849 -168.198942,-0.65979 z M 223.51982,397.18259 c 0.0109,-0.6875 -2.53111,-16.62982 -5.64892,-35.42737 l -5.66874,-34.17737 4.07382,-4.6281 c 5.05382,-5.74144 7.22402,-11.90509 7.22402,-20.51716 0,-9.96817 -2.28356,-15.44079 -9.42139,-22.57861 -7.13782,-7.13783 -12.61044,-9.42139 -22.57861,-9.42139 -9.96817,0 -15.44079,2.28356 -22.57861,9.42139 -7.13783,7.13782 -9.42139,12.61044 -9.42139,22.57861 0,8.61207 2.1702,14.77572 7.22402,20.51716 l 4.07382,4.6281 -5.66874,34.17737 c -3.11781,18.79755 -5.65982,34.73987 -5.64892,35.42737 0.0154,0.97355 7.09706,1.25 32.01982,1.25 24.92276,0 32.00438,-0.27645 32.01982,-1.25 z m -192.000297,-219.5 c 0.03121,-45.96071 3.573689,-63.97992 18.158917,-92.367296 18.46834,-35.94514 52.33823,-65.043 90.65107,-77.878981 C 159.30064,1.080398 166.73504,0 191.5,0 c 24.76496,0 32.19936,1.080398 51.17049,7.436313 50.62656,16.961454 90.58651,60.128561 103.88821,112.226197 3.8313,15.00571 4.90113,27.61736 4.92178,58.02008 l 0.0195,28.75 h -32 -32 l -0.0349,-27.75 c -0.0239,-19.04901 -0.46771,-30.17758 -1.4153,-35.49226 -6.55138,-36.74448 -32.00774,-65.301186 -68.11145,-76.406786 -8.30302,-2.554041 -10.18223,-2.749469 -26.43835,-2.749469 -16.25612,0 -18.13533,0.195428 -26.43836,2.749469 -36.10371,11.1056 -61.56007,39.662306 -68.11145,76.406786 -0.94759,5.31468 -1.39135,16.44325 -1.4153,35.49226 l -0.03489,27.75 h -32 -32 l 0.01952,-28.75 z"
     style="fill:#ffffff" />
</svg>
