<?xml version="1.0" encoding="UTF-8" standalone="no"?>
<svg
   xmlns:dc="http://purl.org/dc/elements/1.1/"
   xmlns:cc="http://creativecommons.org/ns#"
   xmlns:rdf="http://www.w3.org/1999/02/22-rdf-syntax-ns#"
   xmlns:svg="http://www.w3.org/2000/svg"
   xmlns="http://www.w3.org/2000/svg"
   viewBox="0 0 3321.6321 3852.1641"
   height="3852.1641"
   width="3321.6321"
   id="svg5701"
   version="1.1">
  <metadata
     id="metadata5707">
    <rdf:RDF>
      <cc:Work
         rdf:about="">
        <dc:format>image/svg+xml</dc:format>
        <dc:type
           rdf:resource="http://purl.org/dc/dcmitype/StillImage" />
        <dc:title></dc:title>
      </cc:Work>
    </rdf:RDF>
  </metadata>
  <defs
     id="defs5705" />
  <path
     id="path6570"
     d="m 1020.3044,3851.6438 c -11.7174,-0.8046 -39.10327,-4.6195 -52.99997,-7.3831 -217.5407,-43.2618 -432.8344,-254.6216 -645.7116,-633.9131 -149.227,-265.8836 -247.939397,-539.0341 -292.721497,-810 -14.2494,-86.22 -21.5803996,-154.1776 -27.1306996,-251.5 -1.71440004,-30.0607 -2.36110004,-136.7932 -1.02710004,-169.5 2.97800004,-73.0098 8.98620004,-133.2856 19.68659964,-197.5 34.9337,-209.6414 114.335697,-389.7297 237.427697,-538.5 41.1628,-49.7498 94.5587,-102.7982 142.6394,-141.7112 138.4348,-112.03898 304.474,-180.76878 493.3372,-204.21078 43.2548,-5.3689 75.0162,-7.6958 123.49997,-9.0478 115.288,-3.2151 215.3565,10.8479 316,44.4087 28.6851,9.5654 43.8641,15.514 129,50.5552 97.3158,40.05428 113.5586,46.04248 152,56.03778 53.9816,14.0359 96.1445,14.5428 159.5,1.9175 42.13,-8.3956 57.7527,-13.5553 172.5742,-56.99578 94.7024,-35.8288 115.1965,-43.1149 147.9258,-52.5911 138.2743,-40.0348 298.0773,-53.2399 451.5,-37.3091 202.9827,21.0768 382.5416,96.8604 530.4918,223.89618 47.491,40.7776 104.0713,99.5558 140.3148,145.7654 l 3.306,4.2149 -6.7311,4.7851 c -44.3807,31.5499 -94.8071,72.056 -132.8815,106.7398 -17.7355,16.1562 -63.3804,62.049 -78.1209,78.5452 -128.5346,143.8442 -199.8437,300.5976 -216.3109,475.5 -2.3671,25.142 -3.1544,44.9318 -3.1427,79 0.016,47.494 2.1239,81.2092 7.6424,122.2529 28.0164,208.3707 126.9897,382.477 298.9321,525.8588 62.1159,51.7982 134.0561,99.3724 217.5,143.8334 7.975,4.2493 14.6293,7.8544 14.7874,8.0112 0.1581,0.1569 -0.1629,1.3559 -0.7134,2.6645 -0.5505,1.3085 -4.8889,13.1792 -9.641,26.3792 -48.8308,135.6389 -113.6523,272.9731 -185.2592,392.5 -73.1396,122.0851 -156.0193,233.4703 -251.4998,338 -22.1604,24.2606 -82.5819,84.3506 -103.674,103.1052 -66.1637,58.831 -122.0843,98.4004 -181.5,128.4293 -49.0064,24.768 -93.65,39.342 -141,46.0299 -15.2847,2.1588 -54.6926,2.9756 -73.1092,1.5152 -76.3881,-6.0573 -171.5693,-31.6863 -294.3908,-79.269 -58.0833,-22.5023 -132.9954,-50.4636 -146.5,-54.6819 -40.733,-12.7234 -85.9099,-20.7824 -142,-25.3311 -25.1905,-2.0429 -102.4666,-1.7327 -124.5,0.4998 -53.6769,5.4388 -106.6484,15.892 -162.5,32.0673 -48.8708,14.1535 -125.759,41.8383 -186.6186,67.1949 -52.7434,21.975 -64.0378,26.288 -87.6805,33.4826 -46.4633,14.1389 -91.0609,22.419 -139.7009,25.9371 -12.821,0.9273 -59.1015,1.1339 -71,0.3169 z M 1636.4467,932.59762 c -1.4882,-11.4864 -4.7146,-45.5491 -6.2279,-65.75 -1.8025,-24.0604 -1.5273,-72.1251 0.5439,-95 14.209,-156.9328 76.6099,-299.381 191.7302,-437.6801 117.5978,-141.2754 256.1112,-240.869005 405.9092,-291.856005 48.8556,-16.6291 107.8674,-30.5746 149.9023,-35.4246997 7.7,-0.8884 23.225,-2.8849 34.5,-4.4366 11.275,-1.5516 20.7054,-2.6416 20.9565,-2.4221 1.571,1.3736 3.3203,51.8432997 3.4252,98.8194997 0.1214,54.368805 -0.2747,63.359705 -4.4495,101.000005 -16.0683,144.8749 -69.6146,278.3364 -159.6823,398 -72.2303,95.9649 -163.3514,179.4435 -257.2499,235.6737 -104.0871,62.3317 -216.2406,96.2954 -339.5,102.8116 -10.45,0.5524 -23.5545,1.0067 -29.1212,1.0096 l -10.1211,0.01 -0.6154,-4.75 z"
     style="fill:#ffffff" />
</svg>
