<?xml version="1.0" encoding="UTF-8" standalone="no"?>
<svg
   xmlns:dc="http://purl.org/dc/elements/1.1/"
   xmlns:cc="http://creativecommons.org/ns#"
   xmlns:rdf="http://www.w3.org/1999/02/22-rdf-syntax-ns#"
   xmlns:svg="http://www.w3.org/2000/svg"
   xmlns="http://www.w3.org/2000/svg"
   viewBox="0 0 527.75116 624.41236"
   height="624.41235"
   width="527.75116"
   id="svg5701"
   version="1.1">
  <metadata
     id="metadata5707">
    <rdf:RDF>
      <cc:Work
         rdf:about="">
        <dc:format>image/svg+xml</dc:format>
        <dc:type
           rdf:resource="http://purl.org/dc/dcmitype/StillImage" />
        <dc:title></dc:title>
      </cc:Work>
    </rdf:RDF>
  </metadata>
  <defs
     id="defs5705" />
  <path
     id="path6656"
     d="m 194.9061,623.89297 c -1.375,-0.4288 -4.98844,-1.50554 -8.02986,-2.39276 -7.68634,-2.24218 -15.51877,-9.38066 -20.02107,-18.2472 l -3.44907,-6.79239 -0.5,-49.05505 c -0.275,-26.98028 -0.86406,-49.61756 -1.30902,-50.30506 -0.60367,-0.93273 -5.98836,-1.25 -21.21505,-1.25 -25.94595,0 -28.36768,-0.67476 -37.68471,-10.5 -2.08621,-2.2 -5.030178,-6.475 -6.542158,-9.5 l -2.74906,-5.5 v -129.5 -129.5 h 170.499998 170.5 v 129.09901 c 0,95.1724 -0.30197,129.72998 -1.14908,131.5 -0.63199,1.32055 -1.65468,3.75099 -2.27265,5.40099 -1.02602,2.73956 -6.56082,9.05689 -12.22007,13.94779 -4.13409,3.57282 -11.12976,4.55221 -32.51577,4.55221 h -20.22171 l -0.37297,48.75 c -0.40442,52.86043 -0.36771,52.49546 -6.19592,61.59512 -7.25096,11.32102 -17.22466,17.08829 -29.55183,17.08829 -9.9933,0 -16.12017,-2.56913 -23.37273,-9.80067 -11.9837,-11.94897 -12.58491,-15.56757 -12.60994,-75.89762 l -0.0173,-41.76488 -29.75,0.26488 -29.75,0.26488 -0.57631,48.5 c -0.39822,33.51209 -0.94648,49.6333 -1.77417,52.16728 -2.13852,6.54718 -6.10311,12.54257 -11.71935,17.72237 -4.41557,4.07244 -6.92699,5.49156 -12.71621,7.18547 -9.69161,2.83576 -9.85047,2.86034 -12.71396,1.96734 z M 30.906103,435.8605 c -7.03243,-1.20864 -11.53604,-3.49586 -17.06303,-8.66571 -6.7034,-6.27025 -9.24247,-10.94805 -11.85689,-21.84428 -2.13223001,-8.88657 -2.15540001,-9.97672 -1.83894001,-86.5 0.17628,-42.625 0.60191,-78.4 0.94586001,-79.5 0.34394,-1.1 0.92914,-3.35 1.30046,-5 1.9134,-8.50263 6.62605,-16.29851 12.69461,-21 2.12977,-1.65 4.43501,-3.49458 5.12275,-4.09906 2.53375,-2.22701 9.3951,-3.80278 16.71272,-3.83822 9.88109,-0.0479 16.94398,3.35904 24.70692,11.91774 6.61498,7.29307 9.1978,13.72756 10.44431,26.01954 0.50196,4.95 0.77633,43.425 0.6097,85.5 -0.27878,70.39209 -0.44122,76.73953 -2.03456,79.5 -0.95237,1.65 -1.73436,3.58485 -1.73775,4.29966 -0.009,1.9581 -2.92061,7.19537 -5.61525,10.10141 -1.315,1.41817 -2.39091,2.88336 -2.39091,3.25597 0,1.65715 -12.30318,8.7121 -16.22634,9.30459 -8.44733,1.27575 -9.33557,1.31111 -13.77366,0.54836 z m 454.053677,-0.17193 c -7.80752,-1.25881 -14.31004,-5.36186 -20.75002,-13.09311 -2.64087,-3.1704 -5.30133,-8.15342 -5.30982,-9.94529 -0.003,-0.71481 -0.79089,-2.64966 -1.75,-4.29966 -1.62085,-2.78841 -1.74384,-8.93145 -1.74384,-87.09876 0,-64.36637 0.28728,-84.66218 1.22438,-86.5 0.67341,-1.32068 2.13265,-4.89361 3.24275,-7.93984 2.49891,-6.85722 9.8315,-14.52057 17.70603,-18.50472 4.74738,-2.40196 6.86924,-2.85026 13.72132,-2.89901 7.08357,-0.0504 8.84985,0.31947 14.00911,2.93356 6.45461,3.27042 16.48233,13.48916 17.90696,18.24808 3.73738,12.4845 3.67577,11.19992 4.27103,89.05753 0.59722,78.1141 0.43485,82.9193 -3.24214,95.9525 -0.81453,2.88713 -2.12413,5.89249 -2.91021,6.67857 -0.78607,0.78608 -1.42923,1.8461 -1.42923,2.3556 0,1.40335 -10.19186,10.74722 -13.70304,12.56293 -1.69786,0.87799 -5.04675,1.86256 -7.44199,2.18793 -2.39523,0.32537 -5.25497,0.72438 -6.35497,0.88669 -1.1,0.16231 -4.45084,-0.10004 -7.44632,-0.583 z M 95.924422,182.10342 c 0.0213,-7.84545 2.57923,-27.02323 3.82067,-28.64484 0.466558,-0.60944 1.634348,-4.03307 2.595098,-7.60807 0.96074,-3.575 2.29514,-7.4 2.96533,-8.5 0.67019,-1.1 2.05072,-4.25 3.06784,-7 1.01713,-2.75 2.16764,-5.225 2.5567,-5.5 0.38905,-0.275 1.66359,-2.38629 2.83231,-4.69175 3.41012,-6.72694 6.98573,-11.92166 15.01098,-21.808251 13.26136,-16.337142 30.29735,-30.186788 50.44924,-41.013412 2.64907,-1.423215 4.67149,-2.902421 4.49427,-3.287126 -0.5378,-1.167443 -5.76454,-10.596554 -6.7624,-12.199462 C 175.05,38.791276 159.45873,11.184637 157.03912,6.5874556 c -1.94293,-3.6915 -2.23828,-5.031689 -1.31282,-5.95714302 1.81829,-1.81829498 2.95997,-0.393603 10.90565,13.60909842 1.52578,2.688897 3.22837,5.613897 3.78352,6.5 0.55515,0.886104 3.70094,6.336098 6.99063,12.111098 3.28969,5.775 6.53016,11.4 7.20104,12.5 0.67087,1.1 1.75982,3.0125 2.41988,4.25 1.46322,2.743278 3.32529,2.826567 8.15406,0.364724 2.03382,-1.036902 6.74147,-2.686227 10.46144,-3.665167 3.71997,-0.97894 7.23991,-2.139156 7.8221,-2.578256 0.58219,-0.439101 7.55719,-2.052266 15.5,-3.58481 12.83245,-2.475987 16.66983,-2.785924 34.44148,-2.781769 16.41256,0.0038 22.24215,0.410658 32.5,2.268029 12.47965,2.259669 28.93617,6.934022 36.5,10.367559 6.51682,2.958257 6.56397,2.932196 12.01289,-6.64031 1.2329,-2.165912 8.37135,-14.541922 12.11275,-21 1.27454,-2.2 3.46519,-6.025 4.86812,-8.5 6.174,-10.8919714 7.3726,-12.5123174 9.49191,-12.8317834 3.42897,-0.51688602 2.60783,1.416689 -9.48376,22.3317834 -3.1797,5.5 -6.73091,11.8 -7.89159,14 -1.16068,2.2 -2.36672,4.225 -2.6801,4.5 -0.31337,0.275 -1.96147,3.094656 -3.66243,6.265901 l -3.09265,5.765902 3.16243,2.23661 c 4.07383,2.881195 6.25235,4.220765 11.16243,6.863769 5.59439,3.011358 21.08651,14.751615 26.65126,20.196889 4.12645,4.037853 18.85182,20.55419 20.65836,23.17093 3.01438,4.36626 6.27887,9.75735 8.18826,13.52236 1.24893,2.4627 2.55135,4.70264 2.89425,4.97764 1.0211,0.81889 6.80997,14.91975 9.55744,23.28053 2.84929,8.67063 5.25383,22.60131 5.73393,33.21947 l 0.3165,7 -168.25,0.25291 -168.249998,0.2529 0.0183,-6.7529 z m 96.427458,-50.65155 c 5.45312,-3.70059 7.55422,-7.57379 7.55422,-13.92553 0,-2.90171 -0.50212,-5.77795 -1.11582,-6.39165 -0.61369,-0.61369 -1.63474,-2.15667 -2.26897,-3.42883 -1.68272,-3.3752 -8.38528,-6.81959 -13.30805,-6.8389 -8.66523,-0.034 -16.53793,7.95409 -16.53793,16.78033 0,5.81391 2.1074,10.26712 6.25704,13.22193 6.5543,4.66707 13.11089,4.86379 19.41951,0.58265 z m 157.59858,2.40284 c 4.66554,-1.29612 9.8973,-6.81167 10.96917,-11.56417 1.08169,-4.79608 -0.19823,-11.87412 -2.64116,-14.60578 -3.48071,-3.8921 -9.1883,-6.83425 -13.258,-6.83425 -12.60206,0 -21.71932,15.51226 -14.86437,25.29049 1.2375,1.76523 2.59554,3.36219 3.01786,3.5488 0.42232,0.1866 1.44407,1.01549 2.27055,1.84198 2.96632,2.96632 8.8173,3.90328 14.50595,2.32293 z"
     style="fill:#ffffff" />
</svg>
