<?xml version="1.0" encoding="UTF-8" standalone="no"?>
<svg
   xmlns:dc="http://purl.org/dc/elements/1.1/"
   xmlns:cc="http://creativecommons.org/ns#"
   xmlns:rdf="http://www.w3.org/1999/02/22-rdf-syntax-ns#"
   xmlns:svg="http://www.w3.org/2000/svg"
   xmlns="http://www.w3.org/2000/svg"
   xmlns:sodipodi="http://sodipodi.sourceforge.net/DTD/sodipodi-0.dtd"
   xmlns:inkscape="http://www.inkscape.org/namespaces/inkscape"
   id="svg8"
   version="1.1"
   viewBox="0 0 130.52778 135.36473"
   height="383.71106pt"
   width="370pt"
   sodipodi:docname="os_linux.svg"
   inkscape:version="0.92.3 (2405546, 2018-03-11)">
  <sodipodi:namedview
     pagecolor="#ffffff"
     bordercolor="#666666"
     borderopacity="1"
     objecttolerance="10"
     gridtolerance="10"
     guidetolerance="10"
     inkscape:pageopacity="0"
     inkscape:pageshadow="2"
     inkscape:window-width="1366"
     inkscape:window-height="709"
     id="namedview820"
     showgrid="false"
     units="pt"
     inkscape:zoom="1.0535271"
     inkscape:cx="217.93321"
     inkscape:cy="255.80737"
     inkscape:window-x="0"
     inkscape:window-y="27"
     inkscape:window-maximized="1"
     inkscape:current-layer="svg8" />
  <defs
     id="defs2" />
  <metadata
     id="metadata5">
    <rdf:RDF>
      <cc:Work
         rdf:about="">
        <dc:format>image/svg+xml</dc:format>
        <dc:type
           rdf:resource="http://purl.org/dc/dcmitype/StillImage" />
        <dc:title></dc:title>
      </cc:Work>
    </rdf:RDF>
  </metadata>
  <g
     transform="translate(-101.39268,-50.323179)"
     id="layer1"
     style="fill:#ffffff">
    <path
       id="path826"
       d="m 189.4233,185.30429 c -0.78853,-0.212 -1.80056,-0.61366 -2.24896,-0.89257 -0.91377,-0.56838 -2.61168,-2.30368 -3.65598,-3.7365 -0.66321,-0.90994 -0.80173,-0.96668 -3.42316,-1.40226 -7.30451,-1.21371 -14.04716,-1.17216 -22.38691,0.13796 -3.72688,0.58546 -3.78737,0.60583 -4.30962,1.45085 -1.20752,1.95381 -3.59582,3.44592 -6.01024,3.75495 -3.15503,0.40383 -5.25729,-0.0713 -14.94309,-3.37709 -5.26867,-1.79823 -6.9424,-2.24922 -10.31875,-2.7804 -6.63754,-1.04426 -9.22042,-1.76465 -11.0319,-3.07687 -2.40199,-1.74 -2.65851,-3.43916 -1.20021,-7.95013 1.08911,-3.36898 1.17655,-5.19274 0.39064,-8.14809 -0.80306,-3.01987 -0.60335,-4.8091 0.71114,-6.37128 0.94313,-1.12085 2.1949,-1.703 5.40773,-2.51494 4.74324,-1.19869 6.03679,-2.03668 7.85777,-5.0904 0.58511,-0.98119 1.41468,-2.11748 1.84351,-2.52509 0.77601,-0.73762 0.77908,-0.75263 0.65155,-3.19078 -0.14986,-2.86494 0.22516,-4.4594 1.77817,-7.56012 0.55142,-1.10096 2.1017,-5.03784 3.44506,-8.74862 3.68562,-10.18077 4.26912,-11.22297 12.29507,-21.96041 3.42127,-4.577124 3.58864,-5.001334 3.77213,-9.560484 0.0987,-2.45349 -0.013,-6.27994 -0.31506,-10.793593 -0.86416,-12.910867 -0.18786,-18.303803 2.86483,-22.84479 3.46112,-5.14853 12.32363,-8.571139 19.81138,-7.650949 4.84249,0.595107 8.20947,2.066227 11.2642,4.921617 3.07763,2.876804 4.67612,5.500854 6.27223,10.296363 1.19915,3.602837 1.67536,6.522139 1.99278,12.216205 0.51512,9.240407 0.77283,11.474657 1.6175,14.022917 0.87743,2.64705 1.31652,3.39983 5.09285,8.731254 9.19025,12.97478 14.55399,22.1303 16.06788,27.42671 0.56232,1.96734 0.63072,2.73741 0.63072,7.10141 0,3.71113 -0.11464,5.42622 -0.47408,7.09242 l -0.47408,2.19763 0.64975,0.77218 c 1.3757,1.63491 2.06182,3.53007 2.2791,6.29512 0.12092,1.53874 0.39541,3.0129 0.66794,3.58722 0.59667,1.25739 2.13042,2.55902 4.26771,3.62184 0.93555,0.46522 1.99784,1.07935 2.36065,1.36473 1.67487,1.31745 2.20477,4.2928 1.15189,6.46776 -0.80398,1.66079 -2.37466,2.90005 -6.63696,5.2365 -9.13649,5.00832 -12.84229,7.34961 -15.74387,9.94682 -2.32745,2.08331 -4.02002,3.04882 -6.22311,3.5499 -2.17246,0.49412 -3.86581,0.48911 -5.7482,-0.017 z m 6.26138,-6.71592 c 1.65332,-0.75048 3.30032,-1.94769 5.71932,-4.15738 2.40754,-2.19924 4.55009,-3.56035 10.35506,-6.57832 2.18281,-1.13484 4.48102,-2.40996 5.10713,-2.83362 1.41286,-0.956 1.35191,-1.0487 -1.97791,-3.0084 -1.82869,-1.07624 -2.67583,-1.76085 -3.29816,-2.66538 -1.07797,-1.56677 -1.81544,-3.95509 -1.81544,-5.87934 0,-0.8359 -0.0754,-1.5952 -0.16749,-1.68732 -0.0921,-0.0921 -0.49118,0.27499 -0.88679,0.8158 -1.21499,1.66091 -2.18629,2.48573 -3.84051,3.2613 -3.178,1.49 -6.05997,1.89912 -8.40545,1.19324 -2.57208,-0.77409 -3.7903,-2.38822 -4.54203,-6.01821 l -0.40403,-1.95095 0.15217,3.175 c 0.32325,6.74431 0.16743,8.75901 -1.25851,16.27187 -0.73181,3.85572 -0.7963,4.55821 -0.55212,6.01444 0.32307,1.92673 1.12917,3.36286 2.28225,4.06599 1.04014,0.63427 2.10642,0.62861 3.53251,-0.0187 z m -48.58081,-1.3025 c 1.81118,-1.86245 2.23852,-3.03795 1.80697,-4.9705 -0.35889,-1.60717 -1.10576,-2.88451 -3.23257,-5.52857 -2.11397,-2.62809 -3.08675,-4.08918 -6.68062,-10.0341 -3.44331,-5.69587 -4.44488,-7.10049 -6.10489,-8.56169 -1.3988,-1.23128 -2.3077,-1.57883 -2.88212,-1.1021 -0.2102,0.17445 -0.87801,1.22954 -1.48404,2.34465 -2.22649,4.09682 -2.66039,4.41549 -7.78484,5.71758 -2.0237,0.51421 -3.85777,1.11324 -4.0757,1.33117 -0.34097,0.34097 -0.35187,0.70304 -0.0782,2.596 0.48358,3.3446 0.39452,4.81633 -0.47569,7.86085 -0.43657,1.52736 -0.79375,2.98288 -0.79375,3.23449 0,0.82661 1.13102,1.22522 5.82083,2.05145 6.97398,1.22864 7.80756,1.44961 12.37183,3.27947 3.57757,1.43428 7.31728,2.68456 9.45629,3.16147 0.29105,0.0649 0.99958,0.1318 1.57452,0.14868 0.94397,0.0277 1.19245,-0.12057 2.56196,-1.52885 z m 16.8979,-8.23368 c 5.01663,-0.37491 7.79512,-0.90073 10.26597,-1.9428 3.01937,-1.27342 5.62287,-3.07569 8.4533,-5.8518 l 2.44739,-2.40044 0.002,-4.49181 c 0.002,-5.16282 0.36903,-8.9738 0.94808,-9.85754 0.70135,-1.0704 1.95468,-1.64365 3.59598,-1.64473 1.20148,-8e-4 1.53175,-0.094 1.64402,-0.46401 0.73837,-2.43336 1.00529,-10.4275 0.45519,-13.63245 -0.53555,-3.12015 -2.93529,-10.16658 -6.0575,-17.78682 -1.75225,-4.27666 -6.19658,-14.112544 -7.4122,-16.404174 -0.89274,-1.68295 -1.05239,-1.84705 -1.74829,-1.79693 -0.42122,0.0303 -2.62153,1.10189 -4.88959,2.38125 -7.05042,3.97696 -8.65305,4.69553 -10.48661,4.70186 -1.94935,0.007 -4.18299,-1.00986 -6.67677,-3.03877 -1.32083,-1.07462 -1.65364,-1.24499 -1.65364,-0.84653 0,1.06615 -1.11019,4.776234 -1.9762,6.604144 -0.50019,1.05578 -1.43629,2.66312 -2.08022,3.57187 -1.66278,2.34661 -2.11659,3.33762 -4.32206,9.43844 -1.07954,2.98627 -2.78926,7.09947 -3.79937,9.14046 -2.36365,4.7759 -2.99398,7.23628 -3.01812,11.78067 -0.0333,6.26141 0.60009,7.24233 8.95979,13.87631 4.26934,3.38801 6.01888,5.04541 6.68734,6.33512 1.21805,2.35007 0.90639,4.58299 -0.89048,6.37985 l -1.18864,1.18865 2.05724,2.31576 c 1.97618,2.22451 2.10991,2.32188 3.39367,2.47108 2.21639,0.25757 3.55155,0.25269 7.28954,-0.0267 z M 163.6062,94.057096 c 1.34236,-0.59365 7.02968,-3.80765 9.46698,-5.34995 0.5509,-0.3486 0.92977,-0.75008 0.84195,-0.89218 -0.25401,-0.411 -1.85231,-1.15342 -5.54774,-2.57697 -5.34363,-2.058476 -5.43505,-2.077576 -6.78969,-1.418576 -1.35038,0.656923 -6.66603,4.948246 -6.78815,5.480066 -0.18671,0.81312 5.65665,5.40842 6.87732,5.40842 0.25725,0 1.12995,-0.29286 1.93933,-0.65081 z m 13.35448,-15.071621 c 0.50089,-1.789015 0.25577,-4.566232 -0.54055,-6.124344 -0.85539,-1.673718 -2.75616,-3.024053 -4.25672,-3.024053 -1.17405,0 -2.71879,0.702932 -3.58466,1.631193 -1.46728,1.573015 -2.23808,4.769413 -1.64836,6.835473 l 0.33984,1.190625 0.24063,-1.190625 c 0.52735,-2.609227 1.88957,-4.513648 3.52158,-4.923256 2.80621,-0.704313 5.22573,1.701386 5.2569,5.226857 0.009,0.967346 0.0885,1.714556 0.1777,1.660462 0.0892,-0.05409 0.31131,-0.63114 0.49364,-1.282332 z m -17.45683,-1.559751 c 0,-2.102873 -0.65798,-3.984063 -1.82121,-5.206865 -0.84928,-0.892785 -1.1741,-1.058865 -2.07089,-1.058865 -1.64239,0 -2.95672,1.337839 -3.63907,3.704167 l -0.19074,0.661458 0.43744,-0.596823 c 0.55347,-0.755147 1.7632,-1.387552 2.65426,-1.387552 1.68432,0 3.26409,1.635693 3.8725,4.009591 0.18072,0.705141 0.42514,1.282076 0.54315,1.282076 0.11801,0 0.21456,-0.633233 0.21456,-1.407187 z"
       style="fill:#ffffff;stroke-width:0.26458332"
       inkscape:connector-curvature="0" />
  </g>
</svg>
