<?xml version="1.0" encoding="UTF-8" standalone="no"?>
<svg
   xmlns:dc="http://purl.org/dc/elements/1.1/"
   xmlns:cc="http://creativecommons.org/ns#"
   xmlns:rdf="http://www.w3.org/1999/02/22-rdf-syntax-ns#"
   xmlns:svg="http://www.w3.org/2000/svg"
   xmlns="http://www.w3.org/2000/svg"
   viewBox="0 0 530.01093 502"
   height="502"
   width="530.01093"
   id="svg5701"
   version="1.1">
  <metadata
     id="metadata5707">
    <rdf:RDF>
      <cc:Work
         rdf:about="">
        <dc:format>image/svg+xml</dc:format>
        <dc:type
           rdf:resource="http://purl.org/dc/dcmitype/StillImage" />
        <dc:title></dc:title>
      </cc:Work>
    </rdf:RDF>
  </metadata>
  <defs
     id="defs5705" />
  <path
     id="path5730"
     d="m 384.51093,482.54039 c -76.45,-10.59167 -142.9375,-19.81769 -147.75,-20.50227 l -8.75,-1.2447 v -99.54305 -99.54306 l 53.25,0.64237 c 29.2875,0.35331 97.2375,0.93546 151,1.29369 l 97.75,0.65131 V 383.14734 502 l -3.25,-0.10101 c -1.7875,-0.0556 -65.8,-8.76693 -142.25,-19.3586 z M 102.26256,443.65276 0.01421,429.5 l -0.002,-84.62423 -0.002,-84.62423 49.25,0.38881 c 27.0875,0.21384 74.5625,0.66102 105.5,0.99373 l 56.25002,0.60492 V 360.1195 458 l -3.25,-0.0972 c -1.7875,-0.0535 -49.26178,-6.46598 -105.49838,-14.25 z M 0.25546,160.2718 0.51092,72.54361 l 103,-14.23675 c 56.65,-7.83021 104.01251,-14.25252 105.25001,-14.2718 l 2.25,-0.0351 v 102 102 H 105.50546 0 Z m 228.50547,87.19409 C 227.84863,246.4937 227.74423,41 228.65603,41 c 0.3548,0 67.5864,-9.225 149.4035,-20.5 C 459.87663,9.225 527.53633,0 528.41443,0 c 1.4534,0 1.5965,11.07002 1.5965,123.5 V 247 h -115.8366 c -63.7101,0 -131.3226,0.28465 -150.25,0.63255 -18.9274,0.34791 -34.7509,0.27291 -35.1634,-0.16666 z"
     style="fill:#ffffff" />
</svg>
