<?xml version="1.0" encoding="UTF-8" standalone="no"?>
<svg
   xmlns:dc="http://purl.org/dc/elements/1.1/"
   xmlns:cc="http://creativecommons.org/ns#"
   xmlns:rdf="http://www.w3.org/1999/02/22-rdf-syntax-ns#"
   xmlns:svg="http://www.w3.org/2000/svg"
   xmlns="http://www.w3.org/2000/svg"
   id="svg8"
   version="1.1"
   viewBox="0 0 46.015713 59.18631"
   height="59.18631mm"
   width="46.015713mm">
  <defs
     id="defs2" />
  <metadata
     id="metadata5">
    <rdf:RDF>
      <cc:Work
         rdf:about="">
        <dc:format>image/svg+xml</dc:format>
        <dc:type
           rdf:resource="http://purl.org/dc/dcmitype/StillImage" />
        <dc:title></dc:title>
      </cc:Work>
    </rdf:RDF>
  </metadata>
  <g
     transform="translate(-67.328457,-115.12262)"
     id="layer1">
    <path
       id="path4583"
       d="m 68.074481,173.80324 -0.624624,-0.50568 -0.07224,-15.59047 c -0.08692,-18.75873 -0.479533,-17.00024 3.79561,-17.00024 h 2.758921 v -5.63296 c 0,-6.42692 0.189944,-7.54261 1.867573,-10.96974 2.335051,-4.77013 6.914263,-7.99253 12.548689,-8.83055 6.510191,-0.96827 13.57625,2.80777 16.5245,8.83055 1.67762,3.42713 1.86757,4.54282 1.86757,10.96974 v 5.63296 h 2.75892 c 4.27514,0 3.88253,-1.75849 3.79561,17.00024 l -0.0722,15.59047 -0.62462,0.50568 c -0.60358,0.48865 -1.35383,0.50569 -22.261836,0.50569 -20.90801,0 -21.65826,-0.017 -22.261833,-0.50569 z m 32.843169,-37.52817 c -0.002,-5.14385 -0.28779,-7.28425 -1.215728,-9.11545 -2.02862,-4.00329 -6.666639,-6.33695 -10.953108,-5.51114 -3.320023,0.63961 -6.070235,2.77148 -7.518978,5.82844 l -0.815397,1.72055 -0.08464,5.75469 -0.08465,5.75469 h 10.33725 10.337241 l -0.002,-4.43178 z"
       style="fill:#ffffff;stroke-width:0.26458332" />
  </g>
</svg>
