<?xml version="1.0" encoding="UTF-8" standalone="no"?>
<!-- Created with Inkscape (http://www.inkscape.org/) -->

<svg
   xmlns:dc="http://purl.org/dc/elements/1.1/"
   xmlns:cc="http://creativecommons.org/ns#"
   xmlns:rdf="http://www.w3.org/1999/02/22-rdf-syntax-ns#"
   xmlns:svg="http://www.w3.org/2000/svg"
   xmlns="http://www.w3.org/2000/svg"
   xmlns:sodipodi="http://sodipodi.sourceforge.net/DTD/sodipodi-0.dtd"
   xmlns:inkscape="http://www.inkscape.org/namespaces/inkscape"
   version="1.1"
   id="svg3760"
   width="48"
   height="48"
   viewBox="0 0 48 48"
   sodipodi:docname="endallstreams.svg"
   inkscape:version="0.92.1 r15371">
  <metadata
     id="metadata3766">
    <rdf:RDF>
      <cc:Work
         rdf:about="">
        <dc:format>image/svg+xml</dc:format>
        <dc:type
           rdf:resource="http://purl.org/dc/dcmitype/StillImage" />
        <dc:title></dc:title>
      </cc:Work>
    </rdf:RDF>
  </metadata>
  <defs
     id="defs3764" />
  <sodipodi:namedview
     pagecolor="#ffffff"
     bordercolor="#666666"
     borderopacity="1"
     objecttolerance="10"
     gridtolerance="10"
     guidetolerance="10"
     inkscape:pageopacity="0"
     inkscape:pageshadow="2"
     inkscape:window-width="1280"
     inkscape:window-height="736"
     id="namedview3762"
     showgrid="false"
     inkscape:zoom="5.5312498"
     inkscape:cx="11.509531"
     inkscape:cy="18.86656"
     inkscape:window-x="0"
     inkscape:window-y="27"
     inkscape:window-maximized="1"
     inkscape:current-layer="svg3760" />
  <path
     style="fill:#ffffff;stroke-width:0.02392395"
     d="M 15.341566,46.02113 C 14.603648,45.92962 14.152559,45.806408 13.60708,45.54736 12.990061,45.254334 12.642725,44.989604 11.865926,44.22029 L 11.273121,43.6332 10.08954,44.8166 6.9059582,48 5.4646307,46.558673 4.023304,45.117347 7.2067042,41.933764 8.3901035,40.750181 7.8030125,40.157377 C 7.0336999,39.38058 6.7689695,39.033243 6.4759448,38.416223 6.1386942,37.706077 6.0012762,37.080934 6.0000113,36.251106 c -9.905e-4,-0.642708 0.065985,-1.065049 0.2636512,-1.662714 0.1615449,-0.488463 0.5372453,-1.146756 0.901152,-1.578982 0.099706,-0.118425 0.9825304,-1.01544 1.9618332,-1.99337 l 1.7805503,-1.778055 -0.04557,-0.195671 c -0.06085,-0.261332 -0.06564,-0.762784 -0.01,-1.04722 0.109696,-0.560726 0.339512,-1.011597 0.746056,-1.46367 0.10917,-0.1214 0.894574,-0.464487 1.127928,-1.147723 l 0.929439,-0.927004 6.956463,6.956495 6.956465,6.956492 -1.083199,1.077006 c -0.595759,0.592355 -1.158559,1.131773 -1.250667,1.198707 -0.312462,0.227072 -0.68427,0.402035 -1.052653,0.495351 -0.371141,0.09401 -0.928095,0.09636 -1.270979,0.0053 l -0.122625,-0.03255 -1.779325,1.78182 c -0.978627,0.98 -1.876217,1.863396 -1.994641,1.963101 -0.308745,0.259947 -0.667747,0.490586 -1.052654,0.676275 -0.462556,0.223149 -0.905597,0.362881 -1.411512,0.445181 -0.208652,0.03395 -1.038451,0.06224 -1.20816,0.04119 z M 29.582209,28.182666 c -0.661149,-0.661247 -1.20209,-1.214682 -1.20209,-1.229856 0,-0.01517 0.861262,-0.882791 1.913916,-1.928038 1.052654,-1.045248 1.913917,-1.910234 1.913917,-1.922191 0,-0.02833 -3.259021,-3.287228 -3.28736,-3.287228 -0.01188,0 -0.876813,0.861263 -1.92206,1.913916 -1.045247,1.052653 -1.912944,1.913916 -1.928216,1.913916 -0.03617,0 -2.431945,-2.395943 -2.431945,-2.432123 0,-0.01517 0.861262,-0.88279 1.913916,-1.928038 1.052654,-1.045247 1.913917,-1.91017 1.913917,-1.92205 0,-0.01188 -0.640844,-0.662512 -1.424096,-1.445845 l -1.424096,-1.424244 1.262609,-1.256984 c 0.718448,-0.715248 1.345094,-1.318773 1.454,-1.400349 0.490576,-0.367475 1.057593,-0.622855 1.590943,-0.716553 0.260108,-0.0457 0.757877,-0.05181 0.956115,-0.01175 l 0.130737,0.02642 1.890836,-1.8867881 c 1.139148,-1.13671 1.96692,-1.9438425 2.082228,-2.0303076 0.929431,-0.6969524 1.936165,-1.0358712 3.076993,-1.0358712 0.791283,0 1.502562,0.159525 2.186275,0.4903363 0.614408,0.2972774 0.896486,0.5137774 1.681311,1.2904337 l 0.628656,0.6221137 1.279307,-1.27914 3.27931,-3.27914 1.441333,1.4413338 L 48,6.9059734 l -3.279141,3.2793086 -1.27914,1.279307 0.622114,0.628658 c 0.342162,0.345761 0.682866,0.7094 0.757121,0.808086 0.681425,0.90564 1.022548,1.927215 1.022548,3.062266 0,0.823784 -0.162659,1.521724 -0.524109,2.248852 -0.349541,0.70317 -0.399709,0.760602 -2.539109,2.90676 l -1.884043,1.88999 0.02323,0.131583 c 0.03715,0.210432 0.03085,0.705911 -0.01212,0.950344 -0.104313,0.593963 -0.390638,1.199813 -0.80779,1.70926 -0.06821,0.0833 -0.67386,0.703357 -1.345887,1.3779 l -1.221866,1.226439 -1.423962,-1.423812 c -0.78318,-0.783098 -1.433681,-1.423812 -1.445562,-1.423812 -0.01188,0 -0.876803,0.861261 -1.92205,1.913916 -1.045248,1.052654 -1.912945,1.913916 -1.928217,1.913916 -0.01528,0 -0.568706,-0.54102 -1.229855,-1.202267 z"
     id="path4656"
     inkscape:connector-curvature="0"
     sodipodi:nodetypes="ccccccsccccscccsccccscccscsccsccccccsssssssssscscsccscssscccccccscscsccccscsssscc" />
</svg>
