<?xml version="1.0" encoding="UTF-8" standalone="no"?>
<svg
   xmlns:dc="http://purl.org/dc/elements/1.1/"
   xmlns:cc="http://creativecommons.org/ns#"
   xmlns:rdf="http://www.w3.org/1999/02/22-rdf-syntax-ns#"
   xmlns:svg="http://www.w3.org/2000/svg"
   xmlns="http://www.w3.org/2000/svg"
   xmlns:sodipodi="http://sodipodi.sourceforge.net/DTD/sodipodi-0.dtd"
   xmlns:inkscape="http://www.inkscape.org/namespaces/inkscape"
   viewBox="0 0 373.70401 495.77283"
   height="495.77283"
   width="373.70401"
   id="svg3750"
   version="1.1"
   sodipodi:docname="proxy.svg"
   inkscape:version="0.92.1 r15371">
  <sodipodi:namedview
     pagecolor="#ffffff"
     bordercolor="#666666"
     borderopacity="1"
     objecttolerance="10"
     gridtolerance="10"
     guidetolerance="10"
     inkscape:pageopacity="0"
     inkscape:pageshadow="2"
     inkscape:window-width="1280"
     inkscape:window-height="736"
     id="namedview155"
     showgrid="false"
     inkscape:zoom="2.8943176"
     inkscape:cx="197.57126"
     inkscape:cy="70.506858"
     inkscape:window-x="0"
     inkscape:window-y="27"
     inkscape:window-maximized="1"
     inkscape:current-layer="svg3750" />
  <metadata
     id="metadata3756">
    <rdf:RDF>
      <cc:Work
         rdf:about="">
        <dc:format>image/svg+xml</dc:format>
        <dc:type
           rdf:resource="http://purl.org/dc/dcmitype/StillImage" />
        <dc:title />
      </cc:Work>
    </rdf:RDF>
  </metadata>
  <defs
     id="defs3754" />
  <path
     id="path4677"
     d="M 161.03604,494.37201 C 147.18419,491.6537 144.4623,484.05009 120.95292,464.43835 103.64831,450.00269 92.913347,439.67905 71.580747,416.95792 37.787437,380.965 32.629537,373.21741 22.540217,343.29495 4.1900367,288.87282 -3.4650733,219.56832 1.4610967,152.45792 6.1397467,88.719471 9.8212867,67.022301 19.382437,46.838524 24.555757,35.917526 30.045947,29.622242 38.539217,24.872533 55.671407,15.291668 79.312377,9.7859139 133.45292,2.7680489 c 19.0609,-2.47073303 24.04716,-2.72615103 54,-2.76610703 34.40847,-0.0459 43.97283,0.69049 72.5,5.58200303 22.64016,3.882075 52.60501,10.0858521 58.49968,12.1114891 27.69154,9.51588 42.51879,32.806937 48.95002,76.892067 1.92634,13.204729 5.17536,54.712579 6.05616,77.370419 1.49691,38.50654 -3.98672,93.24687 -12.97269,129.5 -4.37237,17.63993 -14.70408,50.87578 -18.93037,60.89672 -12.16605,28.84681 -39.04199,58.2155 -91.95422,100.483 -19.29141,15.41042 -24.57335,21.79285 -34.06117,26.17156 -5.82182,3.31074 -17.98175,12.13102 -13.56995,2.14215 2.6686,-6.03282 2.5937,-22.24551 4.43036,-34.82177 2.2084,-15.12168 2.01501,-26.85159 -0.60114,-36.4617 -2.41719,-8.87928 -3.33646,-16.32238 -2.45143,-19.84863 0.32632,-1.30018 2.62089,-4.85302 5.09903,-7.8952 2.47815,-3.04218 5.66919,-3.69032 3.81471,-5.40767 -2.76615,-2.56162 -2.78188,-1.25846 -28.34417,-1.25846 -23.75674,0 -30.08251,-0.89867 -23.48109,8.30969 4.93755,6.8874 5.22966,9.98135 2.14427,22.71139 -2.89925,11.96206 -3.33247,21.84067 -1.579,36.00515 1.98809,16.05971 3.34487,29.34273 8.41777,41.22377 0.85352,1.99899 -0.88115,2.1364 -8.38365,0.66409 z M 107.25261,412.1786 c -0.43983,-0.70362 -5.11385,-7.79112 -10.386723,-15.75 -14.81976,-22.36897 -26.68373,-42.53325 -25.6395,-43.57748 0.22715,-0.22715 2.62104,1.27526 5.31976,3.3387 12.40935,9.48814 31.337103,18.39464 38.708393,18.21432 1.20911,-0.0296 -0.27662,-0.85625 -3.30162,-1.83705 -8.29061,-2.68808 -19.525053,-8.56776 -27.099103,-14.18264 -9.15066,-6.78366 -21.98245,-20.53089 -26.91754,-28.83788 -3.82409,-6.43689 -20.29288,-44.11246 -19.58982,-44.81553 0.181,-0.18099 1.49981,0.11603 2.93071,0.66006 3.41024,1.29657 5.80452,5.23814 16.53527,27.22113 10.15518,20.80387 15.08395,27.09919 24.64289,31.47542 8.44958,3.86835 15.43461,4.42057 46.874723,3.70583 l 28.87713,-0.65649 3.25584,-3.25584 c 1.79071,-1.79071 6.75006,-8.2435 11.02077,-14.33953 7.19098,-10.26445 8.00635,-11.0837 11.03118,-11.0837 4.27431,0 7.71299,3.40264 17.93795,17.74993 l 8,11.22531 24,0.26238 c 39.59156,0.43283 43.8657,0.24804 48.72681,-2.10673 8.6993,-4.21402 16.85941,-14.22923 27.43234,-33.66875 8.40374,-15.45123 15.39873,-25.00887 18.95695,-25.90192 1.44094,-0.36166 2.86076,-0.41669 3.15516,-0.1223 0.29439,0.29439 -1.85276,6.17252 -4.77144,13.06251 -16.29026,38.45558 -38.65736,62.26722 -69.03723,73.49586 -5.11607,1.89094 -5.20885,1.98168 -1.46259,1.43046 9.25222,-1.36137 22.94629,-8.30607 36.29047,-18.40406 4.24024,-3.20873 7.84701,-5.70152 8.01505,-5.53953 0.95036,0.91621 -15.42609,28.47329 -30.02082,50.51684 -9.94097,15.0146 -9.52329,14.67251 11.59917,-9.5 34.25388,-39.20008 55.56239,-76.12597 65.9778,-114.33409 l 2.54444,-9.33409 -4.35364,4.01305 c -7.0015,6.45376 -13.54458,9.03411 -27.05247,10.66854 -6.44321,0.77961 -23.01826,-1.73436 -32,-4.8535 -5.62941,-1.95495 -20.75202,-8.5149 -23.63246,-10.25138 -0.34786,-0.2097 -1.81036,0.54525 -3.25,1.67768 -3.90443,3.07122 -3.46979,6.44021 1.13246,8.7781 6.48726,3.29545 20.03044,7.10202 32.51374,9.13861 6.61988,1.08 12.24115,2.16864 12.49171,2.4192 0.25056,0.25056 -1.72941,3.23222 -4.39994,6.62592 -4.58423,5.82561 -8.27275,10.64431 -17.26518,22.55527 -5.84954,7.74804 -10.10834,9.40122 -24.15605,9.37688 -12.74207,-0.0221 -23.0846,-1.24248 -30.10749,-3.55266 -5.17767,-1.70319 -10.08155,-6.43623 -16.14712,-15.58458 -5.81913,-8.77667 -5.59413,-8.69687 -15.02282,-5.32805 -10.41417,3.72093 -22.29681,3.88538 -33.15685,0.45888 l -7,-2.20861 -4,4.84416 c -7.9062,9.57471 -15.07098,16.63943 -19,18.73463 -3.51622,1.87508 -5.93513,2.16952 -20,2.43449 -8.8,0.16579 -19.357133,-0.054 -23.460283,-0.48851 l -7.46028,-0.78994 -3.78134,-5 c -3.35454,-4.43565 -16.78461,-29.01481 -17.62142,-32.25 -0.1849,-0.71481 0.60415,-1.25 1.84291,-1.25 3.28288,0 21.57322,-3.84751 29.48041,-6.20142 9.049813,-2.69407 14.155273,-5.28593 15.551603,-7.89499 2.7551,-5.14795 -2.72665,-10.83139 -7.26717,-7.53454 -8.737373,6.34413 -13.258623,8.85907 -20.284433,11.28314 -7.15506,2.46868 -9.42583,2.76483 -21.5,2.80401 -8.35569,0.0271 -15.59583,-0.4853 -19,-1.34469 -5.81218,-1.4673 -18.29696,-7.27213 -21.25613,-9.88309 -0.96587,-0.85222 -1.98391,-1.32171 -2.26231,-1.04331 -0.80057,0.80057 4.23633,17.24574 9.06312,29.59056 12.79244,32.71751 31.82596,62.02718 65.24739,100.47433 12.866993,14.80184 15.432943,17.55074 13.507623,14.47068 z m 111.82952,-50.70853 c 3.64606,-0.53339 7.92106,-1.46295 9.5,-2.06568 2.76574,-1.05578 2.79976,-1.14803 0.92966,-2.52117 -1.60701,-1.17997 -9.12635,-1.4253 -43.6849,-1.4253 -39.66699,0 -46.87397,0.44655 -46.87397,2.90435 0,1.41579 9.32789,3.0949 22.67942,4.08252 13.72149,1.01498 47.80137,0.43677 57.44979,-0.97472 z m -19.75421,-64.56353 c 6.53224,-2.30713 13.10245,-8.72566 14.57705,-14.24052 0.79418,-2.97014 0.93066,-9.70471 0.44316,-21.86793 -0.82877,-20.67788 -1.65079,-20.12812 11.5408,-7.71842 12.1168,11.39862 16.52756,20.57067 14.23523,29.60176 -0.58801,2.31657 -0.9189,4.36216 -0.73531,4.54576 1.03536,1.03535 5.56407,-10.72206 5.56407,-14.44538 0,-7.96757 -3.02852,-13.43266 -19.02083,-34.32389 -13.62732,-17.80178 -20.97616,-35.34718 -24.95841,-59.58841 l -1.95679,-11.91159 0.37117,22 c 0.36575,21.67806 3.15907,54.44573 6.09512,71.5 1.90753,11.08006 1.87141,19.32257 -0.10139,23.13755 -5.15336,9.96551 -32.8292,11.51637 -41.46538,2.32359 -3.33792,-3.55306 -3.64906,-11.35949 -1.07932,-27.08006 3.2537,-19.90479 6.12834,-55.9964 6.01374,-75.50361 -0.11362,-19.34062 -0.40318,-19.13415 -4.37924,3.12253 -1.4247,7.975 -3.74757,17.875 -5.16194,22 -4.24048,12.3673 -13.33556,27.49775 -25.24666,42 -7.24148,8.81679 -11.1139,16.38283 -11.1003,21.68807 0.009,3.56889 4.49421,15.14128 5.48446,14.15104 0.24836,-0.24836 0.003,-2.07529 -0.54473,-4.05984 -1.24414,-4.50588 0.22411,-11.69212 3.53038,-17.27927 2.49852,-4.22217 9.85255,-11.65526 17.75883,-17.94975 6.18223,-4.92191 6.40275,-4.28257 4.82564,13.99079 -1.37017,15.87572 -0.55456,23.29474 3.06707,27.8989 2.58181,3.28224 9.94499,7.59663 15.79793,9.25665 5.92258,1.67977 20.04289,1.01343 26.44565,-1.24797 z m 26.36282,-2.93021 c 3.0976,-3.60117 2.48029,-4.95329 -2.42844,-5.31921 -3.17364,-0.23657 -4.70498,0.2628 -7.17228,2.33889 -1.72541,1.45184 -3.1371,3.55695 -3.1371,4.67803 0,1.85341 0.47098,1.99308 5.19116,1.53953 4.05969,-0.39008 5.70456,-1.09567 7.54666,-3.23724 z m -71.73782,0.0705 c 0,-2.68077 -4.72149,-7.2299 -8.48393,-8.17421 -2.68967,-0.67507 -6.51607,1.05501 -6.51607,2.94619 0,3.16438 7.04023,7.33506 12.75,7.55318 1.73498,0.0663 2.25,-0.46595 2.25,-2.32516 z m 205.12114,-83.36254 c -1.5284,-2.85585 -11.17794,-11.4881 -16.90916,-15.12655 -2.90841,-1.8464 -5.07607,-3.56905 -4.817,-3.82811 0.83743,-0.83743 7.99375,1.94273 12.10502,4.70269 6.3272,4.24755 7.17403,4.54191 4.5,1.56422 -1.375,-1.53114 -4.85535,-4.53761 -7.73411,-6.68105 l -5.23411,-3.89716 3.43346,-4.77912 c 3.60684,-5.02046 7.80583,-13.86805 7.30077,-15.38325 -0.16317,-0.48949 -2.01499,2.04745 -4.11516,5.63764 -4.87743,8.33784 -8.64272,11.56434 -13.49544,11.56434 -5.32741,0 -9.94224,-3.58753 -18.59345,-14.4544 -4.61722,-5.79973 -9.20686,-10.42527 -11.92489,-12.01814 -6.93336,-4.06322 -17.24374,-5.82875 -30.13707,-5.16062 -23.90447,1.23873 -44.56393,10.72811 -50.40366,23.15158 -3.06521,6.52096 -2.71462,8.85551 2.11704,14.09724 8.64912,9.38319 23.3104,14.26786 45.28662,15.08806 18.21927,0.67998 29.48248,-1.16896 41.8655,-6.87252 8.28784,-3.81734 9.31156,-4.05149 15.71129,-3.59359 8.59216,0.61476 15.02196,3.69771 24.42321,11.71037 3.85,3.28135 7.12833,5.98542 7.28518,6.00905 0.15685,0.0236 -0.14197,-0.75517 -0.66404,-1.73068 z m -102.62114,-14.8792 c -9.5353,-1.51485 -23.58422,-6.59629 -22.16391,-8.0166 0.29145,-0.29144 2.02256,-0.0475 3.84691,0.54213 13.34026,4.31146 41.58019,5.48467 54.95722,2.28317 8.58648,-2.05498 17.20845,-6.15734 17.65742,-8.40147 0.90258,-4.51134 -11.46168,-12.75422 -23.81834,-15.87896 -7.02344,-1.77608 -10.28805,-2.04464 -19.45928,-1.60082 -12.78072,0.6185 -21.14538,2.9213 -30.01358,8.26277 -5.28209,3.1815 -5.70441,3.30224 -3.55768,1.01715 7.46098,-7.94185 21.99968,-13.4612 37.55124,-14.25564 15.30527,-0.78186 28.03158,2.93629 36.28448,10.60096 3.07804,2.85865 8.18401,12.08856 8.20575,14.83329 0.0138,1.74093 -9.21367,6.22525 -17.49023,8.49984 -5.18973,1.42626 -11.13776,2.01001 -23,2.25727 -8.8,0.18344 -17.35,0.11904 -19,-0.14309 z m -228.796423,0.93997 c 2.86197,-1.31519 7.90467,-2.89357 11.206,-3.50752 5.75574,-1.07039 6.28161,-0.98766 12.79641,2.01323 12.97321,5.9758 22.51622,7.66493 43.29401,7.66309 14.672453,-0.001 19.809783,-0.36896 24.830653,-1.77706 17.13994,-4.8069 27.16935,-12.73582 27.16935,-21.47918 0,-5.67735 -9.85605,-16.09405 -19.58072,-20.69456 -11.65429,-5.51336 -19.62289,-7.00514 -37.419283,-7.00514 -15.10193,0 -16.9226,0.19478 -21.48754,2.29885 -6.17054,2.8441 -8.23894,4.73766 -15.51246,14.20115 -3.17042,4.125 -6.83606,8.49102 -8.14585,9.70227 -3.55476,3.28732 -9.25955,5.36665 -12.78777,4.66101 -3.72064,-0.74413 -9.04979,-6.42362 -12.59857,-13.42681 -1.43125,-2.82444 -2.8432,-4.89441 -3.13767,-4.59994 -0.76038,0.76038 4.0443,10.94651 7.76094,16.45353 l 3.13625,4.64704 -2.32523,1.53145 c -4.83902,3.18709 -11.9021,9.11374 -11.9021,9.98708 0,0.50002 2.27338,-0.62075 5.05196,-2.4906 4.9809,-3.35189 11.81496,-5.93144 12.88348,-4.86292 0.30134,0.30134 -0.15237,0.93979 -1.00826,1.41876 -4.99912,2.79765 -16.62136,11.97917 -18.81765,14.86586 -2.3505103,3.08939 -1.9636203,2.92164 4.40687,-1.91081 3.84098,-2.91364 9.32521,-6.3736 12.18718,-7.68878 z m 58.01797,-2.4838 c -10.46495,-0.74662 -22.41345,-3.58519 -28.79475,-6.84069 -4.65516,-2.37488 -5.01568,-4.66796 -1.80709,-11.49393 5.7045,-12.1358 22.53614,-19.4223 41.88029,-18.13019 14.877703,0.99378 27.109223,5.38859 35.149823,12.6294 l 4.35018,3.91748 -9.59918,-4.77437 c -11.09619,-5.51892 -17.8359,-7.12072 -29.817603,-7.08659 -10.73912,0.0306 -15.70739,1.15229 -24.69136,5.57467 -8.97073,4.41586 -14.66449,9.45785 -14.21743,12.58994 0.44294,3.10313 6.89881,6.50909 16.014,8.4486 9.09162,1.93449 39.330113,1.29887 50.743593,-1.06663 4.08761,-0.84718 7.61251,-1.35984 7.83311,-1.13924 0.89578,0.89579 -9.46926,4.6444 -16.62272,6.01176 -9.73699,1.8612 -18.132683,2.23648 -30.420863,1.35979 z m 67.723893,-35.01018 c -0.75545,-2.86376 -3.41472,-9.42887 -5.90949,-14.58913 -2.49477,-5.16026 -4.53595,-9.81257 -4.53595,-10.33847 0,-0.55141 1.48349,-0.67788 3.50441,-0.29875 2.46092,0.46167 4.24752,0.17053 6,-0.97774 3.96913,-2.60068 3.20014,-5.71407 -3.08925,-12.50736 C 137.70013,107.93685 119.57466,96.717151 99.952917,89.951571 l -10.5,-3.62041 7.5,0.62239 c 9.238773,0.76669 24.493673,3.77905 32.476333,6.41306 3.28698,1.08459 6.12998,1.81833 6.31778,1.63054 0.57298,-0.57299 -11.8928,-9.10939 -18.79411,-12.86995 -17.102423,-9.3192 -36.664583,-13.28379 -50.806223,-10.2967 -10.3259,2.1811 -15.72515,5.1249 -23.29072,12.69864 -5.42066,5.42651 -7.72194,8.8637 -12.90625,19.276839 -3.47012,6.97003 -6.12649,12.85296 -5.90306,13.07317 0.22344,0.22021 3.78125,-0.79112 7.90625,-2.24742 7.02208,-2.47908 8.5833,-2.64385 24.5,-2.58581 15.29598,0.0558 17.99884,0.33539 26.96483,2.78956 22.147543,6.06223 38.077053,15.94863 57.535173,35.70829 7.425,7.54006 13.57177,13.75532 13.65949,13.81168 0.0877,0.0564 -0.45861,-2.24061 -1.21405,-5.10437 z m 65.55456,-2.4861 c 6.97048,-8.33645 22.01454,-21.83353 30.97757,-27.79215 9.41881,-6.26161 20.41862,-11.19174 31.90355,-14.29921 8.59925,-2.32669 11.47393,-2.6068 27.11888,-2.64249 16.41827,-0.0374 17.9636,0.12353 25,2.60425 4.125,1.45429 7.6173,2.52949 7.76068,2.38934 0.58468,-0.57155 -2.95811,-9.1409 -6.95624,-16.8258 -8.06217,-15.496509 -20.52545,-25.875929 -34.58496,-28.802359 -11.80506,-2.45718 -29.72832,0.85923 -45.80722,8.47588 -9.15989,4.33908 -24.41226,14.08204 -24.41226,15.59414 0,0.41737 2.5875,-0.28423 5.75,-1.55911 6.88619,-2.77599 22.88209,-6.10586 33.25,-6.92167 l 7.5,-0.59014 -10.42427,3.54514 c -17.51429,5.95636 -35.57646,16.980809 -47.72541,29.129759 -4.76624,4.76624 -6.3465,7.04093 -6.33501,9.11884 0.0259,4.67961 1.39244,5.78419 6.94978,5.61746 2.7692,-0.0831 5.03491,0.0384 5.03491,0.26998 0,0.23158 -1.97581,4.35512 -4.39069,9.16343 -3.4577,6.88469 -7.60931,17.74159 -7.60931,19.89915 0,1.34061 2.3016,-0.75531 7,-6.37444 z"
     style="fill:#ffffff"
     inkscape:connector-curvature="0"
     sodipodi:nodetypes="ssssssssssssssssccssccsscsscscssccsssccssscsssscsssccsscscssscsccccssscscsssccscsccscscscccscssscsccssssscssccssscssscssssscccsssssssccscsscscscscscscscssssscsssssccsccscsssssscscsccscsssscsscssscsscscsscscsssccsscsscsscsscssscsscsssscccssccssscscsssssscssccssss" />
</svg>
