<?xml version="1.0" encoding="UTF-8" standalone="no"?>
<svg
   xmlns:dc="http://purl.org/dc/elements/1.1/"
   xmlns:cc="http://creativecommons.org/ns#"
   xmlns:rdf="http://www.w3.org/1999/02/22-rdf-syntax-ns#"
   xmlns:svg="http://www.w3.org/2000/svg"
   xmlns="http://www.w3.org/2000/svg"
   viewBox="0 0 969.87433 788.04388"
   height="788.04388"
   width="969.87433"
   id="svg5572"
   version="1.1">
  <metadata
     id="metadata5578">
    <rdf:RDF>
      <cc:Work
         rdf:about="">
        <dc:format>image/svg+xml</dc:format>
        <dc:type
           rdf:resource="http://purl.org/dc/dcmitype/StillImage" />
        <dc:title></dc:title>
      </cc:Work>
    </rdf:RDF>
  </metadata>
  <defs
     id="defs5576" />
  <path
     id="path6125"
     d="m 475.86823,787.08301 c -4.1095,-1.1845 -12.3135,-6.2418 -13.976,-8.6154 -0.7132,-1.0182 -4.9226,-5.6467 -9.3543,-10.2855 -4.4317,-4.6389 -10.4336,-11.0056 -13.3376,-14.1483 -5.6571,-6.1221 -32.49917,-34.7128 -36.47998,-38.8564 -3.41648,-3.5562 -23.67828,-25.2469 -26.5932,-28.4686 -1.34269,-1.484 -5.73651,-6.1588 -9.76404,-10.3884 -4.02751,-4.2295 -10.32712,-10.9255 -13.99912,-14.88 -3.672,-3.9544 -9.936,-10.6546 -13.92,-14.8894 -3.984,-4.2347 -12.85964,-13.7296 -19.72364,-21.0997 -6.864,-7.3702 -13.992,-14.9763 -15.84,-16.9026 -1.848,-1.9263 -5.53392,-5.8234 -8.19094,-8.6602 -2.65702,-2.8369 -8.48902,-9.0478 -12.96,-13.8022 -4.47098,-4.7544 -13.98207,-14.9064 -21.13575,-22.56 -18.53377,-19.82907 -42.25631,-45.15663 -45.07331,-48.12288 -9.69424,-10.20792 -17.45761,-18.46813 -27.84,-29.62169 -15.60384,-16.76286 -14.84753,-15.95332 -22.08,-23.63431 -12.46047,-13.2332 -33.42137,-35.58182 -39.91389,-42.55639 -3.65536,-3.92676 -8.15811,-8.70998 -10.00611,-10.62939 -1.848,-1.9194 -6.12558,-6.4826 -9.50572,-10.14044 -3.38015,-3.65783 -12.02015,-12.86802 -19.2,-20.46708 -7.17986,-7.59907 -13.49149,-14.29507 -14.02587,-14.88 -4.31812,-4.72675 -29.07375,-31.23116 -34.16973,-36.58353 -3.51895,-3.696 -9.14771,-9.70371 -12.50838,-13.35047 -3.36067,-3.64675 -7.6223,-8.19942 -9.4703,-10.11704 C 1.21576,287.2514 0.00661,285.03625 0.003,272.6506 l -0.003,-9.12 44.9857,-89.76 c 24.74213,-49.368 45.35348,-90.408 45.80298,-91.2 0.4495,-0.792 8.42201,-16.776 17.71669,-35.52 C 126.21683,11.33303 128.30262,8.08957 136.8,3.05177 L 141.12,0.4906 483.22813,0.2453 825.33633,0 l 5.6494,2.53531 c 3.1834,1.42866 7.2459,4.26737 9.3071,6.50335 2.6968,2.92574 20.0925,36.87083 66.2263,129.22999 59.3489,118.81609 62.6007,125.59276 63.1921,131.69057 0.7682,7.92069 -1.1672,14.65913 -6.0116,20.93138 -2.9852,3.86484 -13.106,14.83815 -34.8995,37.83891 -3.9601,4.1794 -7.8481,8.31931 -8.6402,9.1998 -2.3889,2.65586 -26.13,28.01516 -30.0972,32.1489 -2.0336,2.11881 -7.6496,8.10618 -12.4801,13.30525 -4.8305,5.19908 -13.2073,14.05508 -18.6152,19.68 -5.4079,5.62493 -9.8359,10.39476 -9.84,10.59961 0,0.20486 -2.5267,3.01286 -5.6057,6.24 -10.3061,10.80173 -21.799,23.02182 -36.6675,38.98753 -8.1132,8.712 -17.7985,19.03495 -21.5228,22.93988 -3.7243,3.90494 -7.8514,8.27151 -9.1714,9.70347 -3.047,3.30538 -26.1886,27.97795 -35.04,37.358 -3.696,3.91674 -7.368,7.84065 -8.16,8.7198 -1.4268,1.58376 -19.2999,20.71836 -34.0617,36.46566 -4.2139,4.4953 -8.3232,8.8212 -9.1318,9.6132 -0.8086,0.792 -7.7011,8.136 -15.3166,16.32 -7.6156,8.184 -20.1383,21.573 -27.8282,29.7533 -11.9695,12.7328 -19.69,21.0029 -25.9817,27.8314 -0.792,0.8595 -7.704,8.2039 -15.36,16.3207 -7.656,8.1168 -15,15.9131 -16.32,17.3252 -18.2546,19.5277 -28.6148,30.5738 -34.5599,36.8483 -3.9601,4.1794 -7.8481,8.3115 -8.6401,9.1824 -0.792,0.8709 -7.056,7.5981 -13.92,14.9493 -6.864,7.3512 -15.72,16.8525 -19.68,21.1141 -7.7034,8.29 -13.021,12.1757 -18.8945,13.8068 -4.4176,1.2266 -13.0389,1.1974 -17.3977,-0.06 z m 20.512,-157.3124 c 2.3745,-7.128 4.7132,-13.824 5.1972,-14.88 0.4839,-1.056 2.2586,-6.024 3.9437,-11.04 1.6852,-5.016 7.1575,-21 12.1608,-35.52 5.0033,-14.52 9.6612,-28.12801 10.3507,-30.24001 0.6896,-2.112 5.2111,-15.288 10.0477,-29.28 4.8367,-13.992 9.8028,-28.464 11.0358,-32.16 1.2331,-3.696 5.7537,-16.872 10.0458,-29.28 13.3902,-38.70969 20.2866,-58.79044 22.5841,-65.76 1.2183,-3.696 5.006,-14.712 8.4171,-24.48 12.4337,-35.60562 18.2034,-52.91378 17.7801,-53.33715 -0.3545,-0.3545 -69.6926,-0.48385 -229.8791,-0.42884 l -17.45622,0.006 5.56885,16.08 c 3.06286,8.844 7.16157,20.832 9.10825,26.64 1.94667,5.808 3.78512,11.208 4.08542,12 0.97035,2.55903 12.70944,36.55022 17.57177,50.88 2.5978,7.656 8.22692,24.072 12.50915,36.48 4.28224,12.408 9.73037,28.392 12.10696,35.52 2.3766,7.128 4.7163,13.824 5.19932,14.88 0.4831,1.056 2.6374,7.104 4.7873,13.44 9.0935,26.79869 10.8473,31.92002 19.2317,56.16 4.8397,13.992 9.7935,28.464 11.0085,32.16 1.2149,3.696 5.7416,16.872 10.0592,29.28 4.3176,12.408 8.9546,25.9802 10.3043,30.1605 l 2.454,7.6005 3.7302,-10.9605 c 2.0516,-6.0283 5.6729,-16.7925 8.0474,-23.9205 z m 81.0601,-15.439 c 6.6,-7.021 15.3119,-16.2475 19.3597,-20.5033 4.0478,-4.2557 8.2624,-8.7787 9.3657,-10.0511 1.1033,-1.2724 5.5293,-6.0244 9.8357,-10.56 13.4622,-14.1789 19.1872,-20.2825 32.9478,-35.12661 12.0431,-12.99143 18.0454,-19.38303 28.3311,-30.16875 1.848,-1.93784 8.328,-8.83812 14.4,-15.33399 6.072,-6.49586 12.552,-13.42042 14.4,-15.38791 3.8421,-4.09049 10.2487,-10.91911 29.28,-31.20864 12.5749,-13.40627 22.3274,-23.78217 30.24,-32.17302 1.848,-1.95969 5.7415,-6.12012 8.6522,-9.24538 7.9551,-8.54165 56.0486,-59.93746 69.0769,-73.82015 4.4709,-4.7642 10.3029,-10.99202 12.96,-13.83964 2.657,-2.84761 6.5589,-6.95161 8.6709,-9.12 l 3.84,-3.94252 -63.84,-0.48 c -35.112,-0.264 -79.1644,-0.264 -97.8942,0 l -34.0541,0.48 -2.5845,7.68 c -1.4214,4.224 -3.0241,8.76 -3.5616,10.08 -0.5374,1.32 -3.5927,10.176 -6.7894,19.68 -3.1968,9.504 -8.6584,25.488 -12.1369,35.52 -3.4786,10.032 -6.8944,19.968 -7.5907,22.08 -0.6963,2.112 -5.2343,15.288 -10.0843,29.28 -4.85,13.992 -9.8208,28.464 -11.0462,32.16 -1.2254,3.696 -5.7519,16.872 -10.0588,29.28 -4.307,12.408 -9.9565,28.824 -12.5545,36.48 -2.598,7.656 -7.3438,21.48001 -10.5462,30.72001 -3.2025,9.24 -7.5211,21.768 -9.597,27.84 -2.0759,6.072 -6.1623,17.952 -9.0809,26.4 -2.9186,8.448 -5.7179,16.8202 -6.2207,18.6048 l -0.9142,3.2449 2.5971,-2.9016 c 1.4284,-1.5958 7.9971,-8.646 14.5971,-15.6671 z m -170.27488,11.9337 c -0.79505,-2.5601 -4.54356,-13.5107 -8.33004,-24.3347 -3.78648,-10.824 -7.45654,-21.408 -8.1557,-23.52 -0.69915,-2.112 -3.50924,-10.32 -6.24464,-18.24 -2.73541,-7.92 -7.69417,-22.39201 -11.01948,-32.16001 -3.3253,-9.768 -9.5652,-27.912 -13.86641,-40.32 -4.30122,-12.408 -9.94602,-28.824 -12.54402,-36.48 -2.59799,-7.656 -7.34467,-21.48 -10.54816,-30.72 -3.2035,-9.24 -7.77968,-22.55313 -10.1693,-29.58471 -2.38962,-7.0316 -7.15285,-20.8556 -10.58497,-30.72 -3.43211,-9.86442 -7.24591,-20.95929 -8.47511,-24.65529 -2.35373,-7.07732 -7.25584,-21.19768 -9.74841,-28.08 l -1.47766,-4.08 h -97.94309 -97.94309 l 12.93428,13.68 c 7.11386,7.524 15.47598,16.44449 18.58249,19.82332 3.10651,3.37882 7.37621,7.92145 9.48821,10.09472 2.112,2.17328 6.82598,7.18479 10.47552,11.13669 3.64954,3.95189 12.72154,13.65951 20.16,21.57248 7.43846,7.91297 16.11648,17.15128 19.28448,20.52958 3.168,3.37831 6.84,7.2782 8.16,8.66641 1.32,1.38822 8.232,8.75209 15.36,16.36417 7.128,7.61208 14.04,14.99122 15.36,16.39809 12.01839,12.80937 29.56596,31.53905 35.04,37.40052 3.696,3.9576 6.95666,7.41577 7.24591,7.68482 0.28925,0.26906 9.95046,10.6412 21.46937,23.0492 11.51891,12.408 21.65025,23.23092 22.51409,24.05095 2.23532,2.12191 14.06632,14.69026 27.49063,29.20386 6.336,6.8501 15.60634,16.6908 20.60076,21.8682 4.99441,5.1773 9.31441,9.7805 9.6,10.2292 0.28558,0.4488 5.96582,6.5921 12.62276,13.6519 6.65692,7.0597 14.17694,15.1079 16.71114,17.8847 2.5342,2.7769 4.785,4.8715 5.0018,4.6547 0.21679,-0.2168 -0.25633,-2.4887 -1.05136,-5.0488 z M 258.34213,239.2906 c -0.76313,-1.452 -3.04223,-4.87421 -5.06465,-7.60491 -2.02243,-2.73071 -4.3956,-6.18671 -5.27374,-7.68 -0.87814,-1.4933 -6.176,-9.41109 -11.77304,-17.59509 -10.27721,-15.02737 -24.28736,-35.69711 -43.27136,-63.84 -5.69866,-8.448 -13.47303,-19.896 -17.27638,-25.44 -3.80334,-5.544 -9.76611,-14.31738 -13.2506,-19.4964 l -6.33544,-9.4164 -2.12488,4.1364 c -1.16868,2.27502 -17.45085,34.8084 -36.1826,72.2964 -18.73175,37.488 -35.08456,70.212 -36.33958,72.72 l -2.28185,4.56 h 90.28082 90.28083 z m 334.4582,2.16348 c 0,-0.26209 -2.0687,-3.39409 -4.5972,-6.96 -2.5285,-3.56592 -5.4445,-7.82139 -6.48,-9.45663 -1.9999,-3.15816 -8.9649,-13.3791 -14.0014,-20.54685 -3.9261,-5.58737 -13.5971,-19.66849 -39.5601,-57.6 -5.6017,-8.184 -10.5322,-15.312 -10.9566,-15.84 -1.3568,-1.688 -22.7941,-32.85467 -29.5522,-42.96459 l -3.0513,-4.5646 -3.3274,5.0446 c -1.8301,2.77453 -6.9096,10.22859 -11.2878,16.56459 -4.3782,6.336 -9.8552,14.328 -12.1711,17.76 -4.9335,7.311 -18.264,26.63211 -24.9059,36.0984 -2.5553,3.64188 -6.68478,9.6456 -9.17666,13.3416 -2.49189,3.696 -8.42446,12.336 -13.18349,19.2 -4.75903,6.864 -12.75671,18.528 -17.77263,25.92 -5.01591,7.392 -10.90229,15.924 -13.08085,18.96 l -3.96102,5.52 h 108.53285 c 59.693,0 108.5328,-0.21444 108.5328,-0.47652 z m 296.64,-0.32604 c 0,-0.44142 -17.0885,-35.02859 -37.9743,-76.86037 -37.7574,-75.62333 -37.9841,-76.04514 -39.6832,-73.83744 -0.9399,1.2212 -3.4256,4.81237 -5.524,7.98037 -6.2396,9.42047 -33.419,49.58135 -54.5742,80.64 -4.3156,6.336 -14.2634,21.024 -22.1061,32.64 -7.8427,11.616 -15.4742,22.80482 -16.9588,24.86404 -1.4847,2.05922 -2.6994,4.11122 -2.6994,4.56 0,0.44878 40.392,0.81596 89.76,0.81596 49.368,0 89.76,-0.36115 89.76,-0.80256 z M 325.2477,208.14534 c 1.16195,-1.9499 5.39883,-8.2139 9.41527,-13.92 4.01644,-5.70611 9.65986,-13.83074 12.54093,-18.05474 2.88107,-4.224 8.2033,-12 11.82719,-17.28 3.62388,-5.28 7.90337,-11.544 9.50997,-13.92 1.6066,-2.376 3.26427,-4.752 3.68371,-5.28 0.41944,-0.528 1.76731,-2.472 2.99526,-4.32 1.22794,-1.848 5.52234,-8.112 9.54309,-13.92 4.02076,-5.808 11.43911,-16.608 16.48522,-24 5.04613,-7.392 11.15091,-16.248 13.56619,-19.68 5.88655,-8.36452 10.94582,-16.10833 10.94582,-16.75388 0,-0.28936 -48.168,-0.52612 -107.04,-0.52612 -58.872,0 -107.04,0.22526 -107.04,0.50058 0,0.57004 4.97663,8.36811 5.80714,9.09942 0.2998,0.264 3.10343,4.368 6.23027,9.12 3.12685,4.752 6.04473,9.072 6.48419,9.6 0.43946,0.528 3.07102,4.416 5.84791,8.64 2.7769,4.224 8.29001,12.432 12.25135,18.24 3.96134,5.808 12.32888,18.12 18.59454,27.36 6.26565,9.24 14.44141,21.26043 18.16835,26.71206 3.72693,5.45164 9.15225,13.51326 12.05625,17.91471 2.904,4.40146 8.69636,13.09187 12.87191,19.31201 l 7.59191,11.30936 2.77544,-3.30407 c 1.52648,-1.81724 3.72612,-4.89944 4.88809,-6.84933 z m 329.80053,5.22526 c 2.6383,-4.1591 18.9675,-28.37619 23.7888,-35.28 1.1062,-1.584 4.3069,-6.336 7.1127,-10.56 5.6715,-8.53821 23.0668,-34.25034 34.9502,-51.66015 4.2572,-6.23709 8.8204,-13.00535 10.1404,-15.04058 1.32,-2.03523 7.152,-10.66978 12.96,-19.18788 5.808,-8.5181 11.3558,-16.76184 12.3284,-18.31942 l 1.7684,-2.83197 h -107.6305 -107.6306 l 1.6929,2.64 c 1.8846,2.93909 13.2241,19.37603 14.4047,20.88 0.4145,0.528 4.5579,6.576 9.2076,13.44 4.6496,6.864 11.8959,17.448 16.1028,23.52 4.2069,6.072 11.334,16.44 15.8379,23.04 4.504,6.6 12.6623,18.48 18.1297,26.4 5.4673,7.92 15.0214,21.852 21.2314,30.96 6.21,9.108 11.6108,16.56 12.0018,16.56 0.3909,0 2.0125,-2.052 3.6034,-4.56 z"
     style="fill:#ffffff;stroke-width:0.95999998" />
</svg>
