<?xml version="1.0" encoding="UTF-8" standalone="no"?>
<svg
   xmlns:dc="http://purl.org/dc/elements/1.1/"
   xmlns:cc="http://creativecommons.org/ns#"
   xmlns:rdf="http://www.w3.org/1999/02/22-rdf-syntax-ns#"
   xmlns:svg="http://www.w3.org/2000/svg"
   xmlns="http://www.w3.org/2000/svg"
   id="svg8"
   version="1.1"
   viewBox="0 0 93.482834 90.856209"
   height="90.856209mm"
   width="93.482834mm">
  <defs
     id="defs2" />
  <metadata
     id="metadata5">
    <rdf:RDF>
      <cc:Work
         rdf:about="">
        <dc:format>image/svg+xml</dc:format>
        <dc:type
           rdf:resource="http://purl.org/dc/dcmitype/StillImage" />
        <dc:title></dc:title>
      </cc:Work>
    </rdf:RDF>
  </metadata>
  <g
     transform="translate(-68.410738,-88.628293)"
     id="layer1">
    <path
       id="path832"
       d="m 71.651409,160.14915 c 1.892126,-6.75916 3.513608,-12.42206 3.603284,-12.58426 0.153871,-0.27831 29.123907,-5.17867 31.075457,-5.2565 l 0.85127,-0.0339 -3.07328,6.1479 -3.07329,6.14791 -16.206085,8.93767 c -8.913355,4.91572 -16.29869,8.93607 -16.41185,8.93412 -0.113168,-0.002 1.342356,-5.53376 3.234494,-12.2929 z m 4.776653,-41.82138 c 0.1066,-3.18165 2.673983,-7.3539 7.636194,-12.4096 5.805103,-5.91449 12.132146,-8.935733 14.901018,-7.115445 0.877658,0.576976 1.579086,2.677245 1.832516,5.486995 0.26716,2.96181 0.19404,4.45553 -0.23836,4.87006 -0.17981,0.17237 -1.841755,1.53252 -3.693229,3.02256 -3.593573,2.89209 -5.327162,4.66553 -8.072072,8.25769 l -1.721097,2.25234 -1.778881,0.0196 c -0.978382,0.0108 -2.990439,-0.21962 -4.471217,-0.51203 -3.494276,-0.69003 -4.472612,-1.55202 -4.394872,-3.87221 z m 2.421134,2.57646 c 1.027423,0.55117 3.567113,0.92994 5.739071,0.85591 1.02526,-0.0349 1.891034,-0.11016 1.923936,-0.16714 0.03288,-0.057 -1.257614,-0.71406 -2.867799,-1.46018 -4.26404,-1.97581 -4.1125,-1.8465 -3.881909,-3.31241 0.400212,-2.54431 3.865719,-7.75825 8.035884,-12.0902 1.706955,-1.77316 1.238503,-1.52128 -1.44221,0.77546 -3.536536,3.02999 -6.537808,7.13159 -8.09399,11.06146 -0.853005,2.15409 -0.647156,3.67502 0.587017,4.3371 z m 6.307179,9.30552 c 0.523413,-2.60553 3.780804,-8.19157 6.723386,-11.52978 2.931446,-3.32557 6.569293,-6.57583 9.652419,-8.62401 2.19434,-1.45774 2.90659,-1.79226 5.5534,-2.60816 4.50948,-1.39011 4.50872,-1.39039 9.6221,3.65006 2.22299,2.19129 4.0801,4.10763 4.12689,4.25851 0.0466,0.15092 -0.5197,3.93893 -1.25886,8.41787 -0.73917,4.47894 -1.31318,8.16557 -1.27558,8.19254 0.0376,0.027 3.03332,-1.48289 6.65715,-3.35521 3.62382,-1.87232 6.68668,-3.33962 6.80636,-3.26068 0.11971,0.0789 0.53854,0.63207 0.93082,1.22914 l 0.71323,1.08559 -0.95964,-0.12934 c -5.47071,-0.73738 -18.15532,9.40859 -24.17567,19.3373 -1.91569,3.15933 -2.71545,5.41601 -2.51517,7.09703 l 0.14844,1.24585 -1.03217,-1.05903 c -0.56769,-0.58248 -1.0508,-1.13097 -1.07357,-1.21888 -0.0228,-0.0879 1.2274,-2.78018 2.77816,-5.98281 1.55075,-3.20263 2.79704,-5.90938 2.76953,-6.015 -0.0275,-0.10562 -0.23443,-0.14261 -0.45981,-0.0822 -0.53128,0.14236 -14.883598,2.58192 -14.934792,2.53858 -0.02141,-0.0181 -1.936555,-1.99034 -4.25591,-4.38273 -4.952201,-5.10812 -5.190468,-5.57014 -4.540713,-8.80462 z m 5.657934,7.93263 4.251755,4.22832 0.952905,-0.25533 0.952905,-0.25533 -2.182212,-2.22293 c -1.200212,-1.22261 -3.49543,-3.56591 -5.100482,-5.20733 -1.605052,-1.64142 -3.007743,-2.96043 -3.117096,-2.93113 -0.326357,0.0874 -0.480548,1.31708 -0.236517,1.88611 0.1248,0.29112 2.140275,2.43204 4.478742,4.75762 z m 11.306151,32.57907 3.80637,-8.69249 5.50438,-2.63837 c 3.02742,-1.4511 5.57231,-2.59916 5.65534,-2.55122 0.18347,0.10592 -3.2453,12.7733 -3.6611,13.52573 -0.27165,0.49157 -14.717538,9.27622 -14.992848,9.11727 -0.06516,-0.0376 1.594358,-3.98005 3.687858,-8.76092 z m 4.52505,-16.67488 c 0.44304,-4.7392 5.90906,-12.37913 13.58909,-18.99365 5.25682,-4.5275 9.9361,-6.90234 12.90241,-6.54824 1.39017,0.16595 1.79267,0.55912 2.21468,2.16328 0.59701,2.2694 -0.35599,5.1467 -2.95665,8.92678 -1.35804,1.97392 -4.60997,5.88211 -5.32892,6.40434 -0.1865,0.13549 -1.02916,-0.51097 -2.27266,-1.74349 -1.08694,-1.07734 -2.17306,-1.97946 -2.4136,-2.00471 -0.57378,-0.0602 -1.89563,1.19694 -1.9245,1.83032 -0.0138,0.30455 0.71172,1.24552 1.88022,2.4383 1.04654,1.06829 1.93504,2.06262 1.97443,2.20964 0.10485,0.3913 -4.60755,4.3953 -6.91671,5.87692 -3.38127,2.16951 -7.64309,3.27789 -9.45822,2.45978 -0.83469,-0.37619 -1.41061,-1.72461 -1.28958,-3.0193 z m 1.73084,1.90492 c 0.96123,0.84351 4.42409,0.0803 7.36138,-1.6224 1.02534,-0.59438 1.80672,-1.11392 1.7364,-1.15452 -0.0703,-0.0406 -0.96088,0.2877 -1.979,0.72951 -2.06829,0.89759 -4.28676,1.17307 -5.29297,0.65711 -1.12522,-0.5769 -1.05922,-2.39681 0.20375,-5.61803 0.60672,-1.54744 0.54287,-1.47276 -0.79055,0.92467 -0.79782,1.43444 -1.53836,3.05039 -1.64565,3.591 -0.20615,1.03886 -0.0318,2.10795 0.40664,2.49266 z m 12.67396,-12.27865 c 0.52346,-0.83683 1.24002,-1.24315 1.6837,-0.95471 0.19142,0.12444 3.51543,3.38288 7.38668,7.24097 6.56886,6.54654 7.09642,7.01125 7.90431,6.96267 1.7144,-0.1031 3.46855,1.9175 2.97233,3.42378 -0.35149,1.06695 -1.46046,2.15527 -2.47418,2.4281 -1.2717,0.34283 -2.96686,-0.69644 -3.32648,-2.03855 -0.14689,-0.54819 -0.18806,-1.13499 -0.0915,-1.30399 0.11019,-0.1928 -2.06446,-2.56414 -5.83769,-6.36569 -3.30731,-3.33212 -6.60109,-6.66165 -7.3195,-7.39893 l -1.30622,-1.34054 z m 8.14295,8.45377 c 6.30191,6.27399 6.60871,6.62311 6.54076,7.44307 -0.0392,0.47316 -0.009,1.09084 0.066,1.37263 0.16244,0.60625 1.29133,1.24739 2.25369,1.27995 0.66116,0.0224 0.64791,-0.001 -0.39161,-0.69487 -0.59178,-0.3949 -1.08924,-0.76761 -1.10549,-0.82823 -0.0163,-0.0607 0.0491,-0.53607 0.14521,-1.05656 l 0.17474,-0.94636 -6.01403,-5.92125 c -3.30771,-3.25669 -6.67795,-6.57826 -7.4894,-7.38126 -0.81144,-0.80301 -1.56543,-1.36438 -1.67551,-1.24748 -0.25558,0.27138 -0.37033,0.14923 7.49563,7.98036 z m -6.50373,-39.06451 c 1.43374,-8.59129 2.74163,-15.745033 2.90642,-15.897218 0.2984,-0.275583 26.93084,-8.652989 27.13458,-8.535362 0.0589,0.03402 -4.49832,7.764417 -10.12709,17.17872 l -10.23412,17.11695 -4.58674,2.38914 c -2.52271,1.31403 -5.26191,2.74456 -6.0871,3.17895 -1.09115,0.57439 -1.51568,0.70792 -1.55657,0.48955 -0.0309,-0.16513 1.11687,-7.32946 2.55061,-15.92076 z m 14.60001,19.92883 2.2436,-5.65207 11.14097,-6.4681 c 6.12753,-3.55745 11.176,-6.44903 11.21881,-6.42575 0.0972,0.0529 -10.74701,17.55574 -11.27968,18.20576 -0.38479,0.46957 -15.4773,6.42457 -15.53842,6.13094 -0.0163,-0.0762 0.98075,-2.68215 2.21472,-5.79078 z"
       style="fill:#ffffff;stroke-width:0.26458335" />
  </g>
</svg>
