<?xml version="1.0" encoding="UTF-8" standalone="no"?>
<svg
   xmlns:dc="http://purl.org/dc/elements/1.1/"
   xmlns:cc="http://creativecommons.org/ns#"
   xmlns:rdf="http://www.w3.org/1999/02/22-rdf-syntax-ns#"
   xmlns:svg="http://www.w3.org/2000/svg"
   xmlns="http://www.w3.org/2000/svg"
   xmlns:xlink="http://www.w3.org/1999/xlink"
   id="svg8"
   version="1.1"
   viewBox="0 0 264.58331 169.63967"
   height="169.63966mm"
   width="264.58331mm">
  <defs
     id="defs2">
    <linearGradient
       id="linearGradient1195">
      <stop
         style="stop-color:#ecffff;stop-opacity:1"
         offset="0"
         id="stop1191" />
      <stop
         style="stop-color:#111111;stop-opacity:0.03783784"
         offset="1"
         id="stop1193" />
    </linearGradient>
    <linearGradient
       id="linearGradient1138">
      <stop
         id="stop1134"
         offset="0"
         style="stop-color:#111111;stop-opacity:1;" />
      <stop
         id="stop1136"
         offset="1"
         style="stop-color:#111111;stop-opacity:0.03783784" />
    </linearGradient>
    <filter
       id="filter841"
       style="color-interpolation-filters:sRGB">
      <feColorMatrix
         id="feColorMatrix839"
         values="0 0 0 0 0 0 0 0 0 0 0 0 0 0 0 -0.3 -0 -0.7 1 0 " />
    </filter>
    <linearGradient
       gradientUnits="userSpaceOnUse"
       y2="-23.487484"
       x2="-68.63945"
       y1="219.91896"
       x1="87.224434"
       id="linearGradient1140"
       xlink:href="#linearGradient1138" />
    <linearGradient
       gradientTransform="translate(-146.65506,-46.399343)"
       y2="104.11071"
       x2="14.630803"
       y1="219.91896"
       x1="87.224434"
       gradientUnits="userSpaceOnUse"
       id="linearGradient1144"
       xlink:href="#linearGradient1138" />
    <linearGradient
       gradientUnits="userSpaceOnUse"
       y2="228.78944"
       x2="92.240349"
       y1="102.01767"
       x1="11.798392"
       id="linearGradient1187"
       xlink:href="#linearGradient1195" />
  </defs>
  <metadata
     id="metadata5">
    <rdf:RDF>
      <cc:Work
         rdf:about="">
        <dc:format>image/svg+xml</dc:format>
        <dc:type
           rdf:resource="http://purl.org/dc/dcmitype/StillImage" />
        <dc:title></dc:title>
      </cc:Work>
    </rdf:RDF>
  </metadata>
  <g
     transform="translate(-13.153885,-103.37024)"
     id="layer1">
    <path
       id="path1130"
       d="m 11.396244,188.1901 v -86.5775 h 134.049306 134.0493 v 86.55617 86.55617 l -5.42899,-0.0614 -5.42901,-0.0614 5.1609,-0.0795 c 4.93679,-0.076 5.1609,-0.10274 5.1609,-0.61383 0,-0.642 0.58904,-0.64642 -6.43437,0.0482 -3.17027,0.31355 -7.43772,0.62402 -9.48323,0.68993 l -3.71912,0.11985 -0.83856,-0.79551 c -0.46121,-0.43754 -5.5175,-4.76196 -11.23623,-9.60984 l -10.39766,-8.81431 -0.81754,0.60915 c -0.62258,0.46389 -1.17987,0.609 -2.33701,0.60853 -0.83572,-2.7e-4 -1.75242,-0.0611 -2.03712,-0.13503 -0.42745,-0.111 -1.54096,1.37129 -6.39109,8.50769 -3.2304,4.75316 -5.93716,8.85479 -6.01502,9.11473 -0.14943,0.49883 -1.15143,0.66933 -1.15143,0.19593 0,-0.27125 -1.0854,-2.34388 -11.52303,-22.00377 -2.83893,-5.34731 -6.14293,-11.58781 -7.34221,-13.86778 -1.58311,-3.0097 -2.35804,-4.21491 -2.8285,-4.39905 -0.45594,-0.17844 -0.70783,-0.15612 -0.84984,0.0753 -0.111,0.18092 -4.28028,9.36112 -9.26505,20.40045 -7.89633,17.48725 -9.74666,21.24247 -9.74666,19.78066 0,-0.15995 -0.73667,-1.62241 -1.63703,-3.2499 -1.45664,-2.63297 -1.70039,-2.93803 -2.21182,-2.76815 -1.00134,0.3326 -1.89775,0.12382 -2.45947,-0.57283 l -0.5442,-0.67492 -15.67577,3.52773 c -8.62165,1.94025 -15.92227,3.64758 -16.22358,3.79408 -0.87822,0.427 -6.83683,0.12388 -15.70374,-0.79886 l -8.20862,-0.85422 -7.47516,0.85429 c -8.09174,0.92475 -12.954855,1.22393 -13.2123,0.81281 -0.08856,-0.14143 -5.279342,-3.18178 -11.535065,-6.75634 l -11.374048,-6.49919 -0.887943,0.78534 c -1.205787,1.06647 -2.775898,1.47539 -4.062595,1.05809 -0.543355,-0.17622 -1.124762,-0.4293 -1.292013,-0.5624 -0.206183,-0.16408 -1.932586,1.63969 -5.361971,5.60229 -2.781834,3.21435 -5.191824,6.01273 -5.355534,6.21863 -0.335434,0.42189 -2.007095,0.50761 -2.396736,0.12291 -0.140082,-0.13831 -2.114708,-0.93033 -4.388061,-1.76005 l -4.13337,-1.50859 -0.575635,0.54476 c -0.87943,0.83225 -2.405802,0.73112 -3.304202,-0.2189 l -0.722159,-0.76366 -11.260142,1.87836 c -6.193078,1.0331 -12.134814,1.93322 -13.203857,2.00029 l -1.943715,0.12193 z m 18.364755,83.32075 c 3.832914,-0.61607 6.163382,-1.09716 5.764121,-1.18993 -0.851846,-0.19794 -22.236763,-1.10286 -22.390994,-0.9475 -0.06315,0.0636 -0.30215,1.02029 -0.531107,2.12594 -0.228959,1.10566 -0.475307,2.20287 -0.547441,2.43828 -0.139918,0.45659 -0.77931,0.54423 17.705421,-2.42679 z m 22.922432,2.78671 c 0,-0.0866 1.0259,-3.93453 2.279781,-8.55114 1.253882,-4.6166 2.229715,-8.44427 2.168524,-8.50591 -0.06119,-0.0616 -1.304187,0.83928 -2.762206,2.00204 -1.458023,1.16277 -4.790445,3.81065 -7.405391,5.88421 -4.619216,3.66286 -4.749571,3.79344 -4.583201,4.59113 0.09418,0.45155 0.24901,0.90542 0.344064,1.00857 0.164137,0.17812 9.334292,3.66207 9.757354,3.70703 0.110591,0.0117 0.201075,-0.0494 0.201075,-0.13593 z m 49.930479,-13.34599 c 4.33776,-7.05548 8.05746,-13.102 8.266,-13.43673 0.42405,-0.68063 0.0739,-1.57874 -0.59238,-1.51946 -0.20077,0.0179 -9.14459,2.66113 -19.875163,5.87394 -10.730569,3.2128 -19.537609,5.84146 -19.571202,5.84146 -0.03359,0 -0.08008,0.5165 -0.103312,1.14778 -0.02321,0.63127 -0.08356,1.3609 -0.134049,1.6214 -0.133358,0.68793 23.334667,14.12992 23.804862,13.63493 0.175116,-0.18435 3.86747,-6.10785 8.205244,-13.16332 z m 2.88495,12.41463 c 4.20245,-0.44832 7.76186,-0.85758 7.9098,-0.90945 0.17576,-0.0616 0.20083,-1.53354 0.0723,-4.24688 -0.10816,-2.2839 -0.37487,-7.90958 -0.59266,-12.50153 -0.39904,-8.41303 -0.55475,-9.35833 -1.3924,-8.45286 -0.1668,0.1803 -2.38671,3.73065 -4.93315,7.88967 -2.54643,4.15901 -5.97548,9.74939 -7.620105,12.42303 -1.644634,2.67366 -3.273664,5.33102 -3.620076,5.90526 l -0.629838,1.04406 1.582651,-0.16808 c 0.870454,-0.0925 5.021008,-0.5349 9.223458,-0.98322 z m 29.17093,0.59672 c -0.19268,-0.27058 -2.45978,-3.3763 -5.03801,-6.9016 -3.9216,-5.36216 -4.77596,-6.38574 -5.22792,-6.26338 -0.29713,0.0804 -0.84606,0.14791 -1.21983,0.14994 -0.57378,0.003 -1.30169,0.86483 -4.67503,5.53437 -2.19748,3.04186 -4.04796,5.47776 -4.11215,5.41309 -0.0642,-0.0647 1.64746,-2.55884 3.8037,-5.54258 2.15624,-2.98375 3.92042,-5.52629 3.92042,-5.6501 0,-0.1238 -0.18096,-0.37638 -0.40214,-0.56129 -0.51093,-0.42715 -0.5196,-1.87144 -0.0156,-2.59632 0.36279,-0.52175 0.13822,-0.86219 -3.64712,-5.52893 -2.21854,-2.73512 -4.11169,-5.00136 -4.20699,-5.03608 -0.0953,-0.0347 -0.34826,0.0483 -0.56212,0.18441 -0.3392,0.21594 -0.3272,1.72387 0.0939,11.811 0.26552,6.3599 0.59597,12.0192 0.7343,12.57621 0.16516,0.66502 0.40905,1.01819 0.71035,1.02862 0.25236,0.009 4.37978,0.41865 9.17205,0.91094 4.79226,0.49229 9.23279,0.9105 9.86782,0.92936 1.06892,0.0317 1.12862,-0.002 0.8043,-0.45766 z m 3.2141,0.0832 c 0.92826,-0.22045 7.32242,-1.67185 14.20922,-3.22532 18.16742,-4.09808 17.48131,-3.92707 17.48131,-4.35702 0,-0.20949 -0.0485,-0.3809 -0.10792,-0.3809 -0.0594,0 -9.92162,-1.52191 -21.91614,-3.38202 -20.08968,-3.11552 -21.83404,-3.3465 -22.13557,-2.9311 -0.18004,0.24802 -0.24077,0.5973 -0.13496,0.77619 1.08714,1.83803 10.21052,13.89945 10.51417,13.90012 0.22119,5.3e-4 1.16164,-0.17949 2.08989,-0.39995 z M 269.039,273.76761 c 4.64482,-0.38448 8.67076,-0.78737 8.94656,-0.89531 0.40486,-0.15842 -1.67788,-2.04079 -10.81208,-9.77187 -6.22243,-5.2666 -11.51585,-9.72267 -11.76316,-9.90239 -0.25735,-0.18701 -0.60133,-0.23232 -0.80432,-0.10594 -0.28055,0.17466 0.21287,2.35955 2.36094,10.45422 3.18666,12.00847 2.85534,10.90714 3.28342,10.91447 0.18895,0.003 4.14383,-0.30868 8.78864,-0.69318 z m -83.08866,-19.02752 c 4.7509,-10.47182 8.64998,-19.35518 8.66464,-19.74083 0.0147,-0.38565 0.17242,-0.87809 0.35056,-1.09432 0.56327,-0.68367 0.11041,-1.5513 -0.95785,-1.8352 -0.53606,-0.14247 -8.74983,-2.33093 -18.25283,-4.86327 -9.503,-2.53233 -17.42723,-4.60424 -17.60941,-4.60424 -0.18218,0 -0.40546,0.23558 -0.49618,0.5235 -0.0907,0.28793 -0.58248,0.8928 -1.0928,1.34416 l -0.92787,0.82065 7.94767,19.24838 c 4.37122,10.58661 8.08209,19.3923 8.24638,19.56819 0.16429,0.1759 0.60032,0.38841 0.96895,0.47225 0.6145,0.13975 0.94717,-0.2463 3.99923,-4.64087 11.06516,-15.93241 17.56815,-25.15295 17.66841,-25.05195 0.0631,0.0636 -1.69362,2.70334 -3.90392,5.86609 -18.02551,25.79301 -17.00029,24.26149 -16.74916,25.02043 0.13668,0.41304 0.13425,1.05254 -0.006,1.52355 -0.21217,0.71369 -0.0407,1.18126 1.41893,3.87052 0.91313,1.68233 1.75762,2.95839 1.87664,2.8357 0.11904,-0.12269 4.10352,-8.79093 8.8544,-19.26274 z m 35.03079,16.20396 c 1.15631,-1.70817 3.85738,-5.71865 6.00238,-8.91218 l 3.90001,-5.80642 -0.79249,-1.11931 c -0.61902,-0.87431 -0.7916,-1.40635 -0.78842,-2.4306 0.002,-0.7212 0.0463,-1.48323 0.098,-1.69339 0.0644,-0.26244 -4.73374,-2.98566 -15.32178,-8.69581 -14.51527,-7.82812 -15.93176,-8.50381 -16.58921,-7.91332 -0.0556,0.0499 2.94734,5.8379 6.67328,12.86209 3.72593,7.0242 8.4675,15.96447 10.53683,19.86727 2.06934,3.9028 3.85617,7.06257 3.97075,7.02172 0.11458,-0.0408 1.15439,-1.47188 2.3107,-3.18005 z m 35.65023,-7.20524 -2.73475,-10.28749 -0.83185,-0.30301 c -0.45753,-0.16665 -0.95536,-0.57607 -1.10632,-0.90981 l -0.27446,-0.60681 -6.26899,0.34983 c -3.44794,0.19241 -6.51427,0.40138 -6.81406,0.46438 -0.38286,0.0804 -0.65699,0.49919 -0.92108,1.40692 -0.20681,0.7108 -0.38378,1.36868 -0.39327,1.46195 -0.0171,0.16787 21.91465,18.84826 22.02318,18.75826 0.031,-0.0257 -1.17429,-4.6761 -2.6784,-10.33422 z m -199.870603,6.05746 c 1.835583,-2.11664 4.061609,-4.69915 4.946728,-5.7389 l 1.609305,-1.89047 -0.624954,-1.19025 c -0.343724,-0.65464 -0.624954,-1.63853 -0.624954,-2.18642 v -0.99616 l -2.040153,-0.59714 c -1.122083,-0.32842 -2.079244,-0.55776 -2.127024,-0.50963 -0.04778,0.0482 -1.065842,3.70628 -2.262359,8.12922 -1.196515,4.42294 -2.242893,8.21867 -2.325283,8.43495 -0.08239,0.21628 -0.09106,0.39325 -0.01927,0.39325 0.07179,0 1.632377,-1.7318 3.46796,-3.84845 z M 278.95865,252.07301 v -19.95127 l -5.9652,3.11001 c -11.56062,6.02723 -12.39695,6.49634 -12.48161,7.00111 -0.0451,0.26909 -0.20694,0.81459 -0.35955,1.21223 -0.2452,0.63886 -0.14002,0.92163 0.9041,2.4306 2.72756,3.94187 11.24253,16.44973 15.27037,22.43104 1.37381,2.0401 2.52801,3.71114 2.56487,3.71341 0.0369,0.002 0.067,-8.97393 0.067,-19.94713 z m -1.18279,19.17962 c -0.24277,-0.39569 -14.87078,-21.90889 -16.68461,-24.5378 -1.53337,-2.22244 -1.78105,-2.46508 -2.31372,-2.26682 -0.32808,0.12212 -0.71717,0.17916 -0.86462,0.12675 -0.14745,-0.0524 -0.84977,0.92829 -1.56071,2.17936 -1.25863,2.21484 -1.28093,2.29263 -0.84805,2.95814 0.29947,0.46041 0.41509,1.09726 0.35427,1.9513 l -0.0903,1.26781 3.08313,2.62231 c 6.55775,5.5776 18.8899,15.93046 18.97609,15.93046 0.0498,0 0.0267,-0.10418 -0.0515,-0.23151 z M 38.313442,268.92958 c 0.142566,-0.57219 -1.691059,-3.16599 -12.650054,-17.89442 -7.049233,-9.47388 -13.030615,-17.52905 -13.29196,-17.90039 -0.530611,-0.75395 -0.540046,-2.19786 0.09882,15.12369 0.139697,3.78768 0.33583,9.89454 0.435848,13.57083 0.100022,3.67627 0.193315,6.69383 0.207325,6.7057 0.08893,0.0753 24.723915,1.20925 24.861918,1.14437 0.09426,-0.0443 0.246404,-0.38172 0.33811,-0.74978 z m 11.03463,-6.22258 c 3.935703,-3.11927 7.376487,-5.85368 7.646186,-6.07649 0.466851,-0.38568 0.358593,-0.72231 -2.258109,-7.02172 -1.511655,-3.63914 -2.836051,-6.84668 -2.943101,-7.12788 -0.107048,-0.2812 -0.248013,-0.4575 -0.313254,-0.39179 -0.383971,0.3868 -10.05069,25.77995 -9.932287,26.09077 0.07929,0.20815 0.256793,0.33795 0.394451,0.28847 0.137658,-0.0495 3.470407,-2.6421 7.406114,-5.76136 z m -6.149054,-0.77124 c 1.280847,-3.28923 3.576889,-9.17867 5.102316,-13.08766 1.525428,-3.90898 2.773505,-7.20713 2.773505,-7.32924 0,-0.1221 -0.452417,-0.30654 -1.00537,-0.40985 -0.552954,-0.10333 -6.555011,-1.5263 -13.337905,-3.16216 -6.782896,-1.63586 -14.026695,-3.37794 -16.097332,-3.87128 -2.070637,-0.49335 -4.483525,-1.07646 -5.361973,-1.2958 -0.878447,-0.21934 -1.931311,-0.47518 -2.339698,-0.56851 -0.624066,-0.14264 1.400603,2.70882 12.691511,17.87416 l 13.434032,18.04386 0.906053,-0.10655 0.906052,-0.10655 z m 127.033442,3.24062 c 0.32202,-0.35001 0.72387,-0.68422 0.89302,-0.74268 0.19015,-0.0657 -2.77042,-7.54166 -7.75479,-19.58218 l -8.06235,-19.47586 -1.11908,0.12706 c -0.67725,0.0769 -1.51073,-0.0378 -2.11107,-0.29047 l -0.99199,-0.41753 -12.97789,16.34141 c -12.71697,16.01286 -12.97191,16.35731 -12.68119,17.13318 0.16318,0.43548 0.48137,0.79659 0.70709,0.80243 0.22571,0.006 10.00162,1.51454 21.72423,3.35264 11.7226,1.83809 21.42064,3.35243 21.55118,3.36518 0.13056,0.0127 0.50083,-0.26318 0.82284,-0.61318 z m -107.436299,-8.69893 0.595227,-0.9404 -5.397699,-6.34092 c -2.968736,-3.48752 -5.435401,-6.30294 -5.481479,-6.25653 -0.09848,0.0992 5.175973,12.88096 5.414586,13.12132 0.132939,0.13392 3.680396,1.28214 4.140086,1.34005 0.07373,0.009 0.401901,-0.4063 0.729279,-0.92352 z m 27.649847,-4.9782 c 19.057212,-5.70191 20.337852,-6.10901 20.069212,-6.37961 -0.0808,-0.0814 -0.0257,-0.49781 0.1223,-0.9255 0.26111,-0.75451 0.0474,-1.02417 -7.19353,-9.07748 -4.104451,-4.56492 -11.064764,-12.31677 -15.467381,-17.22633 -4.402606,-4.90957 -8.149323,-9.08084 -8.32604,-9.26951 -0.259248,-0.27679 -0.47806,-0.26425 -1.133001,0.0648 -0.446437,0.22434 -1.194197,0.45008 -1.661689,0.50163 -0.467491,0.0515 -0.90777,0.15196 -0.978401,0.2231 -0.07063,0.0711 -1.94149,9.96522 -4.157465,21.98681 -2.215976,12.0216 -4.089517,22.12766 -4.163421,22.45791 -0.10933,0.48856 0.06936,0.70515 0.958877,1.16229 0.601543,0.30913 1.342437,0.98727 1.647299,1.50775 0.360271,0.6151 0.692017,0.89263 0.948512,0.79347 0.216953,-0.0839 8.917581,-2.70259 19.334728,-5.8194 z m 46.852212,-9.85741 c 6.72945,-8.46657 12.52681,-15.77618 12.88303,-16.24359 l 0.64769,-0.84983 -0.68095,-1.0108 c -0.4881,-0.72453 -0.68096,-1.36703 -0.68096,-2.2686 v -1.25781 l -5.42196,-1.66871 c -4.56588,-1.40523 -5.45693,-1.60578 -5.6434,-1.27014 -0.12179,0.21922 -0.38927,0.39857 -0.59442,0.39857 -0.20515,0 -0.43315,0.098 -0.50666,0.21784 -0.0736,0.11982 -2.07847,6.28745 -4.45547,13.70585 -3.82477,11.9368 -7.86852,24.40933 -8.2594,25.47529 -0.0755,0.20603 8.1e-4,0.32749 0.16993,0.27007 0.16896,-0.0574 5.81313,-7.03156 12.54257,-15.49814 z m -13.14966,14.88237 c 0.009,-0.0158 1.73831,-8.53581 3.84235,-18.93336 2.10402,-10.39754 3.88408,-19.11729 3.95567,-19.37723 0.0716,-0.25994 0.0315,-0.47167 -0.089,-0.4705 -0.17669,0.002 -7.64538,10.69485 -16.41197,23.49749 l -1.38959,2.02935 0.43277,0.87386 c 0.38902,0.78553 0.39185,0.95645 0.028,1.69122 l -0.40479,0.81738 3.13316,3.84767 c 1.72324,2.11623 3.5904,4.41806 4.14923,5.11517 0.92283,1.15117 1.09506,1.25237 1.8767,1.10259 0.47334,-0.0907 0.86819,-0.17785 0.87746,-0.19364 z m -59.576092,-1.64913 c 0.529359,-0.22281 1.306497,-0.4051 1.726969,-0.4051 h 0.764497 l 1.396936,-7.49433 c 0.768315,-4.12188 2.600595,-14.05694 4.071734,-22.07789 1.471138,-8.02097 2.73199,-14.83857 2.801894,-15.15022 0.09195,-0.40993 -0.05495,-0.6502 -0.531167,-0.86877 -0.798822,-0.36663 -0.08653,-1.28249 -7.837665,10.07753 -3.243165,4.75316 -7.968473,11.66799 -10.500688,15.36628 -2.532216,3.6983 -4.56179,6.85182 -4.510165,7.00784 0.07018,0.21209 11.438098,13.84144 11.620896,13.93265 0.01885,0.009 0.467395,-0.16518 0.996759,-0.38799 z m 60.765682,-0.98511 c 0,-0.15295 2.58996,-8.33313 5.75546,-18.17819 5.1773,-16.10203 5.72265,-17.97128 5.42899,-18.6085 -0.45255,-0.98204 -1.97397,-1.00186 -2.87338,-0.0375 -0.34632,0.37134 -0.77205,0.67516 -0.94605,0.67516 -0.1903,0 -0.59276,1.37217 -1.00992,3.44334 -1.09319,5.42757 -6.36162,31.14984 -6.60969,32.2708 -0.12991,0.587 -0.12342,0.94825 0.0155,0.86177 0.13152,-0.0819 0.23912,-0.27401 0.23912,-0.42694 z m 119.84007,-2.25569 c 3.17027,-0.21645 5.91493,-0.39615 6.09925,-0.39932 0.18431,-0.003 0.33512,-0.18129 0.33512,-0.39581 0,-0.74987 1.17411,-1.77469 2.1147,-1.84581 0.83672,-0.0633 1.00992,-0.2478 2.19925,-2.3432 1.23508,-2.17603 1.26891,-2.29009 0.78131,-2.63413 -0.44942,-0.31709 -1.59686,0.0771 -9.706,3.33446 -5.05798,2.03173 -9.22934,3.71822 -9.26967,3.74774 -0.0403,0.0295 0.003,0.25336 0.0957,0.49743 0.20382,0.53505 0.0889,0.53444 7.35033,0.0387 z m 1.80803,-4.64277 9.18402,-3.69755 v -0.97459 c 0,-0.53603 0.11946,-1.09493 0.26545,-1.242 0.17522,-0.1765 -2.61883,-3.43132 -8.21848,-9.57384 -4.66616,-5.11854 -11.02896,-12.09719 -14.13955,-15.50809 -3.11059,-3.41091 -7.04303,-7.72451 -8.73876,-9.58578 -6.30825,-6.92409 -6.2964,-6.9131 -7.06898,-6.55851 -0.66901,0.30706 -0.67758,0.34432 -0.33891,1.47307 0.1911,0.63693 3.52814,11.4577 7.41565,24.04615 l 7.06817,22.88809 1.22079,10e-4 c 1.35603,0.001 2.62096,0.64192 3.40398,1.72444 0.27378,0.37849 0.55737,0.69199 0.6302,0.69666 0.0729,0.005 4.26522,-1.6554 9.31642,-3.68906 z m -15.39529,1.63267 c 0.45242,-0.2534 0.0369,-1.73467 -5.71467,-20.3719 -3.41141,-11.05424 -6.74392,-21.83042 -7.40556,-23.94706 l -1.20301,-3.84845 h -0.90676 c -0.49872,0 -1.20039,-0.11245 -1.55927,-0.24989 -0.73342,-0.28089 0.67445,-2.67294 -11.55848,19.63858 l -5.52194,10.07139 0.71716,0.6214 c 0.69347,0.60087 0.95038,1.78939 0.61417,2.84125 -0.0857,0.26812 4.4005,2.81284 15.25993,8.65595 l 15.3813,8.27619 0.70461,-0.70708 c 0.38753,-0.38891 0.92417,-0.83007 1.19252,-0.98038 z m -109.0429,-18.27636 c 8.1011,-11.7211 8.67373,-12.62517 8.27966,-13.07201 -0.23283,-0.26402 -0.62823,-0.73815 -0.87868,-1.0536 -0.39607,-0.4989 -3.56182,-1.19585 -24.31613,-5.35334 -13.123426,-2.62888 -24.132229,-4.84493 -24.464002,-4.92455 -0.417676,-0.10024 -0.603222,-0.0224 -0.603222,0.25318 0,0.21887 -0.242889,0.709 -0.539755,1.08918 l -0.539752,0.69122 9.428764,10.48542 c 5.185826,5.76699 11.551417,12.84235 14.145757,15.72303 2.59435,2.88068 5.44086,6.05247 6.32559,7.04841 l 1.6086,1.81081 1.42507,-0.0529 1.42509,-0.0529 z m 147.56515,5.79214 c 4.64381,-2.43189 8.5468,-4.51708 8.6733,-4.63377 0.20834,-0.19218 -0.18807,-9.25455 -0.52874,-12.08722 l -0.13923,-1.15772 -8.96,11.2852 c -4.92799,6.20686 -8.96152,11.37048 -8.9634,11.47471 -0.005,0.28935 0.82248,-0.11798 9.91807,-4.8812 z m -219.124683,4.48913 c -1.866749,-4.38608 -5.504203,-11.91743 -5.807868,-12.02518 -0.223375,-0.0793 -0.568964,-0.27171 -0.767976,-0.42766 -0.199011,-0.15595 -0.802232,-0.24849 -1.340494,-0.20565 -3.244752,0.25826 -29.861783,3.76184 -29.531155,3.88716 0.345503,0.13095 7.965472,1.97355 30.429192,7.3581 2.654176,0.63621 5.24803,1.27945 5.76412,1.42942 1.286308,0.3738 1.419432,0.37209 1.254181,-0.0162 z m 11.848787,-16.27147 c 1.116862,-1.6339 4.042145,-5.88744 6.500633,-9.45231 l 4.469976,-6.48159 -0.542277,-0.5937 -0.542282,-0.59371 -1.249223,0.72874 c -0.687073,0.40081 -6.100893,3.57865 -12.030709,7.06188 -10.665935,6.26527 -10.78148,6.34248 -10.78148,7.20355 0,0.53625 -0.259367,1.1809 -0.67562,1.67922 l -0.675619,0.80882 2.021247,7.65146 c 1.111686,4.20831 2.080793,7.81735 2.153571,8.02009 0.07469,0.20808 2.133352,-2.55608 4.726728,-6.34655 2.526921,-3.69334 5.508196,-8.052 6.625055,-9.6859 z m 195.638196,15.6998 c 0.0145,-0.0198 0.79172,-10.89499 1.72712,-24.16711 1.58902,-22.54601 1.67067,-24.14809 1.24297,-24.38919 -0.25178,-0.14193 -0.66706,-0.48364 -0.92284,-0.75935 -0.51284,-0.55277 2.60497,-0.92178 -30.77376,3.64224 -4.87345,0.66636 -8.9452,1.21157 -9.04833,1.21157 -0.10313,0 -0.18751,0.28323 -0.18751,0.6294 0,0.34617 -0.27396,1.17449 -0.60879,1.84074 l -0.6088,1.21134 7.78043,8.52443 c 4.27924,4.68844 12.72685,13.9491 18.77247,20.57927 10.62266,11.64973 11.01907,12.0491 11.79635,11.88373 0.44236,-0.0941 0.81617,-0.18729 0.83069,-0.20707 z m 10.43967,-11.03048 c 4.98325,-6.26977 9.06044,-11.53865 9.06044,-11.7086 0,-0.16995 -0.61076,-1.32928 -1.35725,-2.57631 -0.74648,-1.24703 -2.67064,-4.51561 -4.27589,-7.26354 -7.97078,-13.64461 -9.36015,-15.9339 -9.67034,-15.9339 -0.18458,0 -0.3356,0.10227 -0.3356,0.22725 0,0.26464 -0.34376,5.14282 -2.11549,30.02015 -0.71405,10.0262 -1.24693,18.32061 -1.18416,18.43201 0.0627,0.1114 0.27245,0.20255 0.46599,0.20255 0.19353,0 4.42906,-5.12982 9.4123,-11.39961 z M 48.664908,231.3433 c -1.969307,-7.44959 -1.776227,-6.87368 -2.243835,-6.69292 -0.542462,0.20969 -0.724314,1.48324 -0.299112,2.09474 0.248776,0.35778 0.282732,0.71102 0.111864,1.16374 -0.20154,0.53398 0.123036,1.46605 1.81828,5.22147 1.13499,2.51431 2.104493,4.53029 2.154456,4.47997 0.04997,-0.0503 -0.64378,-2.87049 -1.541653,-6.267 z m 147.066772,-7.66085 c -0.4491,-17.54415 -0.93295,-32.78412 -1.04211,-32.82397 -0.0263,-0.009 -0.35277,-0.2088 -0.72535,-0.44261 -0.67375,-0.42282 -0.73569,-0.37882 -11.42972,8.11621 -5.91376,4.69772 -14.02663,11.1384 -18.02858,14.31263 -5.83136,4.62525 -7.21613,5.84432 -6.97339,6.13896 0.1666,0.20221 0.38048,1.00059 0.4753,1.77418 l 0.1724,1.40655 8.9813,2.39854 c 4.93972,1.3192 13.19629,3.52555 18.34791,4.903 l 9.36662,2.50445 0.50904,-0.9707 c 0.47287,-0.9017 0.4975,-1.42168 0.34658,-7.31724 z m -178.437266,6.1911 c 5.769084,-1.5308 25.22183,-6.62997 26.068506,-6.83338 0.508066,-0.12205 0.786954,-0.40292 0.90829,-0.91471 0.0963,-0.40621 0.298388,-0.89595 0.449075,-1.08831 0.19968,-0.2549 -0.01448,-0.76756 -0.789725,-1.89046 -0.585036,-0.8474 -4.379744,-6.28038 -8.432686,-12.07329 -4.052941,-5.79293 -8.301592,-11.87832 -9.441447,-13.5231 -1.92735,-2.78112 -2.126495,-2.98252 -2.84413,-2.87643 -0.52084,0.077 -0.812385,0.3029 -0.896936,0.69496 -0.107896,0.5003 -4.375459,16.95282 -5.824842,22.45621 -1.6115,6.11896 -2.585584,9.84629 -3.375271,12.91547 -0.490081,1.90472 -0.966327,3.70204 -1.058323,3.99402 -0.195026,0.61899 -0.576224,0.68165 5.237489,-0.86098 z m 13.087915,-0.82499 c 13.100324,-1.62429 13.51169,-1.69297 14.23862,-2.37701 1.15169,-1.08373 1.272581,-1.81327 0.430717,-2.5992 -0.388805,-0.36298 -0.859125,-0.65996 -1.045158,-0.65996 -0.460666,0 -27.719427,7.24978 -27.382341,7.28265 0.147455,0.0144 6.338627,-0.72654 13.758162,-1.64648 z m 167.319011,0.19276 c 0.27571,-0.45799 4.01602,-7.2498 8.31182,-15.09292 l 7.81053,-14.26021 -0.80426,-0.81016 c -0.85124,-0.8575 -1.42521,-2.47238 -1.29672,-3.64845 0.0757,-0.69327 -0.0661,-0.75821 -7.29547,-3.34087 l -7.37271,-2.63385 -0.75785,0.63977 c -0.41681,0.35187 -0.87028,0.63976 -1.00771,0.63976 -0.1392,0 -0.19228,0.62793 -0.11984,1.41786 0.0715,0.77981 0.3256,9.49957 0.56463,19.37723 0.23903,9.87767 0.47168,18.09105 0.517,18.25196 0.16188,0.57476 0.95787,0.27836 1.45058,-0.54012 z M 16.901422,209.90909 c 0.859548,-3.34207 1.584465,-6.25879 1.610926,-6.48159 0.02646,-0.2228 0.115925,-0.58739 0.198809,-0.8102 0.529103,-1.42231 1.30816,-4.44061 1.34938,-5.2279 0.0269,-0.51382 0.10437,-0.87934 0.172152,-0.81226 0.06778,0.0671 0.46024,-1.17975 0.872127,-2.77072 0.688734,-2.66031 0.714498,-2.93094 0.320744,-3.36923 -0.23548,-0.26211 -0.567615,-0.44391 -0.738078,-0.40401 -0.170464,0.0399 -0.219451,0.0215 -0.10886,-0.0407 0.335955,-0.18926 0.224506,-0.87846 -0.142055,-0.87846 -0.18872,0 -1.84758,0.19677 -3.686356,0.43726 -1.838775,0.2405 -3.674999,0.42086 -4.080498,0.40081 l -0.737271,-0.0364 0.01541,19.38153 0.01541,19.38152 1.687669,-6.34655 c 0.928217,-3.4906 2.390935,-9.08097 3.250484,-12.42303 z m 3.610175,-17.25765 c 0,-0.28044 0.509981,-0.68642 0.661044,-0.52624 0.04904,0.0521 -0.07962,0.25126 -0.285936,0.44279 -0.20631,0.19153 -0.375108,0.22908 -0.375108,0.0835 z m 36.327362,23.47804 c 15.330678,-8.97722 15.557012,-9.11848 15.455293,-9.64634 -0.140184,-0.72744 -0.153871,-2.8638 -0.02118,-3.30452 0.102859,-0.34161 -4.461081,-3.09852 -12.671984,-7.65469 l -1.527438,-0.84757 -0.569785,0.72968 c -0.313372,0.40132 -0.804894,0.72968 -1.092261,0.72968 -0.287367,0 -0.64198,0.27344 -0.788029,0.60764 -0.146047,0.33421 -2.057843,5.77267 -4.24843,12.08546 -3.558439,10.25464 -3.937482,11.51442 -3.556809,11.82135 0.234345,0.18895 0.610509,0.27346 0.835924,0.1878 0.225411,-0.0856 3.908526,-2.20449 8.184699,-4.70849 z m -11.017625,4.08382 c 0.07706,-0.12561 -0.819786,-7.20472 -1.992996,-15.73135 -1.173208,-8.52665 -2.133972,-15.6397 -2.135029,-15.8068 -0.0011,-0.1671 -0.354428,-0.37485 -0.785268,-0.46164 -0.43084,-0.0868 -1.08729,-0.48802 -1.458781,-0.89159 l -0.675435,-0.73378 -6.78525,0.90609 -6.785253,0.9061 -0.45675,0.94096 -0.456752,0.94096 5.405344,7.72041 c 7.43452,10.61865 12.101884,17.30965 14.006963,20.07995 1.593709,2.31753 1.847821,2.57302 2.119207,2.13069 z m 5.388423,-12.01301 4.071967,-11.83626 -0.797483,-0.80334 c -0.707207,-0.71239 -0.77984,-0.93301 -0.641614,-1.94887 l 0.15587,-1.14555 -5.310012,-2.6638 -5.310009,-2.66379 -0.705545,0.51504 c -0.52828,0.38565 -0.673536,0.68468 -0.578152,1.19021 0.151524,0.80309 3.188232,22.94438 3.825545,27.89289 0.348019,2.70226 0.528492,3.43538 0.831017,3.37582 0.24957,-0.0491 1.828717,-4.26842 4.458416,-11.91235 z m 99.061573,10.41509 c 0.36864,-0.55518 0.70973,-1.09834 0.75798,-1.20704 0.10123,-0.22805 -20.71491,-33.89544 -21.33456,-34.50586 -0.36556,-0.3601 -0.39588,-0.36003 -0.27304,5.5e-4 0.076,0.22311 1.91103,7.51489 4.07787,16.20396 2.16682,8.68907 4.05421,15.83953 4.19423,15.88994 0.34144,0.12289 0.97933,0.77726 1.09322,1.12144 0.0776,0.23449 9.75391,3.43523 10.54595,3.48839 0.14746,0.0102 0.56971,-0.43623 0.93835,-0.99141 z m 25.02349,-14.7843 c 16.3646,-12.97117 17.6411,-14.0417 17.51781,-14.69138 -0.0732,-0.3854 0.0382,-1.1134 0.24742,-1.6178 0.44235,-1.06647 0.6668,-0.60828 -3.57228,-7.29216 -1.54208,-2.43143 -2.87458,-4.24657 -3.2089,-4.37115 -0.51251,-0.19097 -1.02431,0.43545 -4.94174,6.04857 -4.98336,7.14043 -11.96716,17.15493 -19.61297,28.12427 -4.02533,5.77507 -5.19343,7.63225 -4.97056,7.90276 0.174,0.2112 0.41196,0.25976 0.59088,0.12057 0.16476,-0.12817 8.24241,-6.52882 17.95034,-14.22368 z m -6.33517,-4.72463 c 6.77494,-9.72914 12.90543,-18.54004 13.62332,-19.57979 0.71791,-1.03976 1.62409,-2.33721 2.01376,-2.88321 1.166,-1.63388 0.88608,-2.30545 -1.95691,-4.69498 -2.2317,-1.87573 -2.50692,-2.02982 -3.49172,-1.95517 l -1.06905,0.0811 -7.40247,15.67231 c -4.07137,8.61976 -8.08797,17.12684 -8.9258,18.90461 -0.83781,1.77778 -2.49667,5.27701 -3.68635,7.77606 -2.12717,4.46841 -2.538,5.55998 -1.79293,4.76389 0.20356,-0.21749 5.91323,-8.35565 12.68815,-18.08477 z m -16.1884,17.80811 1.12878,-0.28633 1.55707,-25.1674 c 1.49678,-24.19284 1.53812,-25.17786 1.0677,-25.43747 -0.26915,-0.14854 -0.97375,-0.7589 -1.56577,-1.35635 l -1.0764,-1.08627 -11.58313,8.10799 c -10.04009,7.02788 -11.58422,8.19892 -11.59125,8.79058 -0.004,0.37543 -0.19698,0.95421 -0.42781,1.28618 -0.40514,0.58265 -0.0446,1.20803 10.38707,18.01949 5.94372,9.57873 10.8446,17.41589 10.89086,17.41589 0.0463,0 0.59205,-0.12885 1.21288,-0.28631 z m 5.10908,-4.84494 c 1.23123,-2.59939 6.2381,-13.19246 11.12637,-23.54014 l 8.88778,-18.81399 -0.52777,-0.90084 c -0.49742,-0.84899 -0.9404,-1.04697 -7.69859,-3.44052 -4.43872,-1.57208 -7.20845,-2.42589 -7.26963,-2.241 -0.25388,0.76724 -1.34958,2.09705 -2.08372,2.52896 -0.44699,0.26297 -1.2911,0.51469 -1.87577,0.55937 -0.82613,0.0632 -1.07791,0.20058 -1.12969,0.61673 -0.11406,0.91679 -3.01652,48.28984 -3.01652,49.23468 0,0.79749 0.0727,0.8846 0.67448,0.80835 0.58766,-0.0744 0.96262,-0.69378 2.91306,-4.8116 z m -20.90543,2.70587 c -0.17776,-0.97604 -7.4789,-30.20993 -7.53164,-30.1568 -0.04,0.0403 0.61207,6.51811 1.449,14.3952 l 1.52168,14.32198 0.75644,0.43732 c 0.46556,0.26917 0.81791,0.74696 0.9163,1.24253 0.13148,0.66215 0.30924,0.8201 1.00062,0.8891 0.75147,0.075 1.97376,-0.65629 1.8876,-1.12933 z m 141.12584,0.39913 c 0,-0.52029 -0.10858,-1.01358 -0.24129,-1.0962 -0.13271,-0.0826 -0.23944,-0.29496 -0.23718,-0.47186 0.003,-0.2087 0.0872,-0.18942 0.2408,0.0549 0.30311,0.48219 0.50263,-2.3965 0.69055,-9.96391 0.0793,-3.19352 0.21911,-7.53821 0.31067,-9.65485 l 0.16648,-3.84844 h -7.36347 -7.36346 l -0.34077,0.6414 c -0.26149,0.49217 -0.2689,0.7767 -0.0318,1.22287 0.16991,0.31979 0.44215,0.49851 0.60499,0.39713 0.16751,-0.1043 0.22092,-0.0619 0.123,0.0978 -0.15781,0.25722 1.0479,2.77209 1.32902,2.77209 0.0663,0 -0.004,-0.23507 -0.15696,-0.52238 -0.15265,-0.28731 -0.27326,-0.62151 -0.26804,-0.74268 0.005,-0.12116 0.1756,0.082 0.37863,0.45147 0.20302,0.36948 0.31446,0.76088 0.24764,0.86979 -0.0668,0.1089 0.072,0.57476 0.30832,1.03525 0.37539,0.73125 0.48707,0.79208 0.88227,0.48054 0.40096,-0.31608 0.41291,-0.30569 0.10488,0.0913 -0.29735,0.38315 -0.14532,0.7931 1.05164,2.83568 1.44297,2.46242 2.06003,3.32256 1.75137,2.44128 -0.10745,-0.30681 -0.0658,-0.42147 0.11287,-0.31027 0.15582,0.097 0.21197,0.36364 0.12478,0.59253 -0.18945,0.49731 3.01411,6.07813 3.36399,5.86031 0.13042,-0.0813 0.17579,0.0134 0.10082,0.21016 -0.075,0.1968 0.25331,0.96267 0.72951,1.70195 0.4762,0.73927 1.07591,1.79988 1.33271,2.35688 0.25678,0.55701 0.59343,1.01275 0.7481,1.01275 0.15466,0 0.25104,0.0977 0.21417,0.21716 -0.0561,0.18184 0.89802,2.21344 1.03953,2.21344 0.0254,0 0.0463,-0.42569 0.0463,-0.94599 z m -9.69885,-15.94358 c -0.25871,-0.67914 -0.18239,-0.85437 0.13365,-0.30689 0.15649,0.27108 0.22804,0.54977 0.15902,0.6193 -0.069,0.0695 -0.20073,-0.071 -0.29267,-0.31241 z m -138.6535,15.55869 c -0.2309,-0.2272 -4.45143,-2.71335 -15.40226,-9.07284 -2.13809,-1.24166 -9.07514,-5.2864 -15.415675,-8.98833 -11.169412,-6.52127 -11.550914,-6.71924 -12.256526,-6.36021 -0.400562,0.20381 -1.117787,0.33916 -1.593839,0.30079 -0.856409,-0.069 -0.891681,-0.0228 -3.342513,4.38632 -1.362335,2.45084 -2.394456,4.53474 -2.2936,4.63088 0.100853,0.0961 7.060105,2.26435 15.464999,4.81826 16.841834,5.11755 21.329814,6.48891 29.088704,8.88842 5.27575,1.63159 6.2233,1.86172 5.75071,1.39671 z m -3.33782,-0.30471 c -0.36864,-0.13344 -6.09925,-1.89403 -12.73469,-3.91242 -6.63544,-2.01839 -17.055728,-5.18824 -23.156196,-7.04411 -6.100459,-1.85587 -11.258009,-3.31004 -11.461214,-3.23148 -0.541481,0.20931 -0.450695,0.78893 0.186339,1.18969 0.669799,0.42136 1.574943,2.3347 1.583098,3.34641 0.0049,0.60843 0.151436,0.758 0.877208,0.89543 0.479227,0.0907 10.64352,2.14967 22.587305,4.57537 20.4903,4.16144 23.78375,4.78402 22.11815,4.18111 z m 4.63555,-0.59155 c 0.47325,-0.3337 0.89736,-0.62406 0.94244,-0.64522 0.0772,-0.0362 -2.70661,-27.00617 -3.04173,-29.46806 -0.11815,-0.86797 -0.27413,-1.14778 -0.63985,-1.14778 -0.26599,0 -0.79541,-0.24705 -1.17649,-0.549 l -0.69287,-0.54902 -19.23212,3.32398 -19.232123,3.32399 -0.200621,0.75565 c -0.178814,0.67354 -0.09342,0.81955 0.785824,1.34354 2.752379,1.64031 41.48238,24.21268 41.54919,24.21545 0.0429,0.002 0.46509,-0.26982 0.93835,-0.60353 z M 73.151228,201.95434 c 0.08232,-0.21609 0.661647,-0.656 1.287395,-0.97758 0.898502,-0.46175 1.432479,-0.55404 2.539558,-0.43893 1.052319,0.1094 1.437555,0.0519 1.545106,-0.23036 0.09767,-0.25641 -0.173112,-0.46259 -0.85088,-0.64787 -0.546783,-0.14948 -5.094582,-1.42022 -10.106222,-2.82386 -5.011639,-1.40365 -9.136514,-2.52746 -9.166388,-2.49737 -0.106204,0.10698 13.994268,8.00453 14.295321,8.00668 0.168543,0.001 0.373791,-0.17462 0.45611,-0.39071 z m 6.055624,-7.03391 c 0.178924,-2.37659 0.393288,-4.83756 0.476366,-5.46885 0.125757,-0.95556 0.07556,-1.14778 -0.299721,-1.14778 -0.247927,0 -0.744335,-0.29571 -1.103129,-0.65714 l -0.652356,-0.65714 -9.672998,3.08773 c -5.320152,1.69826 -9.736291,3.08774 -9.813648,3.08774 -0.07735,0 -0.09051,0.15191 -0.02922,0.33758 0.121122,0.36696 20.337068,6.14927 20.606099,5.89391 0.08982,-0.0852 0.309687,-2.09948 0.488611,-4.47605 z m 2.682474,-0.77509 c 1.967282,-3.56128 2.184835,-4.09007 1.921917,-4.67134 -0.163058,-0.36051 -0.296477,-0.87031 -0.296477,-1.13288 0,-0.2733 -0.374764,-0.65744 -0.876584,-0.89849 -0.844961,-0.40589 -0.906455,-0.39551 -1.704035,0.28755 -0.815612,0.69852 -0.832006,0.76271 -1.146751,4.48958 -0.175619,2.07951 -0.388947,4.38857 -0.47406,5.13126 -0.09881,0.86208 -0.06213,1.25268 0.101419,1.08026 0.140897,-0.14853 1.254452,-2.07721 2.474571,-4.28594 z m 158.854064,-1.66806 c 10.46308,-1.41653 19.04202,-2.60084 19.0643,-2.6318 0.0223,-0.0309 0.11003,-0.36013 0.19496,-0.73148 0.14403,-0.62966 -1.10269,-1.59547 -18.49676,-14.32918 l -18.65119,-13.65402 -0.90319,0.42078 c -0.49676,0.23143 -0.96305,0.66384 -1.03622,0.96092 -0.0732,0.29707 -0.74127,5.03673 -1.48468,10.53258 -0.74341,5.49584 -1.58815,11.69053 -1.8772,13.76597 -0.28905,2.07546 -0.51991,4.01993 -0.51303,4.32107 0.008,0.3678 0.3794,0.72917 1.13033,1.101 0.8011,0.39667 1.29573,0.90173 1.74569,1.78251 0.49905,0.97685 0.74844,1.20932 1.21553,1.13307 0.32322,-0.0528 9.14837,-1.2549 19.61146,-2.67142 z m -27.70524,0.59304 c 0.64608,-0.64622 1.34228,-1.22912 1.5471,-1.29534 0.29577,-0.0956 -0.25446,-2.96675 -2.67321,-13.94876 -2.57878,-11.7087 -3.11631,-13.82836 -3.50675,-13.82836 -0.25362,0 -0.55872,0.15061 -0.67802,0.33469 -0.11929,0.18408 -2.76964,5.2393 -5.88967,11.23383 l -5.67277,10.89914 0.53969,0.92142 c 0.29682,0.50678 0.47597,1.08868 0.39809,1.29311 -0.10501,0.27568 1.7056,1.03568 7.00978,2.94234 3.93325,1.41386 7.28629,2.58241 7.45121,2.59676 0.16492,0.0144 0.82846,-0.50262 1.47455,-1.14883 z M 68.210195,189.61283 c 5.074544,-1.61119 9.266936,-2.92943 9.316427,-2.92943 0.188275,0 0.08002,-1.05459 -0.121111,-1.1798 -0.260527,-0.16219 -33.687963,-9.35344 -34.008697,-9.35106 -0.126987,8.1e-4 -0.447902,0.38571 -0.713143,0.85505 l -0.48226,0.85334 1.171912,1.23797 c 0.644552,0.68087 3.561293,3.82046 6.481646,6.97686 4.436692,4.7953 5.431468,5.7389 6.050136,5.7389 0.407219,0 1.025217,0.2379 1.373327,0.52867 0.394249,0.3293 0.835119,0.46649 1.169118,0.36379 0.294909,-0.0906 4.688099,-1.48311 9.762645,-3.09429 z m -13.42666,2.48994 c -0.04915,-0.13861 -0.756188,-0.95893 -1.571194,-1.82295 -0.815007,-0.86401 -3.689665,-3.96007 -6.388128,-6.88014 l -4.906292,-5.30924 -0.78182,0.44805 c -0.90979,0.52137 -0.927995,0.69008 -0.351836,3.26011 0.395673,1.76496 0.510031,1.96537 1.314659,2.30404 0.841111,0.35402 1.246708,1.01802 1.30767,2.14078 0.02048,0.37743 1.417719,1.21067 5.523456,3.29389 5.555087,2.81862 6.014683,3.02005 5.853485,2.56546 z m 161.834285,-1.19809 c 0.0662,-0.31646 0.99588,-7.00765 2.06606,-14.86932 1.46796,-10.78378 1.86447,-14.32125 1.61464,-14.40513 -0.40319,-0.13539 -1.04421,-0.76143 -1.17054,-1.14322 -0.0758,-0.22907 -5.15752,0.63343 -8.66852,1.47127 -0.29491,0.0703 -0.70379,0.5125 -0.90864,0.98252 -0.34726,0.7968 -0.16962,1.77857 2.62853,14.52663 1.65053,7.51963 3.04735,13.81455 3.10405,13.98869 0.16541,0.50803 1.20253,0.0794 1.33442,-0.55144 z m 59.63935,-4.94028 c -1.36167,-1.90687 -2.92234,-4.07467 -3.46817,-4.81734 -0.54582,-0.74269 -3.61423,-4.99623 -6.81866,-9.45232 -3.20444,-4.45609 -5.90601,-8.13039 -6.00349,-8.1651 -0.0975,-0.0347 -0.33486,0.0375 -0.52751,0.16039 -0.27732,0.17697 -0.29213,0.5838 -0.0711,1.95359 0.15354,0.95153 0.82712,6.04437 1.49686,11.31741 0.66973,5.27304 1.271,9.73926 1.33616,9.92492 0.0652,0.18567 0.35477,0.33759 0.64361,0.33759 0.55824,0 1.63645,1.17764 1.63645,1.78736 0,0.29447 1.34733,0.37798 7.03759,0.4362 3.87068,0.0396 7.07729,0.0523 7.1258,0.0282 0.0485,-0.0241 -1.02588,-1.604 -2.38754,-3.51085 z m -258.7722,2.84326 c 2.921389,-0.31549 3.012813,-0.34545 3.263341,-1.06938 0.141762,-0.40965 0.544372,-0.93399 0.894687,-1.16521 l 0.636938,-0.4204 -0.374125,-2.63784 c -0.205769,-1.45082 -0.408011,-2.6737 -0.449427,-2.71753 -0.04141,-0.0438 -0.374872,-0.10461 -0.741013,-0.13504 -0.548665,-0.0456 -1.332158,0.69706 -4.456222,4.22402 -2.08478,2.35364 -3.79051,4.33918 -3.79051,4.4123 0,0.0732 0.452417,0.0656 1.00537,-0.0166 0.552953,-0.0823 2.357885,-0.29572 4.010961,-0.47423 z m -1.511714,-4.37762 c 1.832544,-2.05631 3.418844,-3.89249 3.525112,-4.08039 0.106267,-0.1879 0.08254,-0.73035 -0.05271,-1.20544 -0.279193,-0.98063 -0.143844,-1.534 0.571838,-2.33792 0.490205,-0.55063 0.428041,-0.77239 -3.785525,-13.5033 l -4.283915,-12.94346 -0.0078,19.30008 c -0.0065,16.02046 0.05243,19.23287 0.346654,18.90462 0.194951,-0.21751 1.853812,-2.07789 3.686356,-4.13419 z M 278.95865,168.70808 c 0,-13.38766 -0.0889,-19.81048 -0.27247,-19.69616 -0.14986,0.0933 -0.19154,0.30154 -0.0926,0.46277 0.0998,0.16265 0.0565,0.21638 -0.0971,0.1207 -0.15233,-0.0948 -0.67219,0.0262 -1.15527,0.26895 -0.82357,0.41387 -0.84746,0.46409 -0.38347,0.80586 0.27216,0.20047 0.37527,0.36449 0.22913,0.36449 -0.14615,0 -0.39309,-0.12829 -0.54874,-0.28509 -0.19861,-0.20006 -0.67431,-0.0431 -1.59518,0.52641 -0.72171,0.44633 -1.88524,1.14081 -2.58564,1.54331 -0.70042,0.40249 -1.27347,0.82085 -1.27347,0.92967 0,0.10883 -0.30655,0.27537 -0.68121,0.3701 -0.41208,0.10418 -0.60756,0.29229 -0.49478,0.47611 0.11378,0.18544 0.0658,0.22877 -0.12309,0.11117 -0.47544,-0.29599 -0.98453,0.11805 -0.53922,0.43855 0.27285,0.19635 0.24165,0.22191 -0.12484,0.10223 -0.61785,-0.20174 -1.59744,0.30752 -1.35419,0.70401 0.10682,0.1741 0.0609,0.22221 -0.11042,0.11557 -0.35693,-0.22221 -2.01093,0.74212 -1.74037,1.01468 0.10557,0.10634 -0.0353,0.1055 -0.31304,-0.002 -0.37846,-0.14629 -0.45,-0.10558 -0.28552,0.16249 0.14469,0.23585 0.11575,0.29314 -0.0849,0.16818 -0.16742,-0.10423 -1.12106,0.34492 -2.11918,0.9981 -0.99814,0.65318 -2.06901,1.32231 -2.37973,1.48696 -0.49605,0.26288 -0.54831,0.47358 -0.42862,1.72836 0.13819,1.4488 1.23486,3.5865 1.69345,3.301 0.12777,-0.0795 0.16085,0.043 0.0735,0.27221 -0.0935,0.24557 0.0179,0.48515 0.27118,0.58306 0.23648,0.0915 0.42995,0.31119 0.42995,0.48839 0,0.63168 0.59484,0.98563 1.05262,0.62635 0.3685,-0.28922 0.37717,-0.27354 0.0685,0.1238 -0.30477,0.39236 -0.21526,0.64135 0.65047,1.80948 0.91329,1.2323 1.03723,1.31309 1.37356,0.89537 0.32639,-0.40536 0.33483,-0.3868 0.072,0.15843 -0.25507,0.52932 -0.17371,0.78024 0.56911,1.75544 1.01519,1.33277 1.48672,1.85554 1.17136,1.29865 -0.14511,-0.25623 -0.11295,-0.31589 0.0991,-0.18388 0.17264,0.10748 0.23842,0.31843 0.14618,0.46878 -0.0922,0.15034 0.13235,0.59767 0.49907,0.99408 0.36673,0.39641 0.82179,1.02314 1.01127,1.39275 0.76537,1.49309 4.87633,6.74844 5.14705,6.57988 0.17343,-0.10796 0.20835,-0.0506 0.0883,0.14507 -0.23704,0.38637 0.5718,1.73202 0.91329,1.51942 0.13079,-0.0815 0.3172,-0.0187 0.41424,0.13954 0.12412,0.2023 0.28155,0.19971 0.53085,-0.009 0.25932,-0.2168 0.4079,-0.20912 0.55376,0.0286 0.12185,0.1986 0.0862,0.25449 -0.0917,0.14375 -0.16005,-0.0996 -0.36799,-0.0556 -0.4621,0.0977 -0.0941,0.15339 -0.28341,0.20897 -0.42067,0.1235 -0.32782,-0.20408 -0.31609,0.0569 0.032,0.71203 0.15486,0.29146 0.41479,0.44699 0.57763,0.34561 0.16318,-0.10156 0.22117,-0.0623 0.12918,0.0877 -0.0918,0.14961 0.0201,0.50259 0.24857,0.78442 0.37989,0.46854 0.40235,0.47074 0.26257,0.0257 -0.0928,-0.29551 -0.0445,-0.41918 0.12308,-0.31486 0.15176,0.0945 0.20797,0.38746 0.12492,0.65107 -0.0876,0.27813 0.0414,0.63695 0.30738,0.85498 0.40496,0.33191 0.43729,0.31898 0.27723,-0.11093 -0.11525,-0.30956 -0.0781,-0.42247 0.10213,-0.31027 0.15582,0.097 0.21437,0.35735 0.13011,0.57854 -0.14475,0.38001 0.008,0.89356 0.26652,0.89356 0.0651,0 0.11822,-8.93961 0.11822,-19.8658 z M 32.424493,186.95767 c 3.381854,-0.44792 6.256006,-0.81439 6.387001,-0.81439 0.130996,0 0.199165,-0.20387 0.151489,-0.45303 -0.06191,-0.32358 -2.261541,-1.274 -7.697915,-3.32614 l -7.611233,-2.87313 -0.780797,0.71838 -0.780796,0.71838 0.349071,2.67529 c 0.320093,2.45319 0.399678,2.68252 0.958671,2.76242 0.33528,0.048 0.868589,0.44001 1.185132,0.87131 0.403233,0.5494 0.742435,0.7469 1.133041,0.65973 0.30663,-0.0684 3.324481,-0.49091 6.706336,-0.93882 z m 228.591597,0.60168 0.69034,-0.47084 -1.41782,-10.93768 c -0.77979,-6.01572 -1.45238,-11.17949 -1.49464,-11.47504 -0.0423,-0.29556 -0.3181,-0.57527 -0.61302,-0.62158 -1.40729,-0.22098 -2.5076,-1.57214 -2.11646,-2.59895 0.1783,-0.46806 -1.50471,-0.56784 -19.16238,-1.1362 -11.36014,-0.36566 -13.5397,-0.37647 -13.72889,-0.0681 -0.12369,0.2016 -0.1329,0.45923 -0.0205,0.5725 0.31701,0.31933 36.88744,27.1605 37.03894,27.18501 0.0738,0.012 0.4447,-0.19017 0.82439,-0.44912 z M 97.974419,186.12148 c 5.244331,-0.9032 13.678161,-2.36156 18.741881,-3.24079 5.0637,-0.87923 9.31641,-1.5986 9.45047,-1.5986 0.13406,0 0.24373,-0.34503 0.24373,-0.76671 0,-0.7256 -0.6324,-1.13828 -11.79508,-7.69688 -6.4873,-3.81159 -11.9034,-6.93018 -12.03576,-6.93018 -0.13237,0 -0.30417,0.16671 -0.38179,0.37048 -0.0776,0.20375 -0.69705,0.64156 -1.37651,0.97289 -1.144362,0.55805 -2.391661,0.64715 -3.572737,0.25524 -0.216641,-0.0719 -2.232847,3.33887 -5.520606,9.33906 l -5.179331,9.45232 0.560783,0.72773 c 0.308424,0.40026 0.733812,0.73447 0.945295,0.74269 0.211483,0.008 4.675332,-0.72404 9.919655,-1.62725 z m -13.789455,0.832 c 0.266889,-0.29708 0.811551,-0.54014 1.21037,-0.54014 0.675679,0 1.063596,-0.62136 5.690402,-9.11473 2.730917,-5.01309 5.104662,-9.38816 5.274995,-9.72238 0.901105,-1.76806 -0.903861,0.19633 -7.487019,8.14835 l -7.248733,8.756 0.176478,1.11174 c 0.129867,0.81809 0.361735,1.21315 0.877845,1.4957 0.914085,0.50042 0.937066,0.49836 1.505662,-0.13454 z m 115.435806,-7.89944 c 2.09825,-4.04762 4.70664,-9.05041 5.79643,-11.11732 1.94972,-3.69788 2.06712,-4.18934 1.00442,-4.20479 -0.15641,-0.002 -4.49449,2.34873 -9.64017,5.22446 -8.20916,4.58779 -9.3808,5.32283 -9.55994,5.99756 -0.18015,0.67854 0.19366,1.39743 3.17932,6.11417 l 3.38347,5.34522 h 1.01074 1.01074 z m -121.333922,5.46884 c 0.26689,-0.29707 0.707842,-0.54013 0.979897,-0.54013 0.272054,0 0.494645,-0.0511 0.494645,-0.11362 0,-0.24671 -4.29716,-42.44707 -4.359865,-42.81615 -0.03685,-0.21689 -0.428205,-0.48111 -0.869677,-0.58715 -0.441473,-0.10604 -1.047338,-0.2699 -1.34637,-0.36414 -0.612455,-0.19301 0.614611,-1.42069 -18.832171,18.84155 l -12.126219,12.63471 0.466809,0.71767 c 0.256747,0.39471 0.528307,1.32482 0.603471,2.06688 l 0.136661,1.34921 16.890212,4.6585 c 9.289617,2.56217 17.022321,4.66622 17.183783,4.67565 0.161465,0.009 0.511935,-0.22591 0.778824,-0.52298 z m -38.472151,-0.13503 c 0.183565,-0.22281 0.508076,-0.4051 0.72114,-0.4051 0.243967,0 0.335144,-0.17498 0.246275,-0.47262 -0.07762,-0.25994 -0.336702,-1.3537 -0.575755,-2.43059 -0.419443,-1.88953 -0.462306,-1.95798 -1.226055,-1.95798 -1.584963,0 -3.043347,-0.99267 -4.125429,-2.80801 -0.245119,-0.41123 -0.7275,-0.34996 -5.627979,0.71476 -4.047904,0.87949 -5.379794,1.26871 -5.441238,1.5901 -0.06276,0.3283 1.621657,1.07621 7.37062,3.27264 4.098587,1.5659 7.648333,2.85941 7.888324,2.87449 0.239989,0.0151 0.586532,-0.15489 0.770097,-0.37769 z m 47.729644,-7.56186 c 3.43727,-4.15901 6.710994,-8.12487 7.274949,-8.81302 l 1.025364,-1.25119 -0.701781,-1.26484 c -0.835546,-1.50592 -0.77938,-3.23644 0.145943,-4.49719 l 0.57348,-0.78136 -9.017416,-10.00936 c -4.959583,-5.50514 -8.961558,-10.06561 -8.893284,-10.13439 0.06828,-0.0688 1.061821,0.91537 2.207881,2.18699 1.146057,1.27163 2.139092,2.2563 2.206739,2.18814 0.06769,-0.0682 -0.809066,-1.20562 -1.948266,-2.52773 l -2.07127,-2.40385 -0.957925,0.49196 c -0.526857,0.27059 -1.128799,0.49196 -1.337649,0.49196 -0.285922,0 -0.343792,0.25019 -0.234266,1.01275 0.08,0.55702 1.085212,10.33266 2.233797,21.72366 1.970444,19.5417 2.119301,20.72519 2.636817,20.96406 0.301664,0.13925 0.561715,0.23789 0.577892,0.21922 0.01616,-0.0187 2.841726,-3.43678 6.278995,-7.59581 z m 39.587929,2.14728 c 0.22841,-0.2301 0.76427,-0.48867 1.19077,-0.5746 0.49983,-0.10064 0.82013,-0.35996 0.90116,-0.72942 0.41409,-1.88816 1.47593,-7.93895 1.47593,-8.41045 0,-0.90722 -0.62744,-2.02622 -1.20644,-2.1516 -0.29492,-0.0639 -2.82845,-0.3685 -5.63007,-0.67696 -2.80163,-0.30847 -8.59256,-0.97077 -12.86873,-1.47178 -4.27618,-0.50101 -7.78806,-0.89173 -7.80417,-0.86825 -0.0161,0.0235 -0.10368,0.35593 -0.19458,0.73877 -0.15922,0.67066 0.26302,0.94861 11.55755,7.60793 6.44755,3.80151 11.82192,6.92147 11.94304,6.93327 0.12112,0.0118 0.40711,-0.16682 0.63554,-0.39691 z m 15.23015,-7.68775 c 6.34053,-4.44977 11.51616,-8.21368 11.50142,-8.36425 -0.0148,-0.15056 -0.0449,-0.43861 -0.0671,-0.64011 -0.0309,-0.28168 -1.264,-0.0702 -5.33514,0.91479 -2.91223,0.70463 -7.67768,1.8534 -10.58991,2.55281 -5.03827,1.21003 -5.29494,1.30272 -5.29494,1.91228 0,0.4225 -0.24786,0.77145 -0.72796,1.02484 -0.69003,0.36419 -0.77186,0.62784 -1.57059,5.06006 l -0.84264,4.67585 0.56522,0.47593 c 0.31088,0.26177 0.62555,0.47647 0.69928,0.47713 0.0738,5.3e-4 5.32176,-3.63955 11.66229,-8.08933 z m -113.673815,5.40336 c 6.272019,-1.31534 5.910939,-1.17342 5.989893,-2.35439 0.03733,-0.55836 0.24859,-1.38013 0.469468,-1.82613 l 0.401594,-0.81092 -2.224034,-2.15207 c -1.223218,-1.18364 -3.370155,-3.256 -4.770971,-4.60526 -1.400815,-1.34925 -5.605752,-5.40214 -9.344303,-9.00643 -3.738552,-3.60428 -6.836515,-6.51381 -6.884363,-6.46561 -0.04785,0.0482 1.891436,6.04115 4.309521,13.31768 2.418084,7.27652 4.400086,13.24524 4.404451,13.26381 0.0044,0.0186 0.377705,0.10825 0.829649,0.19931 0.451944,0.091 1.085327,0.46751 1.407517,0.83657 0.322192,0.36906 0.76677,0.62058 0.987951,0.55892 0.221181,-0.0617 2.211813,-0.49163 4.423627,-0.95548 z m 169.249925,-8.77597 c 4.46748,-2.49571 8.02559,-4.63544 7.90695,-4.75497 -0.15922,-0.16037 -19.58403,3.71124 -23.80447,4.74453 -0.29491,0.0722 -0.75529,0.52308 -1.02306,1.00194 -0.47477,0.84908 -0.47371,0.88108 0.0428,1.29037 0.29131,0.23084 1.38441,1.13175 2.42912,2.00202 1.04471,0.87029 2.05092,1.52514 2.23604,1.45523 0.18511,-0.0699 0.57785,-0.0347 0.87277,0.0782 0.36935,0.1414 0.95328,-0.0257 1.87668,-0.53719 0.73727,-0.40834 4.99569,-2.78439 9.46316,-5.28008 z m -161.191184,2.98052 c 0.286228,-0.21792 1.095133,-0.47686 1.797567,-0.57542 1.001906,-0.14058 1.305742,-0.30256 1.409814,-0.75156 0.15637,-0.67465 2.58568,-11.52242 4.301308,-19.20692 0.663238,-2.97073 1.503639,-6.68592 1.867559,-8.256 0.733389,-3.16409 0.793901,-3.76194 0.380766,-3.76194 -0.154493,0 -0.572149,-0.31658 -0.928122,-0.70349 l -0.647224,-0.7035 -5.439218,1.89765 c -2.991571,1.04371 -10.264994,3.56528 -16.163164,5.6035 -5.898169,2.03821 -10.822913,3.79414 -10.943878,3.90208 -0.120963,0.10793 3.738446,4.0098 8.576463,8.67081 4.838018,4.66102 10.124696,9.77847 11.748174,11.37211 1.623478,1.59365 3.079524,2.90009 3.23566,2.90321 0.156134,0.003 0.518067,-0.17261 0.804295,-0.39053 z m 6.5541,-0.8866 c 0.638599,-0.70555 2.923114,-3.10576 5.076699,-5.33381 2.153585,-2.22804 7.288242,-7.57535 11.410352,-11.8829 4.122107,-4.30756 8.678234,-9.05886 10.124728,-10.55846 2.392402,-2.48024 2.588983,-2.76081 2.176067,-3.10576 -0.249655,-0.20856 -0.611173,-0.75817 -0.803375,-1.22134 l -0.349453,-0.84213 -2.625126,-0.167 c -1.443818,-0.0919 -5.701556,-0.29139 -9.46164,-0.44342 -3.760083,-0.15204 -7.388303,-0.3277 -8.062716,-0.39036 -1.193841,-0.11093 -1.235139,-0.089 -1.564833,0.8294 -0.205648,0.57289 -0.619019,1.0644 -1.052635,1.25162 -0.392703,0.16956 -0.740304,0.32029 -0.772446,0.33497 -0.05441,0.0248 -1.436089,6.10675 -5.061428,22.27942 -0.815766,3.63914 -1.637263,7.30249 -1.825549,8.14077 l -0.342334,1.52415 0.828839,0.41656 c 0.455862,0.22911 0.899697,0.42433 0.9863,0.43383 0.08661,0.009 0.67995,-0.55999 1.31855,-1.26554 z m 133.779734,-2.78045 c 0,-0.51577 1.30664,-1.60803 1.93153,-1.61462 0.5583,-0.006 0.89883,-0.7514 3.67002,-8.03447 1.68003,-4.41538 5.76231,-15.07669 9.07173,-23.6918 7.65568,-19.92934 7.32557,-19.03965 7.06461,-19.03965 -0.12219,0 -3.10274,3.24241 -6.62343,7.20535 -3.52069,3.96294 -9.16485,10.31287 -12.54255,14.11095 -16.70311,18.78185 -19.19402,21.61298 -19.19402,21.81563 0,0.12032 0.22657,0.36131 0.50349,0.53552 0.62614,0.39391 1.64111,2.45971 1.64187,3.34179 5.3e-4,0.6109 0.3752,0.79013 5.29494,2.53305 2.91191,1.03159 6.01824,2.14684 6.90297,2.47832 1.83793,0.68863 2.27884,0.75827 2.27884,0.35993 z m 16.63691,-2.14825 c 6.36447,-1.33683 11.61896,-2.4306 11.67666,-2.4306 0.0577,0 0.10488,-0.31318 0.10488,-0.69594 0,-0.77417 1.31283,-2.27479 1.99012,-2.27479 0.23253,0 0.42277,-0.12154 0.42277,-0.27008 0,-0.14855 -1.74939,-10.07646 -3.88754,-22.06203 -2.35396,-13.19532 -4.01881,-21.87367 -4.22031,-21.99911 -0.18303,-0.11396 -0.41041,-0.12109 -0.5053,-0.0158 -0.0949,0.10521 -0.83817,1.95347 -1.65173,4.10725 -0.81355,2.15378 -4.39441,11.51157 -7.95747,20.79509 -3.56306,9.28352 -7.20433,18.77744 -8.09174,21.09759 l -1.61344,4.21846 0.69288,0.69797 c 0.38109,0.38388 0.69289,0.82502 0.69289,0.98031 0,0.15528 0.1745,0.28234 0.38778,0.28234 0.21329,0 5.59508,-1.09376 11.95955,-2.43059 z m -62.84826,1.41184 c 0.32893,-0.2684 0.7098,-1.0663 0.89659,-1.87829 0.56812,-2.46966 1.38145,-2.35222 -12.80113,-1.84845 -12.43181,0.44158 -16.05801,0.65559 -15.35705,0.90635 0.21353,0.0763 6.24575,0.83606 13.40494,1.68818 7.15919,0.85211 13.07702,1.56044 13.15075,1.57406 0.0738,0.0136 0.39138,-0.18522 0.7059,-0.44185 z m 11.77631,-2.23099 c 11.31997,-2.71483 11.2064,-2.68509 11.01066,-2.88227 -0.0771,-0.0777 -4.5802,0.0734 -10.00686,0.3357 -8.87537,0.42903 -9.91487,0.52709 -10.34629,0.97609 -0.26379,0.27454 -0.57636,0.49916 -0.69461,0.49916 -0.11825,0 -0.36696,0.68407 -0.55271,1.52016 -0.31636,1.42399 -0.23669,1.81757 0.40207,1.98657 0.008,0.002 4.59309,-1.09366 10.18774,-2.43541 z m -24.6807,-1.74555 c 5.30836,-0.21558 10.45184,-0.39513 11.42995,-0.399 1.54614,-0.006 1.7966,-0.0772 1.91778,-0.54391 0.0766,-0.29529 0.42673,-0.64694 0.77795,-0.78146 0.57903,-0.22176 0.71054,-0.62096 1.41014,-4.28028 l 0.77154,-4.03573 -0.57989,-0.58414 c -0.31894,-0.32129 -0.57989,-0.77945 -0.57989,-1.01815 0,-0.307 -0.13729,-0.37737 -0.46917,-0.2405 -0.69787,0.28783 -19.88506,7.63849 -25.06722,9.60333 -3.54087,1.34253 -4.49065,1.80642 -4.49065,2.19332 0,0.44107 0.26431,0.49007 2.61396,0.48459 1.43767,-0.003 6.95715,-0.18248 12.2655,-0.39807 z m 26.27367,-1.11307 c 9.73991,-0.46494 10.05368,-0.51614 10.05368,-1.6407 0,-0.19472 -3.78672,-2.26016 -8.41495,-4.58986 l -8.41497,-4.23582 -0.63336,0.73825 c -0.36697,0.42774 -0.97004,0.77377 -1.43386,0.82271 l -0.80052,0.0845 -0.77985,3.96603 c -0.67131,3.41397 -0.73084,4.05832 -0.42766,4.62897 0.19839,0.3734 0.59585,0.6653 0.91012,0.66839 0.30685,0.003 4.78047,-0.1961 9.94137,-0.44245 z m -29.89299,-4.08395 c 5.82444,-2.22944 12.42971,-4.75512 14.6784,-5.61263 2.24867,-0.85751 4.0885,-1.68349 4.0885,-1.83551 0,-0.15203 0.1816,-0.47856 0.40357,-0.72562 0.36818,-0.40982 -0.74259,-1.55289 -12.66767,-13.03616 -8.21261,-7.90835 -13.16589,-12.49243 -13.32592,-12.33268 -0.14007,0.13985 -0.46473,0.25427 -0.72145,0.25427 -0.25671,0 -0.52474,0.0945 -0.59561,0.21004 -0.16579,0.27021 -6.38077,34.67846 -6.27939,34.76484 0.04195,0.0357 0.46624,0.26478 0.94285,0.50892 0.47662,0.24415 1.13773,0.81336 1.46915,1.26491 0.34282,0.46711 0.77825,0.77189 1.01012,0.70708 0.22415,-0.0627 5.173,-1.93803 10.99745,-4.16746 z m 100.33589,3.40206 c 3.67571,-0.73919 4.22256,-0.91567 4.22256,-1.36279 0,-0.67282 1.17104,-1.83941 1.84643,-1.83941 0.29167,0 0.59204,-0.21268 0.66748,-0.47261 0.35522,-1.22397 3.48386,-16.4867 3.49998,-17.07427 0.0115,-0.42167 -0.14934,-0.70163 -0.43663,-0.75972 -0.3384,-0.0684 -2.25638,2.62827 -7.48589,10.52517 -3.86701,5.83941 -7.08454,10.89057 -7.15008,11.22477 -0.15204,0.77535 -0.24033,0.77974 4.83615,-0.24114 z m 1.97686,-11.02375 7.13329,-10.79228 -0.82501,-0.83107 c -1.1266,-1.13486 -1.30917,-2.25756 -0.80018,-4.92068 0.0625,-0.32713 -2.96287,-3.0978 -10.21719,-9.35699 -8.61659,-7.43458 -10.39651,-8.85815 -10.858,-8.68417 -0.38733,0.14601 -0.52561,0.39953 -0.46361,0.84991 0.0796,0.57826 4.56212,25.92212 6.8383,38.66343 0.70668,3.95571 1.0181,5.15874 1.41349,5.46024 0.2789,0.2127 0.53827,0.39058 0.57636,0.39531 0.0381,0.005 3.27924,-4.84794 7.20255,-10.7837 z m 40.16861,10.38719 c -0.007,-0.14854 -6.22036,-5.08943 -13.80708,-10.97975 -13.45519,-10.44659 -13.80963,-10.69969 -14.42858,-10.30313 -0.34901,0.22361 -1.19295,0.48702 -1.87541,0.58536 l -1.24088,0.1788 -1.84816,8.85511 -1.84817,8.85511 0.70748,0.74386 c 0.3891,0.40912 0.70746,0.88912 0.70746,1.06667 0,0.17753 0.0905,0.33393 0.20108,0.34752 0.11059,0.0136 5.99199,0.24022 13.0698,0.50359 14.12996,0.5258 20.38293,0.57089 20.36246,0.14686 z M 97.647959,159.00243 c 0.04286,-0.0204 -4.848736,-21.58959 -5.956471,-26.26472 -0.08258,-0.34839 -0.347678,-0.60764 -0.621448,-0.60764 -0.262603,0 -0.616726,-0.14028 -0.786938,-0.31174 -0.233897,-0.23562 -1.551372,0.20508 -5.394918,1.8046 -5.080662,2.11436 -5.085603,2.11725 -5.263149,3.07059 -0.09774,0.52482 -0.353265,1.29621 -0.567832,1.71418 -0.214565,0.41798 -0.300126,0.90829 -0.190131,1.0896 0.109993,0.18131 4.047119,4.852 8.749172,10.37932 l 8.549196,10.04968 0.712249,-0.44811 c 0.391747,-0.24646 0.738362,-0.46055 0.77027,-0.47576 z m 171.571211,-4.86185 c 5.28299,-3.19345 9.52305,-5.80635 9.42238,-5.80642 -0.16029,-1.1e-4 -11.7284,-2.72164 -40.25934,-9.47146 -8.06646,-1.90835 -8.7537,-1.98333 -8.7537,-0.95489 0,0.17066 1.64121,1.58375 3.64712,3.14021 2.00592,1.55646 5.05219,3.92613 6.76949,5.26593 1.71731,1.3398 5.17332,4.00931 7.68004,5.93224 2.50673,1.92294 5.65649,4.37311 6.99948,5.44484 1.88217,1.50201 2.68094,1.97339 3.48527,2.05681 0.57393,0.0595 1.12456,0.12866 1.22365,0.15363 0.0991,0.025 4.50261,-2.56743 9.78561,-5.76089 z m -170.307876,4.5717 c 0.242844,-0.24463 0.421294,-0.88288 0.421294,-1.50685 0,-0.59535 0.121112,-2.19694 0.269143,-3.55908 1.176329,-10.82482 2.703319,-29.16263 2.449629,-29.41816 -0.20629,-0.20782 -1.59291,0.58185 -4.855012,2.7649 -3.90252,2.61163 -4.566222,3.15489 -4.566222,3.73754 0,0.37496 -0.163068,0.8736 -0.362372,1.1081 -0.378685,0.44557 -0.548968,-0.3691 4.562747,21.8291 0.692641,3.00787 1.349372,5.46884 1.459415,5.46884 0.110043,0 0.389659,-0.19097 0.621378,-0.42439 z m 56.051746,-0.0211 c 0,-0.16669 -2.87343,-3.40982 -6.38541,-7.20696 -6.01071,-6.49875 -6.42478,-6.88882 -7.05619,-6.647 -0.78516,0.3007 -1.81894,0.0945 -2.26976,-0.45266 -0.26141,-0.31729 -0.57612,0.003 -1.77588,1.80833 -1.41722,2.13236 -1.44308,2.20459 -0.92095,2.57297 0.29545,0.20848 0.6104,0.71309 0.69987,1.12138 0.14541,0.66356 1.05107,1.19269 8.53336,4.98557 4.60388,2.33378 8.55164,4.21583 8.77282,4.18233 0.22118,-0.0335 0.40214,-0.19727 0.40214,-0.36396 z m 1.60613,-0.78617 c 0.57792,-0.24325 1.54145,-0.38599 2.2786,-0.33758 l 1.27725,0.0839 19.19073,-21.60529 c 10.55491,-11.8829 19.07073,-21.64728 18.92404,-21.69862 -0.14668,-0.0513 -12.7914,5.9514 -28.09936,13.33942 l -27.83266,13.43278 0.38597,0.77936 c 0.29873,0.6032 0.32072,0.96787 0.0973,1.61341 -0.26825,0.77517 -0.20838,0.92632 0.84781,2.14045 2.14727,2.46833 11.59237,12.62862 11.76061,12.65113 0.0926,0.0123 0.61895,-0.16713 1.1697,-0.39894 z m -55.07972,-9.84105 c 0.89611,-4.97596 2.22374,-12.37222 2.95029,-16.43612 l 1.32098,-7.38893 -0.80118,-0.75389 c -0.94282,-0.88719 -1.02701,-1.79553 -0.25774,-2.78069 l 0.54344,-0.69594 -4.49602,-9.06286 c -3.913663,-7.88895 -4.574417,-9.06287 -5.101123,-9.06287 -0.332794,0 -0.605084,0.144 -0.605084,0.32001 0,0.26736 2.928113,8.19745 6.415777,17.37556 0.6859,1.80502 0.97656,2.24987 1.74107,2.6646 1.01874,0.55265 1.02524,1.0177 0.0268,1.92029 -0.56861,0.51405 -0.66512,1.2704 -1.99854,15.66383 -1.696974,18.31759 -1.660354,17.88866 -1.498634,17.55429 0.07184,-0.14854 0.863794,-4.34131 1.759914,-9.31728 z m -16.780395,-1.09469 c -1.13261,-1.34477 -2.120301,-2.38358 -2.194858,-2.30846 -0.12656,0.12747 3.907667,4.75348 4.145404,4.75348 0.05978,0 -0.817935,-1.10026 -1.950546,-2.44502 z m 52.496035,-0.89302 c 1.12025,-1.69569 1.51216,-2.54494 1.57426,-3.41126 l 0.0827,-1.15349 -14.87192,-8.88952 c -17.00225,-10.1629 -15.81026,-9.46213 -15.81026,-9.29469 0,0.0706 5.8069,5.72603 12.90421,12.56758 11.55109,11.1348 12.99467,12.43916 13.76683,12.43916 0.7837,0 0.99909,-0.20658 2.3542,-2.25778 z m 141.65077,-38.9858 c -0.0584,-0.0588 -1.95932,0.91587 -4.22425,2.16601 -4.54681,2.50962 -16.66617,9.19079 -29.85553,16.45875 -4.71854,2.60015 -9.86216,5.43747 -11.43027,6.30517 l -2.85112,1.57762 0.0449,1.47022 0.0449,1.47023 10.04488,2.38755 c 5.52468,1.31315 13.42291,3.17931 17.55163,4.14701 4.12872,0.96772 10.46255,2.45787 14.07518,3.31148 l 6.56841,1.552 0.0687,-20.36953 c 0.0378,-11.20325 0.021,-20.41768 -0.0375,-20.47651 z M 22.97029,144.1257 c 5.799249,-2.01749 13.077134,-4.55122 16.173078,-5.63049 l 5.628988,-1.9623 0.374874,-0.99218 c 0.20618,-0.5457 0.327314,-1.0336 0.269181,-1.08421 -1.043574,-0.90863 -15.656208,-10.42844 -16.007354,-10.42844 -0.271115,0 -0.737696,0.27345 -1.036846,0.60765 -0.299151,0.33422 -3.661278,5.10425 -7.471393,10.6001 -3.810115,5.49584 -7.337679,10.56971 -7.839029,11.27525 -0.501351,0.70555 -0.849456,1.28281 -0.773568,1.28281 0.07588,0 4.88282,-1.65068 10.682069,-3.66819 z m -2.496969,-8.96994 7.556569,-10.8827 -0.810061,-0.68663 c -0.626611,-0.53112 -0.811297,-0.91054 -0.815514,-1.67536 -0.0052,-0.93836 -0.355697,-1.32589 -6.879169,-7.60536 -3.780543,-3.63914 -7.035488,-6.71381 -7.23321,-6.83259 -0.29929,-0.1798 -0.359494,3.13927 -0.359494,19.81876 0,19.49097 0.01336,20.01724 0.492155,19.39066 0.270685,-0.35424 3.892612,-5.5413 8.048724,-11.52678 z m 119.193579,5.91018 c 0.14358,-0.23404 -1.90577,-33.04101 -2.13617,-34.19695 -0.0664,-0.33311 -0.47898,-0.68456 -1.0462,-0.89117 -0.93593,-0.34092 -0.94406,-0.33692 -12.27475,6.05178 -6.23602,3.5161 -12.33711,6.95537 -13.558,7.64282 l -2.21979,1.2499 0.075,1.07852 0.075,1.07851 15.28162,9.1154 c 8.40488,5.01346 15.36498,9.11587 15.46687,9.11648 0.10189,5.4e-4 0.25327,-0.10978 0.33641,-0.24529 z m 9.13448,-6.57319 c 4.13124,-3.45325 14.56663,-12.17283 23.18974,-19.37685 l 15.6784,-13.0982 -1.74187,-0.084 c -0.95802,-0.0462 -6.68828,-0.0347 -12.7339,0.0256 -10.43584,0.10409 -11.56165,0.16598 -22.24925,1.22294 -8.12205,0.80323 -11.28902,1.20977 -11.37141,1.45971 -0.0628,0.19054 -0.47569,0.68695 -0.9175,1.10313 l -0.80331,0.75671 0.99689,15.31223 c 1.32317,20.32381 1.18803,18.95819 1.87613,18.95771 0.3423,-2.3e-4 3.52325,-2.47337 8.07608,-6.27903 z m -0.58261,3.40591 c 3.26699,-1.58044 7.38771,-3.57075 9.15716,-4.42292 1.76945,-0.85216 6.17297,-2.97702 9.7856,-4.72192 3.61263,-1.74489 7.53358,-3.63353 8.7132,-4.19697 1.17964,-0.56344 6.66636,-3.21317 12.19271,-5.88829 l 10.04793,-4.86387 0.0924,-0.89727 c 0.0508,-0.4935 0.10905,-1.14033 0.12944,-1.4374 0.0204,-0.29708 -1.26731,-2.57576 -2.86154,-5.06375 l -2.89862,-4.52361 h -2.10375 -2.10375 l -4.77285,3.97012 c -2.62507,2.18356 -10.44314,8.7101 -17.37349,14.5034 -6.93035,5.79331 -15.07383,12.59165 -18.09664,15.10742 -6.15954,5.12636 -6.3677,5.30858 -6.06446,5.30858 0.11918,0 2.8897,-1.29309 6.15669,-2.87352 z m -77.152464,-2.68343 0.304922,-1.20972 -1.770113,-1.56878 c -0.973563,-0.86283 -5.660237,-4.92542 -10.414835,-9.02799 l -8.644721,-7.4592 -0.758513,0.43852 -0.758512,0.43852 -0.481691,8.58249 -0.48169,8.58249 0.635523,0.80974 c 0.525564,0.66964 0.844264,0.81606 1.841966,0.84631 0.663544,0.0201 5.428997,0.24438 10.589895,0.49839 5.160898,0.25402 9.439565,0.42071 9.508149,0.3704 0.06858,-0.0503 0.261914,-0.63582 0.42962,-1.30117 z m 13.995768,-2.0049 c 4.144624,-1.72607 4.909544,-2.13468 5.174275,-2.76406 0.291279,-0.69252 0.111188,-1.05455 -2.888433,-5.80642 L 84.14883,119.572 h -1.012749 c -0.557014,0 -1.056472,0.0711 -1.109901,0.15813 -0.05343,0.087 -0.989,3.03175 -2.079045,6.54395 -1.910737,6.1565 -1.964222,6.40194 -1.489436,6.83477 0.27086,0.24692 0.640324,0.86082 0.821031,1.36422 0.180706,0.5034 0.461569,0.88097 0.624141,0.83901 0.162573,-0.042 2.484219,-0.98773 5.159203,-2.10175 z m -38.003216,0.81019 c 0.611727,0 0.670223,-0.41843 1.057129,-7.56184 0.156881,-2.89645 0.358169,-6.26891 0.447312,-7.49434 0.132963,-1.82789 0.09323,-2.22804 -0.221232,-2.22804 -0.210819,0 -0.653581,-0.25365 -0.983922,-0.56366 -0.33034,-0.31002 -0.759902,-0.5021 -0.954584,-0.42685 -0.19468,0.0752 -3.717289,1.61781 -7.828015,3.42789 -7.326222,3.22595 -8.795756,4.03759 -8.267924,4.56644 0.8524,0.85403 15.603397,10.51155 15.896345,10.40737 0.196377,-0.0698 0.58108,-0.12697 0.854891,-0.12697 z m 26.486993,-1.87653 c 0.341536,-0.17717 1.228768,-0.28964 1.971626,-0.24993 l 1.350652,0.0723 2.362807,-6.31797 2.362804,-6.31797 -0.514026,-0.65827 c -0.282715,-0.36205 -0.514028,-0.87944 -0.514028,-1.14975 0,-0.62157 -0.208031,-0.65333 -7.774859,-1.18723 -3.317721,-0.23411 -9.168973,-0.66374 -13.002783,-0.95477 -8.879469,-0.67402 -9.042706,-0.67468 -8.932925,-0.0363 0.04712,0.274 4.730479,4.51399 10.407467,9.42219 l 10.321797,8.92401 0.670246,-0.61206 c 0.368636,-0.33662 0.949685,-0.757 1.291222,-0.93418 z m 169.353529,-5.89645 c 6.34054,-3.48906 13.88082,-7.64637 16.75617,-9.23845 2.87536,-1.59209 6.19308,-3.42045 7.37271,-4.06302 1.17964,-0.64256 4.29841,-2.35345 6.9306,-3.80199 l 4.78581,-2.6337 -3.84746,-1.21545 c -2.11611,-0.6685 -5.23487,-1.6506 -6.9306,-2.18245 l -3.08313,-0.967 -9.64486,0.0711 -9.64486,0.0711 -4.98371,8.64211 c -2.74104,4.75317 -6.51207,11.2963 -8.38005,14.54031 l -3.39633,5.8982 0.69322,0.91554 c 0.60694,0.80158 0.76485,0.87769 1.26874,0.61144 0.31653,-0.16724 5.76323,-3.15878 12.10375,-6.64783 z m -164.117917,2.65087 c 0.524361,-1.70315 0.914055,-3.13624 0.865988,-3.18466 -0.12558,-0.1265 -2.303736,5.93416 -2.301128,6.40281 0.005,0.89566 0.533385,-0.28922 1.43514,-3.21815 z m 144.144587,3.23715 c 0,-0.14553 0.48406,-0.51334 1.0757,-0.8174 0.87558,-0.44996 1.0501,-0.66452 0.93802,-1.15326 -0.19226,-0.83845 -3.89042,-22.3708 -3.89042,-22.65181 0,-0.4389 -0.99325,-0.19255 -9.76392,2.42164 -9.38949,2.79863 -8.85279,2.54403 -9.06426,4.29997 -0.0595,0.49414 1.77791,2.20284 10.09187,9.38479 5.59055,4.82935 10.26552,8.78064 10.38882,8.78064 0.1233,0 0.22419,-0.11906 0.22419,-0.26457 z m 13.87727,-15.35722 c 4.6062,-7.99784 8.3749,-14.61043 8.3749,-14.69463 0,-0.0842 -2.25985,-0.15544 -5.02189,-0.15831 l -5.02189,-0.005 -6.70743,2.43821 c -3.68907,1.34101 -6.79356,2.5192 -6.89886,2.61819 -0.1053,0.099 0.70905,5.39901 1.80967,11.77779 1.10061,6.37879 2.00111,11.69401 2.00111,11.81158 0,0.11758 0.45242,0.21565 1.00537,0.21793 0.55296,0.002 1.18634,0.12193 1.40752,0.26593 0.22118,0.14398 0.46389,0.26365 0.53937,0.26593 0.0755,0.002 3.90594,-6.53956 8.51213,-14.53739 z m -139.682543,9.89684 c 2.396131,-1.60878 4.356603,-3.09821 4.356603,-3.30986 0,-0.2488 -0.82912,-0.63954 -2.345869,-1.10554 -1.859917,-0.57145 -11.809069,-3.69112 -13.76229,-4.31534 -0.272989,-0.0873 -0.536585,0.11243 -0.738898,0.55973 -0.291776,0.64508 -0.07691,1.07366 2.97132,5.9268 2.667759,4.24739 3.411916,5.24944 3.956081,5.32713 0.854302,0.12197 0.484169,0.32709 5.563053,-3.08292 z m 4.771403,-4.33834 c 0.0714,-0.18751 -1.56106,-4.82514 -3.627748,-10.30584 -2.066688,-5.48072 -3.757619,-10.00619 -3.757619,-10.05664 0,-0.0504 -1.917229,-0.0917 -4.260514,-0.0917 -4.201601,0 -4.262621,0.008 -4.412739,0.61099 -0.269058,1.07987 -2.586889,12.39654 -2.586889,12.63032 0,0.12408 0.229651,0.29903 0.510331,0.38876 0.28068,0.0897 0.705501,0.57749 0.944048,1.08388 0.387836,0.8233 0.667138,0.99296 2.639834,1.60361 1.213359,0.3756 4.860277,1.5279 8.104272,2.56069 3.243995,1.03277 5.992444,1.88656 6.107664,1.8973 0.11522,0.0107 0.26793,-0.13386 0.33936,-0.32137 z m -63.236859,-3.60083 c 4.250285,-1.87089 7.741165,-3.42039 7.757508,-3.44335 0.01635,-0.023 0.106079,-0.54452 0.199412,-1.15907 l 0.169693,-1.11733 -2.316565,-1.6645 c -1.274112,-0.91549 -2.449646,-1.59283 -2.612299,-1.50522 -0.162654,0.0876 -0.597343,0.33489 -0.965979,0.54952 -0.37498,0.21831 -1.024563,0.33187 -1.474542,0.25779 -0.774469,-0.12751 -0.950937,0.0664 -4.75875,5.22994 -3.369682,4.5694 -4.404064,6.25384 -3.840362,6.25384 0.06275,0 3.591597,-1.53073 7.841884,-3.40162 z m -3.987379,-3.42573 3.759514,-5.07191 -0.445798,-1.06934 c -0.364377,-0.87404 -0.579699,-1.06985 -1.178924,-1.0721 -0.403219,-0.001 -5.936208,-0.31286 -12.295531,-0.69189 -6.359323,-0.37903 -11.704034,-0.65247 -11.877137,-0.60765 -0.277167,0.0718 5.794023,6.07199 11.91931,11.77997 2.046139,1.90674 2.14161,1.96123 2.720375,1.55288 0.811538,-0.57259 1.896606,-0.53276 2.662621,0.0978 0.348108,0.28654 0.710127,0.43844 0.80449,0.33758 0.09436,-0.10085 1.863347,-2.46574 3.93108,-5.25529 z m 78.570178,2.55016 c 2.60002,-1.46123 8.65288,-4.87033 13.45076,-7.57579 l 8.72345,-4.91899 -0.0497,-1.25737 c -0.0927,-2.34787 0.73199,-2.22563 -15.01404,-2.22563 h -13.77738 l 5.4e-4,8.84467 5.4e-4,8.84467 0.73679,0.44792 c 0.40523,0.24635 0.84141,0.45903 0.96929,0.47262 0.12786,0.0136 2.35979,-1.17087 4.95982,-2.6321 z m -6.99836,-7.02837 -0.0706,-8.81437 -4.41334,-0.0745 c -2.427337,-0.0409 -4.559351,-0.0181 -4.737821,0.0509 -0.210977,0.0816 1.227119,3.24149 4.110981,9.03304 3.1914,6.40921 4.54007,8.86716 4.80846,8.76342 0.3101,-0.11988 0.3611,-1.63087 0.30237,-8.95856 z m -25.017383,5.10912 c 0.259434,-0.28877 0.729778,-0.56221 1.045216,-0.60765 0.523413,-0.0754 0.692227,-0.65521 1.932509,-6.63729 0.747451,-3.60508 1.301171,-6.61294 1.230494,-6.68414 -0.07063,-0.0711 -4.162991,-0.12945 -9.094032,-0.12945 h -8.965528 l -8.081074,5.56836 c -4.444589,3.0626 -8.227517,5.70587 -8.406502,5.87395 -0.952043,0.89398 -0.0681,1.0315 13.230237,2.05843 16.031924,1.23802 16.484319,1.25277 17.10868,0.55779 z m -22.908875,-8.20496 c 4.054991,-2.81058 7.523516,-5.16889 7.707834,-5.24069 1.164001,-0.4534 -0.38208,-0.61288 -5.941757,-0.61288 h -6.276876 l -0.680363,1.82295 c -2.954822,7.91709 -3.299036,8.96129 -3.040056,9.22217 0.334647,0.3371 -0.553564,0.89731 8.231218,-5.19155 z m -10.092267,3.62119 c -0.09907,-0.53221 -0.559833,-2.85138 -1.02392,-5.15369 l -0.843794,-4.18603 h -2.80024 -2.800238 l -0.07836,2.09615 c -0.07392,1.97732 -0.03821,2.13092 0.629831,2.70977 0.459904,0.3985 0.733284,0.93496 0.779765,1.53015 0.06416,0.82163 0.332031,1.1027 2.58735,2.71487 2.169349,1.5507 2.59936,1.76103 3.122753,1.5274 0.524753,-0.23424 0.582576,-0.40203 0.426851,-1.23862 z m 3.082984,-3.60498 c 2.420898,-6.61298 2.586009,-5.86978 -1.304032,-5.86978 h -3.28195 l 0.145577,0.74269 c 0.08007,0.40847 0.543855,2.7783 1.030635,5.26628 0.684767,3.4999 0.977936,4.52267 1.295456,4.51945 0.285538,-0.003 0.928774,-1.42019 2.114314,-4.65864 z m 160.062661,0.42445 c 4.92272,-2.03739 8.84366,-3.73631 8.71321,-3.77538 -0.13045,-0.0391 -3.49797,-0.6218 -7.48339,-1.29494 -7.11506,-1.20175 -7.35648,-1.22391 -13.33791,-1.22391 -3.35043,0 -6.09169,0.0574 -6.09169,0.1274 0,0.1059 5.54561,9.03232 5.75593,9.26496 0.0373,0.0412 0.37214,-0.0414 0.74403,-0.18388 0.51159,-0.19594 0.89584,-0.14011 1.57875,0.2294 0.49643,0.26862 0.96291,0.50466 1.03664,0.52454 0.0738,0.0199 4.16173,-1.63079 9.08443,-3.66819 z m 7.47066,-0.87071 1.94371,-0.58519 v -1.03856 -1.03856 l -4.49065,1.88138 c -2.46985,1.03477 -5.9987,2.4889 -7.84188,3.23143 -1.84318,0.74251 -3.44777,1.44393 -3.56574,1.55871 -0.18032,0.17543 4.97336,-1.30525 13.95456,-4.00921 z M 38.306307,107.16309 c 0.421108,-0.64741 0.390869,-0.70882 -1.467844,-2.98069 l -1.897812,-2.31965 -8.219896,0.0235 -8.219898,0.0235 -3.01266,2.06043 c -1.656963,1.13324 -2.948561,2.125 -2.870216,2.20392 0.105828,0.10661 17.335477,1.23879 24.551921,1.61334 0.479197,0.0249 0.844745,-0.17597 1.136405,-0.62436 z m 1.469835,-0.92965 c 0.245929,-0.15697 0.376068,-0.87665 0.402148,-2.22391 l 0.03856,-1.99183 -2.226853,-0.0454 c -1.326726,-0.0271 -2.192107,0.0595 -2.140894,0.21431 0.120903,0.36538 3.258602,4.28812 3.425925,4.28308 0.07564,-0.002 0.301142,-0.10856 0.501119,-0.2362 z m 187.771438,-1.94189 c 3.05795,-1.10209 5.56131,-2.0806 5.56306,-2.1745 0.009,-0.5005 -2.80873,-0.0777 -7.03309,1.0553 l -4.75742,1.27595 -0.001,1.04163 c -8e-4,0.71669 0.1032,1.00479 0.33378,0.92352 0.18432,-0.0649 2.83707,-1.01982 5.89501,-2.1219 z M 14.630803,104.11071 c 1.45914,-1.00262 2.655373,-1.90384 2.658296,-2.00271 0.0029,-0.0989 -1.23129,-0.15963 -2.742696,-0.13503 l -2.748011,0.0447 -0.01947,1.95798 c -0.01071,1.0769 0.02966,1.95798 0.08972,1.95798 0.06006,0 1.303035,-0.82032 2.762175,-1.82295 z m 263.718737,-0.0675 -0.54744,-1.89046 -5.65502,0.0132 -5.65501,0.0132 5.76412,1.84639 c 3.17027,1.01552 5.96137,1.86031 6.20246,1.87732 0.39439,0.0279 0.38344,-0.15871 -0.10911,-1.85955 z m -129.28465,-0.94803 c 4.27615,-0.37868 8.25743,-0.79183 8.84724,-0.9181 0.6666,-0.14271 -2.81531,-0.24185 -9.20182,-0.26201 l -10.27424,-0.0325 0.55566,0.71159 c 0.30561,0.39136 0.55565,0.88299 0.55565,1.0925 0,0.27883 0.23352,0.34287 0.87133,0.23894 0.47922,-0.0781 4.37,-0.4518 8.64618,-0.83049 z m 72.34843,0.0702 c 0.20103,-0.48274 0.3149,-0.96885 0.25305,-1.08026 -0.0618,-0.11141 -2.90028,-0.20255 -6.3076,-0.20255 -3.40731,0 -6.11944,0.0763 -6.02694,0.16941 0.18852,0.18991 9.83098,1.9111 10.97948,1.95985 0.5905,0.0251 0.80896,-0.14272 1.10201,-0.84645 z m 57.43019,-0.94869 c -0.3171,-0.31942 -0.41769,0.15195 -0.22205,1.04059 l 0.20272,0.92085 0.0861,-0.90368 c 0.0474,-0.49702 0.0173,-0.97302 -0.0668,-1.05776 z m -55.2994,0.74614 c 0.83466,-0.37134 1.51963,-0.7663 1.52215,-0.87771 0.002,-0.11141 -0.59555,-0.20255 -1.32904,-0.20255 -1.20564,0 -1.37286,0.0764 -1.74264,0.79679 -0.22497,0.43822 -0.40903,0.87371 -0.40903,0.96773 0,0.19404 -0.0727,0.21944 1.95856,-0.68426 z m 4.65486,-0.90054 c 0.41636,-0.41941 -1.9286,0.0289 -3.19516,0.61077 -0.70041,0.32181 -1.27347,0.62041 -1.27347,0.66355 0,0.15431 4.25495,-1.05907 4.46863,-1.27432 z m -91.86877,0.0614 c 0,-0.13265 -0.30161,-0.24118 -0.67025,-0.24118 -0.69673,0 -0.91956,0.40751 -0.33512,0.61288 0.43114,0.1515 1.00537,-0.0608 1.00537,-0.3717 z M 24.734151,274.52252 c 4.755398,-0.0413 12.536961,-0.0413 17.292359,0 4.7554,0.0413 0.864619,0.0751 -8.646179,0.0751 -9.510799,0 -13.40158,-0.0338 -8.64618,-0.0751 z"
       style="fill:url(#linearGradient1187);stroke-width:0.26908052;fill-opacity:1" />
  </g>
</svg>
