<?xml version="1.0" encoding="UTF-8" standalone="no"?>
<svg
   xmlns:dc="http://purl.org/dc/elements/1.1/"
   xmlns:cc="http://creativecommons.org/ns#"
   xmlns:rdf="http://www.w3.org/1999/02/22-rdf-syntax-ns#"
   xmlns:svg="http://www.w3.org/2000/svg"
   xmlns="http://www.w3.org/2000/svg"
   viewBox="0 0 479.08353 479.91312"
   height="479.91312"
   width="479.08353"
   id="svg4555"
   version="1.1">
  <metadata
     id="metadata4561">
    <rdf:RDF>
      <cc:Work
         rdf:about="">
        <dc:format>image/svg+xml</dc:format>
        <dc:type
           rdf:resource="http://purl.org/dc/dcmitype/StillImage" />
        <dc:title></dc:title>
      </cc:Work>
    </rdf:RDF>
  </metadata>
  <defs
     id="defs4559" />
  <path
     id="path4565"
     d="m 143.50032,474.16312 c -0.0139,-11.44852 -5.93939,-29.18396 -13.26137,-39.69262 -1.17164,-1.68156 -5.30306,-6.36205 -9.18093,-10.4011 l -7.05069,-7.34372 5,0.71246 c 7.87206,1.1217 22.37102,6.11116 29.69682,10.21944 8.64926,4.85046 16.92545,12.05761 22.42526,19.52858 l 4.37792,5.94698 v -74.61001 -74.61001 h 32 32 v 74.65004 74.65004 l 3.1217,-4.40004 c 6.89567,-9.71945 15.97094,-17.39149 27.3783,-23.14502 6.21069,-3.13249 19.35665,-7.32231 26,-8.2866 l 5,-0.72576 -7.05069,7.37867 c -3.87787,4.05827 -8.00929,8.75449 -9.18093,10.43605 -7.32198,10.50866 -13.24742,28.2441 -13.26137,39.69262 l -0.007,5.75 h -28.6437 -28.6437 l 0.55068,-12.75 c 0.91877,-21.27249 6.34832,-40.91357 14.81912,-53.60729 l 3.9087,-5.85729 -2.74555,0.65361 c -9.18366,2.18629 -21.53393,11.20357 -29.24818,21.35491 -6.80808,8.9589 -15.33104,26.51751 -18.54524,38.20606 -1.43681,5.225 -2.7872,10.0625 -3.00087,10.75 -0.29197,0.93942 -4.86863,1.25 -18.41988,1.25 h -18.03138 l -0.007,-5.75 z M 25.639072,286.84566 C 18.703428,285.46651 12.900833,282.14465 8.0998826,276.80484 -0.43049735,267.317 0.00733265,272.77553 0.00733265,175.91312 c 0,-98.709697 -0.61502,-92.044987 9.41999995,-102.080007 10.3547094,-10.35471 -7.8612,-9.42 183.5799974,-9.42 h 167 l 5.52201,2.5903 c 8.14926,3.82271 111.44259,100.311127 112.85267,105.417997 2.1392,7.74756 2.99876,6.79296 -54.17258,60.16176 -41.94109,39.15152 -54.36626,50.21032 -58.7021,52.24675 l -5.5,2.5832 -165,0.15058 c -90.75,0.0828 -166.965715,-0.2403 -169.368258,-0.71804 z M 382.57993,210.43258 c 19.48507,-16.2143 36.1024,-30.6143 36.9274,-32 1.33333,-2.23952 1.33333,-2.79775 0,-5.02403 -0.825,-1.37752 -17.40826,-15.77752 -36.85169,-32 L 347.30395,111.91312 H 198.60564 c -114.320911,0 -148.975734,0.27743 -149.898307,1.2 -1.733744,1.73374 -1.733744,123.86626 0,125.6 0.922568,0.92257 35.560576,1.2 149.822597,1.2 h 148.6226 z M 175.67791,29.663113 c 0.36945,-20.4676701 1.0585,-22.8499601 7.82942,-27.0690711 3.19916,-1.99346699 5.05627,-2.20907299 21.60561,-2.50835199 20.63709,-0.373203 24.53957,0.318523 29.25725,5.18593299 4.37523,4.51409 5.08504,8.2471001 5.11328,26.8914901 l 0.0239,15.75 h -32.07946 -32.07942 z"
     style="fill:#ffffff" />
</svg>
