<?xml version="1.0" encoding="UTF-8" standalone="no"?>
<svg
   xmlns:dc="http://purl.org/dc/elements/1.1/"
   xmlns:cc="http://creativecommons.org/ns#"
   xmlns:rdf="http://www.w3.org/1999/02/22-rdf-syntax-ns#"
   xmlns:svg="http://www.w3.org/2000/svg"
   xmlns="http://www.w3.org/2000/svg"
   id="svg3750"
   version="1.1"
   viewBox="0 0 45.728355 58.068535"
   height="58.068535mm"
   width="45.728355mm">
  <defs
     id="defs3744" />
  <metadata
     id="metadata3747">
    <rdf:RDF>
      <cc:Work
         rdf:about="">
        <dc:format>image/svg+xml</dc:format>
        <dc:type
           rdf:resource="http://purl.org/dc/dcmitype/StillImage" />
        <dc:title></dc:title>
      </cc:Work>
    </rdf:RDF>
  </metadata>
  <g
     transform="translate(-162.36424,-180.59801)"
     id="layer1">
    <path
       id="path4306"
       d="m 174.86404,238.4394 c -3.29384,-0.65166 -6.30752,-3.57138 -7.34364,-7.11467 -0.49369,-1.68831 -0.52383,-2.68398 -0.13599,-4.49239 0.28829,-1.34426 2.1276,-4.52156 2.61749,-4.52156 0.14709,0 0.9661,0.73417 1.82002,1.63149 l 1.5526,1.6315 -0.60097,0.88557 c -1.56039,2.29937 -0.71083,5.55753 1.82,6.97994 0.81423,0.45762 1.3307,0.55091 2.55837,0.46211 2.54572,-0.18414 4.0963,-1.73597 4.41388,-4.41745 0.24854,-2.09847 -0.38085,-3.03588 -6.42794,-9.57389 -3.03828,-3.28493 -6.91198,-7.47495 -8.60822,-9.31116 -3.77642,-4.08802 -4.28877,-5.15879 -4.14421,-8.66103 0.0714,-1.72879 0.25063,-2.58554 0.7751,-3.70417 1.25242,-2.67127 2.15835,-3.31755 12.80319,-9.13369 1.89177,-1.03363 5.64224,-3.11056 8.33437,-4.61542 5.70911,-3.19128 6.57673,-3.59321 8.27535,-3.83364 1.48329,-0.20994 3.85309,0.22294 5.33128,0.97384 1.72295,0.87525 3.71406,2.96502 4.55062,4.77612 0.66324,1.43586 0.75917,1.95077 0.75038,4.02758 -0.009,2.09448 -0.10447,2.57207 -0.79375,3.96572 -0.75457,1.52563 -0.88859,1.64354 -3.60882,3.175 -1.55384,0.8748 -2.9078,1.6745 -3.00882,1.77713 -0.10101,0.10262 1.83539,2.32162 4.30311,4.93111 7.22394,7.63896 8.16993,9.1949 7.97211,13.11241 -0.12217,2.41927 -1.29827,4.95376 -2.98956,6.4425 -0.63749,0.56114 -3.28226,2.19225 -5.87726,3.62469 -2.595,1.43243 -6.02787,3.34437 -7.6286,4.24875 -12.40952,7.01112 -13.36377,7.39566 -16.71009,6.73361 z m 13.4985,-10.13343 c 12.23119,-6.65726 13.99745,-7.77981 14.85737,-9.44272 1.23979,-2.39749 -0.10578,-4.56016 -8.03152,-12.90863 -1.98784,-2.09387 -3.65394,-3.91375 -3.70245,-4.04419 -0.0485,-0.13043 -0.23366,-0.23715 -0.41146,-0.23715 -0.1778,0 -3.1742,1.59033 -6.65868,3.53407 l -6.33542,3.53407 -1.30766,-1.27301 -1.30767,-1.27302 0.63043,-1.34598 c 1.18544,-2.53097 0.57764,-5.18599 -1.51554,-6.62026 -0.78451,-0.53756 -1.27844,-0.65692 -2.71847,-0.65692 -1.52935,0 -1.88995,0.0993 -2.7539,0.75826 -2.50836,1.91322 -2.87919,4.75049 -0.93984,7.19084 0.44096,0.55488 2.97076,3.32742 5.62178,6.16119 2.65102,2.83378 4.9392,5.28308 5.08484,5.44289 5.96754,6.54832 6.99437,8.04969 7.39176,10.80776 0.0996,0.69123 0.24661,1.25677 0.3267,1.25677 0.0801,0 0.87647,-0.39779 1.76973,-0.88397 z m -5.15739,-27.51656 c 0.8194,-0.48613 4.49234,-2.53996 8.16208,-4.56406 7.40021,-4.08171 7.37331,-4.05703 7.16468,-6.57287 -0.14963,-1.80437 -1.13162,-3.17688 -2.80142,-3.91551 -2.21341,-0.9791 -2.83015,-0.76234 -11.05503,3.88528 -4.06385,2.29636 -7.48315,4.26159 -7.59843,4.36719 -0.11528,0.1056 0.18238,0.46126 0.66146,0.79037 1.71691,1.17944 3.64919,4.54589 3.64919,6.35769 0,0.70212 0.0698,0.68875 1.81747,-0.34809 z"
       style="fill:#ffffff;stroke-width:0.26458332" />
  </g>
</svg>
