<?xml version="1.0" encoding="UTF-8" standalone="no"?>
<svg
   xmlns:dc="http://purl.org/dc/elements/1.1/"
   xmlns:cc="http://creativecommons.org/ns#"
   xmlns:rdf="http://www.w3.org/1999/02/22-rdf-syntax-ns#"
   xmlns:svg="http://www.w3.org/2000/svg"
   xmlns="http://www.w3.org/2000/svg"
   xmlns:sodipodi="http://sodipodi.sourceforge.net/DTD/sodipodi-0.dtd"
   xmlns:inkscape="http://www.inkscape.org/namespaces/inkscape"
   version="1.1"
   id="svg1406"
   width="788.00006"
   height="717"
   viewBox="0 0 788.00006 717"
   sodipodi:docname="selectall.svg"
   inkscape:version="0.92.2 (5c3e80d, 2017-08-06)">
  <sodipodi:namedview
     pagecolor="#ffffff"
     bordercolor="#666666"
     borderopacity="1"
     objecttolerance="10"
     gridtolerance="10"
     guidetolerance="10"
     inkscape:pageopacity="0"
     inkscape:pageshadow="2"
     inkscape:window-width="1280"
     inkscape:window-height="741"
     id="namedview90"
     showgrid="false"
     inkscape:zoom="0.98"
     inkscape:cx="166.87605"
     inkscape:cy="22.3723"
     inkscape:window-x="0"
     inkscape:window-y="27"
     inkscape:window-maximized="1"
     inkscape:current-layer="svg1406" />
  <metadata
     id="metadata1412">
    <rdf:RDF>
      <cc:Work
         rdf:about="">
        <dc:format>image/svg+xml</dc:format>
        <dc:type
           rdf:resource="http://purl.org/dc/dcmitype/StillImage" />
        <dc:title />
      </cc:Work>
    </rdf:RDF>
  </metadata>
  <defs
     id="defs1410" />
  <path
     style="fill:#ffffff"
     d="M 0,684.5 V 668 h 68 88 V 358.5 49 h 18 32 V 32.5 0 H 293.5 361 V 32.5 49 H 293.5 206 V 358.5 668 h -32 -18 v 16.5 32.49997 H 68 0 Z m 207,0 V 668 h 87 67 v 16.5 32.49997 h -67 -87 z m 254,-30 V 592 H 385 309 V 358.5 125 h 76 76 V 62.5 0 h 163.50004 163.5 v 358.5 358.49997 h -163.5 H 461 Z m 89,-109.23762 c 24.10391,-6.34672 42.99224,-17.1795 58.81714,-33.73263 l 9.1829,-9.60544 V 520.96215 540 h 48.0444 48.0445 l -0.3701,-121.75 c -0.399,-131.25573 -0.3377,-129.6289 -5.8512,-155.15677 -13.0581,-60.46006 -45.3491,-87.52357 -114.8676,-96.27189 -16.32936,-2.05491 -68.95592,-1.74242 -86.00004,0.51066 -27.56048,3.64325 -51.62267,9.47245 -75.69486,18.3375 L 419,190.2011 v 41.39945 c 0,22.7697 0.19045,41.39945 0.42322,41.39945 0.23276,0 3.72026,-1.77513 7.75,-3.94473 19.87805,-10.70233 52.68412,-22.91565 72.32678,-26.92645 27.37694,-5.59004 60.41535,-6.91973 78.5,-3.15936 18.16574,3.77722 30.26934,12.045 36.31434,24.80577 3.0396,6.41652 3.2014,7.37795 3.5294,20.97477 l 0.3438,14.25 -43.34378,0.009 c -54.85157,0.0108 -73.98119,1.56823 -100.16589,8.15482 -52.80863,13.28367 -81.6848,42.65388 -89.80023,91.33663 -1.95489,11.72694 -1.66296,42.57267 0.51517,54.43343 9.90199,53.92026 46.17336,87.18954 103.60719,95.0319 3.575,0.48816 16.175,0.761 28,0.60632 20.25473,-0.26495 22.16608,-0.45662 33,-3.30927 z m -26.2791,-64.82912 c -18.15632,-4.39877 -31.40077,-17.58882 -36.21302,-36.06432 -1.9421,-7.45621 -1.93552,-24.92959 0.0125,-33.1927 5.4144,-22.96683 20.03536,-34.34923 50.97962,-39.68758 10.16745,-1.75403 41.36217,-3.43329 64.39494,-3.46648 l 15.395,-0.0222 -0.5933,17.25 c -1.2093,35.15656 -9.6318,58.53265 -27.6966,76.86932 -7.0266,7.13226 -9.97353,9.3276 -17.00004,12.66406 -4.675,2.21988 -11.73883,4.75175 -15.69741,5.62638 -8.79886,1.94408 -25.60579,1.95584 -33.58169,0.0235 z M 0,32.5 V 0 H 67.5 155 V 32.5 49 H 67.5 0 Z"
     id="path1416"
     inkscape:connector-curvature="0"
     sodipodi:nodetypes="ccccccccccccccccccccccccccccccccccccccccccccccccccccccccccssssscsscssccccssscscccsssccccccccccccccccc" />
</svg>
