<?xml version="1.0" encoding="UTF-8" standalone="no"?>
<!-- Created with Inkscape (http://www.inkscape.org/) -->

<svg
   xmlns:dc="http://purl.org/dc/elements/1.1/"
   xmlns:cc="http://creativecommons.org/ns#"
   xmlns:rdf="http://www.w3.org/1999/02/22-rdf-syntax-ns#"
   xmlns:svg="http://www.w3.org/2000/svg"
   xmlns="http://www.w3.org/2000/svg"
   xmlns:sodipodi="http://sodipodi.sourceforge.net/DTD/sodipodi-0.dtd"
   xmlns:inkscape="http://www.inkscape.org/namespaces/inkscape"
   width="62.966431mm"
   height="63.185989mm"
   viewBox="0 0 62.966429 63.185988"
   version="1.1"
   id="svg8"
   inkscape:version="0.92.1 r15371"
   sodipodi:docname="server.svg">
  <defs
     id="defs2" />
  <sodipodi:namedview
     id="base"
     pagecolor="#ffffff"
     bordercolor="#666666"
     borderopacity="1.0"
     inkscape:pageopacity="0.0"
     inkscape:pageshadow="2"
     inkscape:zoom="0.43931035"
     inkscape:cx="-476.39265"
     inkscape:cy="189.71902"
     inkscape:document-units="mm"
     inkscape:current-layer="layer1"
     showgrid="false"
     inkscape:window-width="1280"
     inkscape:window-height="736"
     inkscape:window-x="0"
     inkscape:window-y="27"
     inkscape:window-maximized="1" />
  <metadata
     id="metadata5">
    <rdf:RDF>
      <cc:Work
         rdf:about="">
        <dc:format>image/svg+xml</dc:format>
        <dc:type
           rdf:resource="http://purl.org/dc/dcmitype/StillImage" />
        <dc:title></dc:title>
      </cc:Work>
    </rdf:RDF>
  </metadata>
  <g
     inkscape:label="Layer 1"
     inkscape:groupmode="layer"
     id="layer1"
     transform="translate(-307.76064,-220.76139)">
    <path
       style="fill:#ffffff;stroke-width:0.26458332"
       d="m 336.19895,283.83147 c -7.58907,-0.78064 -13.8614,-3.77798 -19.34723,-9.24538 -4.56664,-4.55132 -7.46877,-9.97044 -8.72706,-16.29598 -0.48536,-2.43992 -0.48536,-9.46632 0,-11.90624 2.21794,-11.14981 10.37543,-20.48364 21.00732,-24.03666 6.3271,-2.11443 13.89225,-2.11443 20.21935,0 10.6228,3.54999 18.79128,12.89639 21.00732,24.03666 0.21933,1.10261 0.36842,3.51163 0.36842,5.95311 0,2.44149 -0.14909,4.85053 -0.36842,5.95313 -2.53504,12.7439 -12.71744,22.87512 -25.24065,25.11377 -2.84665,0.50887 -6.44969,0.6816 -8.91905,0.42759 z m 11.24479,-6.29366 c 2.48618,-0.77082 4.16674,-1.5774 6.35,-3.04768 1.52084,-1.02416 4.41443,-3.48887 4.5744,-3.89636 0.0421,-0.10717 -0.27606,-0.26534 -0.70693,-0.35152 -0.43088,-0.0862 -1.06061,-0.45484 -1.3994,-0.81925 -1.32226,-1.42226 -2.32038,-1.97225 -3.14833,-1.73478 -0.60972,0.17487 -1.02505,0.0822 -1.95141,-0.4356 -0.64726,-0.36176 -1.33195,-0.63231 -1.52154,-0.6012 -0.18959,0.0311 -0.54186,-0.0302 -0.78283,-0.13625 -0.53584,-0.23577 -2.26756,0.82031 -2.49666,1.52258 -0.10761,0.32987 -0.32875,0.44279 -0.68477,0.3497 -0.50383,-0.13176 -0.5182,-0.0459 -0.34349,2.05151 0.18225,2.18789 0.18191,2.18952 -0.6547,3.14237 -0.46037,0.52434 -0.8267,1.16784 -0.81405,1.43001 0.059,1.22341 0.0255,1.86445 -0.13884,2.65887 -0.17715,0.85617 -0.17458,0.85866 0.71205,0.69156 0.48941,-0.0923 1.84233,-0.46304 3.0065,-0.82396 z m -3.09563,-8.3204 c 0.39286,-0.39286 0.42559,-1.36803 0.0379,-1.12841 -0.56177,0.34718 -1.50913,-0.1437 -1.84577,-0.95641 -0.27425,-0.6621 -0.27527,-0.86176 -0.005,-1.02865 0.45404,-0.28061 0.13218,-1.67167 -0.52424,-2.26572 -0.36747,-0.33255 -0.76628,-0.41802 -1.44022,-0.30866 -0.82862,0.13446 -0.93184,0.087 -0.93039,-0.42743 8e-4,-0.31827 0.17949,-0.91971 0.39687,-1.33654 0.64198,-1.23092 0.52159,-1.75568 -0.40278,-1.75568 -0.65288,0 -0.87907,0.16994 -1.24356,0.93429 -0.49852,1.0454 -1.20779,1.34218 -2.25555,0.94382 -1.13725,-0.43237 -1.5496,-1.56773 -1.46514,-4.03403 0.0628,-1.83458 0.15197,-2.19619 0.6029,-2.44586 0.29104,-0.16117 0.59338,-0.3785 0.67185,-0.483 0.1985,-0.26429 1.6135,-0.31804 2.17019,-0.0824 0.30937,0.13093 0.5143,0.0556 0.62362,-0.22932 0.20829,-0.54277 1.46936,-0.55392 2.49783,-0.0221 0.42782,0.22123 0.86839,0.38768 0.97905,0.36988 0.11067,-0.0178 0.39501,0.48581 0.63189,1.11912 0.30628,0.81891 0.60089,1.17695 1.02005,1.23967 0.56598,0.0847 0.58188,0.0322 0.4007,-1.32291 -0.10376,-0.77612 -0.36392,-1.60958 -0.57811,-1.85213 -0.54193,-0.61368 -0.0633,-1.43381 1.127,-1.93115 1.07199,-0.44791 1.88977,-1.96723 1.46623,-2.72405 -0.32478,-0.58034 0.1097,-1.41736 0.63173,-1.21704 0.25081,0.0962 0.47888,-0.0867 0.64155,-0.51451 0.16186,-0.42572 0.53393,-0.72569 1.03724,-0.83623 0.53961,-0.11852 0.83612,-0.37667 0.94894,-0.82619 0.11714,-0.46673 0.59739,-0.86162 1.67842,-1.38009 1.51019,-0.72431 1.51431,-0.72952 1.51071,-1.9103 -0.003,-1.04326 -0.0782,-1.19462 -0.63134,-1.27328 -0.34525,-0.0491 -0.99846,0.16795 -1.45159,0.48232 l -0.82387,0.57159 0.72264,-0.6638 c 0.79534,-0.73058 2.57978,-1.1182 4.04967,-0.87967 0.50526,0.082 0.98153,0.0258 1.07597,-0.12705 0.0932,-0.15078 0.57162,-0.4422 1.06318,-0.64758 0.95083,-0.39729 1.23546,-1.31015 0.49687,-1.59357 -0.21828,-0.0838 -0.39688,-0.31815 -0.39688,-0.52086 0,-0.20272 -0.14882,-0.3862 -0.33073,-0.40774 -0.1819,-0.0215 -0.50932,-0.0634 -0.7276,-0.0931 -0.21828,-0.0297 -0.53406,-0.0716 -0.70172,-0.0931 -0.16767,-0.0215 -0.42847,-0.3938 -0.57957,-0.82723 -0.15109,-0.43344 -0.40493,-0.93945 -0.56407,-1.12448 -0.15914,-0.18503 -0.44522,-0.56215 -0.63572,-0.83803 -0.33713,-0.48822 -0.36786,-0.48573 -1.15139,0.0936 -0.96276,0.7118 -1.79734,0.55097 -2.034,-0.39197 -0.20606,-0.82099 -1.82618,-1.67289 -3.36992,-1.77199 -1.14844,-0.0737 -1.1501,-0.0725 -1.17203,0.85222 -0.0121,0.50932 -0.11643,1.14046 -0.23191,1.40252 -0.14642,0.3323 -0.0343,0.66346 0.37054,1.09439 l 0.58049,0.6179 -0.86226,0.80586 c -0.79637,0.74426 -0.83714,0.861 -0.53348,1.52746 0.26534,0.58237 0.26235,0.76375 -0.0155,0.93998 -0.67683,0.42932 -1.0318,0.20951 -1.52692,-0.94554 -0.45664,-1.06531 -1.24595,-1.81762 -1.78318,-1.69961 -0.11505,0.0253 -0.74494,-0.20863 -1.39979,-0.51978 -0.65484,-0.31115 -1.49158,-0.56834 -1.85943,-0.57154 -0.79606,-0.007 -1.58015,-0.83421 -1.58015,-1.6672 0,-0.9826 1.23957,-2.57194 2.00593,-2.57194 0.59663,0 1.15646,-0.43633 2.16485,-1.68729 0.26764,-0.33201 0.46221,-0.35649 0.97532,-0.1227 1.02016,0.46481 1.49922,0.12367 1.37748,-0.98094 -0.0576,-0.52261 -0.22728,-1.07277 -0.3771,-1.22258 -0.42274,-0.42276 -1.20588,-0.0373 -1.7024,0.83783 -0.55055,0.97039 -0.91986,1.00511 -1.32121,0.12421 -0.16796,-0.36862 -0.49283,-0.64346 -0.72193,-0.61075 -0.7256,0.10358 -1.54522,-0.30555 -1.68531,-0.84127 -0.18226,-0.69693 -1.37824,-1.14157 -2.07195,-0.7703 -0.69967,0.37445 -0.52095,0.82348 0.51213,1.28664 0.97337,0.4364 1.06428,0.69288 0.31502,0.88881 -0.33104,0.0866 -0.53613,0.37054 -0.54776,0.75846 -0.0172,0.57567 -0.0333,0.58218 -0.22377,0.0909 -0.16982,-0.43797 -0.51998,-0.55196 -2.03192,-0.66146 -1.64213,-0.11892 -1.82138,-0.18684 -1.77357,-0.67206 0.0985,-0.99949 -0.79786,-1.24379 -2.33728,-0.637 -4.20534,1.65759 -8.30468,4.87535 -11.37345,8.92754 -1.00197,1.32307 -1.04162,1.44415 -0.71465,2.18281 0.19039,0.43013 0.49569,0.78205 0.67845,0.78205 0.18276,0 0.33875,0.14882 0.34666,0.33072 0.008,0.18191 0.56655,0.68792 1.24145,1.12448 1.41282,0.9139 1.83496,1.62425 0.81277,1.3677 l -0.64623,-0.16219 0.0461,2.83683 0.0461,2.83683 1.09254,1.63733 c 0.6009,0.90053 1.421,1.83279 1.82244,2.07167 0.64145,0.38172 2.58199,3.70266 2.58199,4.41868 0,0.13031 0.25063,0.43847 0.55695,0.68483 0.30633,0.24635 0.63001,0.65627 0.7193,0.91093 0.0893,0.25466 0.29317,0.46301 0.45307,0.46301 0.40877,0 0.10367,-0.88512 -0.98729,-2.86424 -0.87456,-1.58653 -0.99292,-2.1663 -0.36276,-1.77684 0.1552,0.0959 0.28219,0.354 0.28219,0.5735 0,0.40304 1.708,2.70155 3.15214,4.24192 0.43897,0.46822 0.8642,1.28275 0.96689,1.85208 0.2394,1.32735 0.41962,1.52667 2.36294,2.61343 1.21499,0.67947 1.95703,0.9164 2.87002,0.9164 0.83566,0 1.38529,0.15396 1.71043,0.47909 0.88701,0.88702 1.75109,1.373 2.44119,1.373 0.51954,0 0.78993,0.21821 1.11494,0.89975 0.23598,0.49486 0.88311,1.2383 1.43806,1.65207 0.55496,0.41379 1.10422,0.90187 1.2206,1.08464 0.26712,0.41952 0.77961,0.42588 1.1907,0.0148 z m -16.03914,-39.85409 -0.61395,-0.47233 0.69254,-0.31554 c 0.76681,-0.34938 1.80266,-0.41525 2.08531,-0.13258 0.10063,0.10062 -0.20695,0.31479 -0.6835,0.47592 -0.47656,0.16113 -0.8367,0.43599 -0.80032,0.6108 0.0846,0.40661 0.0552,0.39942 -0.68008,-0.16627 z"
       id="path5865"
       inkscape:connector-curvature="0" />
  </g>
</svg>
