<?xml version="1.0" encoding="UTF-8" standalone="no"?>
<svg
   xmlns:dc="http://purl.org/dc/elements/1.1/"
   xmlns:cc="http://creativecommons.org/ns#"
   xmlns:rdf="http://www.w3.org/1999/02/22-rdf-syntax-ns#"
   xmlns:svg="http://www.w3.org/2000/svg"
   xmlns="http://www.w3.org/2000/svg"
   id="svg8"
   version="1.1"
   viewBox="0 0 125.4125 125.41249"
   height="125.41249mm"
   width="125.4125mm">
  <defs
     id="defs2" />
  <metadata
     id="metadata5">
    <rdf:RDF>
      <cc:Work
         rdf:about="">
        <dc:format>image/svg+xml</dc:format>
        <dc:type
           rdf:resource="http://purl.org/dc/dcmitype/StillImage" />
        <dc:title></dc:title>
      </cc:Work>
    </rdf:RDF>
  </metadata>
  <g
     transform="translate(-48.205981,-7.9882391)"
     id="layer1">
    <path
       id="path864"
       d="m 101.51522,124.11442 c -0.84844,-5.10748 -1.670812,-9.32303 -1.827492,-9.36791 -3.1913,-0.914 -6.477441,-2.16549 -9.107225,-3.4684 l -3.280328,-1.62522 -7.502948,5.25934 c -4.126621,2.89263 -7.595859,5.25934 -7.709412,5.25934 -0.113557,0 -2.631444,-2.42715 -5.595305,-5.39366 l -5.388839,-5.39365 5.447949,-7.62136 c 3.423515,-4.789291 5.362347,-7.725521 5.217589,-7.901661 -0.964777,-1.17392 -3.770138,-7.68868 -4.649574,-10.79748 -0.236704,-0.83675 -0.480645,-1.52136 -0.542093,-1.52136 -0.06145,0 -4.121616,-0.71437 -9.022596,-1.5875 -4.90098,-0.87312 -9.009443,-1.5875 -9.129919,-1.5875 -0.120475,0 -0.219046,-3.49364 -0.219046,-7.763654 V 62.84009 l 9.253382,-1.537142 9.253381,-1.537142 0.41863,-1.480973 c 0.873761,-3.091074 3.681519,-9.593974 4.651934,-10.774092 0.163298,-0.198589 -1.513948,-2.812111 -5.05185,-7.87191 -2.912971,-4.166041 -5.29631,-7.664756 -5.29631,-7.774924 0,-0.110164 2.427143,-2.625279 5.393652,-5.58914 l 5.393653,-5.388838 7.594682,5.42888 7.594684,5.42888 2.159061,-1.147747 c 2.539447,-1.349962 6.873048,-3.090368 8.840598,-3.550454 0.76444,-0.178752 1.44975,-0.42187 1.52292,-0.540262 0.0732,-0.118392 0.804472,-4.333147 1.625102,-9.366122 l 1.49207,-9.1508649 h 7.76679 c 4.27173,0 7.76679,0.09357 7.76679,0.207924 0,0.114358 0.71437,4.2873149 1.5875,9.2732369 0.87312,4.985922 1.5875,9.119075 1.5875,9.184784 0,0.06571 0.15801,0.119471 0.35115,0.119471 0.94089,0 5.70984,1.799172 8.81748,3.326548 l 3.48008,1.710436 7.59382,-5.465107 7.59382,-5.465108 5.3964,5.391591 c 2.96803,2.965375 5.39641,5.486903 5.39641,5.603399 0,0.116494 -2.39414,3.613547 -5.32031,7.771228 l -5.32031,7.559418 1.46587,2.946818 c 1.46765,2.9504 2.41465,5.350467 3.2116,8.139461 l 0.42533,1.488477 9.38349,1.528024 9.3835,1.528024 v 7.765269 c 0,4.270896 -0.0834,7.765266 -0.18544,7.765266 -1.09342,0 -18.5073,3.28732 -18.65645,3.52189 -0.11,0.17301 -0.20183,0.45663 -0.20406,0.63025 -0.0112,0.87082 -1.81934,5.60768 -3.22318,8.4438 l -1.58556,3.20324 5.48283,7.604501 5.48283,7.60451 -5.39317,5.39799 c -2.96624,2.96889 -5.48626,5.39799 -5.60003,5.39799 -0.11377,0 -3.61011,-2.39414 -7.76965,-5.3203 l -7.56279,-5.3203 -2.55607,1.3367 c -2.74537,1.4357 -6.4537,2.9258 -8.69853,3.49529 -0.76399,0.19382 -1.38906,0.45179 -1.38906,0.57327 0,0.12148 -0.71438,4.23333 -1.5875,9.13745 -0.87313,4.90411 -1.5875,9.00892 -1.5875,9.12181 0,0.11288 -3.49365,0.20524 -7.76366,0.20524 h -7.76366 z m 13.89493,-19.67435 c 15.31312,-2.06887 27.17879,-13.934541 29.24766,-29.247671 0.20644,-1.52797 0.37533,-3.552027 0.37533,-4.497913 0,-0.945885 -0.16889,-2.969947 -0.37533,-4.497916 -2.06887,-15.313128 -13.93454,-27.178793 -29.24766,-29.247665 -3.49979,-0.472837 -5.49605,-0.472837 -8.99584,0 -15.313125,2.068872 -27.17879,13.934537 -29.247662,29.247665 -0.472837,3.499784 -0.472837,5.496049 0,8.995829 2.051848,15.18713 13.884639,27.119851 28.983082,29.227871 3.34764,0.46739 5.90695,0.47287 9.26042,0.0198 z"
       style="fill:#ffffff;stroke-width:0.26458332" />
  </g>
</svg>
