<?xml version="1.0" encoding="UTF-8" standalone="no"?>
<svg
   xmlns:dc="http://purl.org/dc/elements/1.1/"
   xmlns:cc="http://creativecommons.org/ns#"
   xmlns:rdf="http://www.w3.org/1999/02/22-rdf-syntax-ns#"
   xmlns:svg="http://www.w3.org/2000/svg"
   xmlns="http://www.w3.org/2000/svg"
   viewBox="0 0 224.04378 175.78415"
   height="175.78415"
   width="224.04378"
   id="svg4571"
   version="1.1">
  <metadata
     id="metadata4577">
    <rdf:RDF>
      <cc:Work
         rdf:about="">
        <dc:format>image/svg+xml</dc:format>
        <dc:type
           rdf:resource="http://purl.org/dc/dcmitype/StillImage" />
        <dc:title></dc:title>
      </cc:Work>
    </rdf:RDF>
  </metadata>
  <defs
     id="defs4575" />
  <path
     id="path5780"
     d="M 15.543729,173.83472 C 9.910834,170.91355 5.26857,166.27043 2.432572,160.72113 L 0,155.96122 0.271865,93.134964 0.543729,30.308696 3.419034,26.160299 c 1.950763,-2.814496 4.815648,-5.117997 8.909725,-7.16383 l 6.03441,-3.015434 H 43.51026 68.65735 l 3.43091,-7.0920383 c 1.88699,-3.900622 4.19435,-7.500622 5.12745,-7.99999995 2.2148,-1.185329 71.44124,-1.185329 73.65604,0 0.9331,0.49937795 3.24046,4.09937795 5.12745,7.99999995 l 3.43091,7.0920383 24.55681,0.02196 c 26.67913,0.02386 29.64321,0.54487 34.75908,6.109767 5.37259,5.844143 5.29773,4.817181 5.29773,72.676432 v 62.872396 l -3.01543,6.03441 c -2.04605,4.0945 -4.34916,6.95876 -7.16419,8.90972 l -4.14874,2.87531 -95.08582,0.21402 c -94.478791,0.21266 -95.111361,0.20078 -99.085821,-1.86033 z m 189.892151,-17.1768 c 2.08844,-2.79711 2.10785,-3.36995 2.10785,-62.199826 0,-47.336059 -0.2632,-59.640364 -1.29792,-60.676884 -0.97704,-0.978742 -8.14651,-1.423786 -29,-1.800175 -15.23614,-0.275 -28.15889,-0.798739 -28.71722,-1.163865 -0.55833,-0.365126 -2.55776,-3.852626 -4.44319,-7.75 l -3.42805,-7.086135 H 114.06982 87.4823 l -3.69917,7.4759 c -2.64778,5.351056 -4.3444,7.622026 -5.96929,7.990015 -1.24856,0.282764 -14.2757,0.631108 -28.9492,0.7741 -25.359421,0.247125 -26.818621,0.364244 -29.500001,2.367745 l -2.82091,2.10776 -0.25827,56.675899 c -0.28545,62.639386 -0.47032,60.666036 6.05682,64.652136 3.12196,1.90658 5.408691,1.94893 92.093601,1.70578 l 88.89214,-0.24934 z M 100.04373,144.5467 c -17.68322,-4.93361 -31.91371,-19.3282 -36.6431,-37.06567 -0.73324,-2.75 -1.33316,-8.824996 -1.33316,-13.499996 0,-15.19142 4.64601,-26.66975 14.97626,-37 10.33025,-10.330246 21.80858,-14.976261 37,-14.976261 14.71335,0 27.20006,5.016323 37.08,14.896261 9.87994,9.87994 14.89626,22.36665 14.89626,37.08 0,9.965096 -1.45819,16.090026 -5.93772,24.940616 -6.02319,11.90053 -18.85137,22.03133 -32.53854,25.69667 -6.17856,1.65458 -21.45548,1.6148 -27.5,-0.0716 z m 19.52613,-15.65513 c 7.6854,-1.42073 14.04206,-4.71402 19.35622,-10.02819 13.95975,-13.95974 13.95975,-35.804956 0,-49.764696 -13.95974,-13.95975 -35.80496,-13.95975 -49.7647,0 -19.94293,19.94293 -9.91274,53.311826 17.88235,59.491846 3.025,0.67259 5.75485,1.2606 6.06634,1.30669 0.31149,0.0461 3.21839,-0.40645 6.45979,-1.00565 z m 70.47387,-78.910535 c -1.33333,-1.333333 -2,-3.333333 -2,-6 0,-5.333333 2.66667,-8 8,-8 5.33333,0 8,2.666667 8,8 0,5.33333 -2.66667,7.999999 -8,7.999999 -2.66667,0 -4.66667,-0.66667 -6,-1.999999 z"
     style="fill:#ffffff" />
</svg>
