<?xml version="1.0" encoding="UTF-8" standalone="no"?>
<svg
   xmlns:dc="http://purl.org/dc/elements/1.1/"
   xmlns:cc="http://creativecommons.org/ns#"
   xmlns:rdf="http://www.w3.org/1999/02/22-rdf-syntax-ns#"
   xmlns:svg="http://www.w3.org/2000/svg"
   xmlns="http://www.w3.org/2000/svg"
   viewBox="0 0 9.6052391 14.927237"
   height="14.927237"
   width="9.6052389"
   id="svg5134"
   version="1.1">
  <metadata
     id="metadata5140">
    <rdf:RDF>
      <cc:Work
         rdf:about="">
        <dc:format>image/svg+xml</dc:format>
        <dc:type
           rdf:resource="http://purl.org/dc/dcmitype/StillImage" />
        <dc:title></dc:title>
      </cc:Work>
    </rdf:RDF>
  </metadata>
  <defs
     id="defs5138" />
  <path
     id="path5687"
     d="m 2.135993,14.393877 v -0.533334 h 1.066666 1.066667 v -1.09285 -1.09285 l -0.03467,-0.0056 c -0.01907,-0.003 -0.09947,-0.01552 -0.178666,-0.0277 C 3.389507,11.539024 2.735508,11.283879 2.157326,10.900807 1.179164,10.252731 0.475431,9.2846037 0.168329,8.1645428 0.105046,7.9337361 0.057778,7.6782436 0.023284,7.3805427 0.017164,7.3277427 0.009424,7.0841427 0.00608,6.8392093 L 0,6.3938759 h 0.53343 0.533429 l 0.0056,0.4293334 c 0.0058,0.4417331 0.01316,0.537135 0.06108,0.7920001 0.247586,1.3167403 1.197198,2.4101216 2.472644,2.8469956 0.766133,0.262421 1.626743,0.262421 2.392876,0 C 7.274503,10.025331 8.224116,8.9319497 8.4717,7.6152094 8.51962,7.3603443 8.52698,7.2649424 8.53278,6.8232093 l 0.0056,-0.4293334 h 0.53343 0.533429 l -0.0059,0.4453334 C 9.593039,7.3168806 9.580409,7.4728355 9.522649,7.7858761 9.289017,9.0522657 8.537346,10.180669 7.447879,10.900506 7.1141,11.121041 6.786725,11.285754 6.413212,11.421077 c -0.262235,0.09501 -0.586807,0.177826 -0.864,0.220462 -0.0792,0.01218 -0.1596,0.02466 -0.178666,0.02773 l -0.03467,0.0056 v 1.09285 1.09285 h 1.066666 1.066667 v 0.533334 0.533333 H 4.802617 2.13595 Z M 4.557326,9.5823897 C 4.369276,9.5645937 4.135045,9.5142347 3.954699,9.4528257 3.105265,9.1635907 2.439739,8.4459789 2.221505,7.5839906 2.135085,7.2426588 2.141325,7.4597157 2.141325,4.7938758 2.141325,2.5377722 2.1423,2.4142197 2.161065,2.2925423 2.231635,1.8348822 2.405977,1.4197804 2.681704,1.0529344 2.782404,0.9189565 2.998289,0.6966193 3.133314,0.5878258 3.429892,0.3488657 3.789182,0.1684155 4.146662,0.078881 4.401346,0.015092 4.526864,0 4.802662,0 c 0.277354,0 0.403626,0.015294 0.657997,0.079699 0.97984,0.2480851 1.754382,1.0634535 1.955122,2.0581774 0.04978,0.2466764 0.04821,0.1602418 0.04821,2.6613336 0,2.2249064 -0.0012,2.3754126 -0.01914,2.4906668 C 7.355501,7.8625203 7.111468,8.3617962 6.724621,8.7634395 6.152737,9.3571987 5.356616,9.6580267 4.557328,9.5823897 Z M 5.113086,8.496365 C 5.756908,8.3662398 6.256161,7.8582237 6.377383,7.209876 6.396473,7.1077723 6.397323,7.0044204 6.397323,4.7938758 6.397323,2.5833312 6.39647,2.4799793 6.377383,2.3778756 6.2564,1.7308043 5.770956,1.2333384 5.122344,1.0917562 5.027319,1.0710136 4.979633,1.0673771 4.80266,1.0673771 c -0.176974,0 -0.22466,0.00364 -0.319685,0.024379 C 4.194712,1.1546796 3.94547,1.2814002 3.733812,1.4726479 3.468667,1.7122248 3.293932,2.0249005 3.227936,2.3778756 c -0.01909,0.1021037 -0.01994,0.2054556 -0.01994,2.4160002 0,2.2105446 8.54e-4,2.3138965 0.01994,2.4160002 0.09394,0.5024087 0.40991,0.920681 0.869989,1.1516519 0.159509,0.080078 0.318705,0.1262093 0.550068,0.1593992 0.07499,0.010757 0.366517,-0.00464 0.465093,-0.024562 z"
     style="fill:#ffffff;stroke-width:0.01066667" />
</svg>
