<?xml version="1.0" encoding="UTF-8" standalone="no"?>
<svg
   xmlns:dc="http://purl.org/dc/elements/1.1/"
   xmlns:cc="http://creativecommons.org/ns#"
   xmlns:rdf="http://www.w3.org/1999/02/22-rdf-syntax-ns#"
   xmlns:svg="http://www.w3.org/2000/svg"
   xmlns="http://www.w3.org/2000/svg"
   viewBox="0 0 253.77319 225.5"
   height="225.5"
   width="253.77319"
   id="svg4581"
   version="1.1">
  <metadata
     id="metadata4587">
    <rdf:RDF>
      <cc:Work
         rdf:about="">
        <dc:format>image/svg+xml</dc:format>
        <dc:type
           rdf:resource="http://purl.org/dc/dcmitype/StillImage" />
        <dc:title></dc:title>
      </cc:Work>
    </rdf:RDF>
  </metadata>
  <defs
     id="defs4585" />
  <path
     id="path5728"
     d="m 59.8866,216.45455 c 0,-8.27049 0.210294,-9.25575 2.454545,-11.5 C 64.74324,202.55245 65.138564,202.5 80.841141,202.5 h 16.04546 V 190.53478 178.56957 L 59.6366,178.28478 22.3866,178 16.579719,175.14862 c -3.899142,-1.91461 -7.1013667,-4.48902 -9.7471057,-7.83613 -7.15376499,-9.0502 -7.03621199,-7.64437 -6.72423399,-80.41548 L 0.38660031,22 2.7402513,17.263777 C 5.8481103,11.00987 11.415078,5.399995 17.471225,2.419263 L 22.3866,0 h 104.5 104.5 l 4.91538,2.419263 c 6.05614,2.980732 11.62311,8.590607 14.73097,14.844514 L 253.3866,22 l 0.27822,64.89701 c 0.31198,72.77111 0.42953,71.36528 -6.72423,80.41548 -2.64574,3.34711 -5.84797,5.92152 -9.74711,7.83613 L 231.3866,178 l -37.25,0.28478 -37.25,0.28479 V 190.53478 202.5 h 16.04545 c 15.70259,0 16.09791,0.0524 18.5,2.45455 2.24426,2.24425 2.45455,3.22951 2.45455,11.5 V 225.5 h -67 -67 z m 162.58678,-71.26031 2.41322,-2.80577 V 89.07909 c 0,-52.417461 -0.0347,-53.353456 -2.07258,-55.944231 L 220.74144,30.5 H 126.8866 33.03176 l -2.07258,2.634859 c -2.037719,2.59054 -2.07258,3.528716 -2.07258,55.777491 0,57.54481 -0.106597,56.37866 5.356999,58.60418 1.179142,0.48031 43.448462,0.78534 93.979781,0.6782 L 220.06015,148 Z"
     style="fill:#ffffff" />
</svg>
