<?xml version="1.0" encoding="UTF-8" standalone="no"?>
<svg
   xmlns:dc="http://purl.org/dc/elements/1.1/"
   xmlns:cc="http://creativecommons.org/ns#"
   xmlns:rdf="http://www.w3.org/1999/02/22-rdf-syntax-ns#"
   xmlns:svg="http://www.w3.org/2000/svg"
   xmlns="http://www.w3.org/2000/svg"
   id="svg8"
   version="1.1"
   viewBox="0 0 555.59149 76.94371"
   height="76.94371mm"
   width="555.59149mm">
  <defs
     id="defs2" />
  <metadata
     id="metadata5">
    <rdf:RDF>
      <cc:Work
         rdf:about="">
        <dc:format>image/svg+xml</dc:format>
        <dc:type
           rdf:resource="http://purl.org/dc/dcmitype/StillImage" />
        <dc:title></dc:title>
      </cc:Work>
    </rdf:RDF>
  </metadata>
  <g
     transform="translate(225.6637,-200.35483)"
     id="layer1">
    <path
       id="path826"
       d="m -197.60596,248.18671 v -29.10182 l -13.95677,-0.0685 -13.95677,-0.0685 -0.0721,-4.82865 -0.0721,-4.82865 h 41.81014 41.81013 v 4.8948 4.89479 h -13.75833 -13.75833 v 29.10417 29.10417 h -14.02292 -14.02292 z m 65.26389,28.92545 c -0.097,-0.097 -0.17639,-15.39655 -0.17639,-33.99897 v -33.82257 h 34.643123 c 29.558628,0 34.916117,0.0574 36.503178,0.39128 7.384251,1.55332 11.86125,5.63778 13.937147,12.71514 0.678262,2.31241 0.890728,20.9654 0.266557,23.40178 -1.502844,5.86618 -5.956009,9.91668 -13.020617,11.84329 l -2.611675,0.71224 -20.96823,0.0876 -20.968233,0.0876 v 9.37949 9.37948 h -13.71423 c -7.54283,0 -13.79361,-0.0794 -13.89063,-0.17639 z m 53.218933,-29.11272 c 1.903429,-0.77218 3.114099,-1.74481 3.823269,-3.07154 0.583846,-1.09227 0.592871,-1.26016 0.592871,-11.03103 V 223.975 l -0.818388,-1.45521 c -0.914713,-1.62648 -2.79409,-2.98131 -4.534631,-3.26898 -0.548341,-0.0906 -6.325028,-0.16609 -12.837086,-0.16769 l -11.840108,-0.003 v 14.83558 14.83558 l 12.104692,-0.091 c 11.670572,-0.0878 12.155064,-0.11148 13.509381,-0.6609 z m 92.290546,28.98858 C 7.439135,276.25257 2.821042,273.05607 0.41387795,268.16042 -1.739079,263.78177 -1.631896,265.39803 -1.739917,235.68281 L -1.83586,209.29062 h 13.901412 13.901409 v 26.41886 c 0,18.94931 0.08462,26.67313 0.299305,27.31823 0.421489,1.26653 2.185582,3.00852 3.775591,3.72827 l 1.349062,0.61069 22.291142,0.0747 22.29115,0.0747 v 4.8862 4.88621 l -30.493229,-0.0335 c -16.771276,-0.0184 -31.311935,-0.13858 -32.312573,-0.26706 z m 68.891222,-33.69844 v -33.99896 h 13.75833 13.758329 v 33.99896 33.99897 H 95.816961 82.058631 Z m 37.570829,0.005 v -34.00416 h 10.27642 c 11.66542,0 12.46653,0.10209 16.71108,2.12942 l 2.24896,1.07417 23.34948,23.46313 23.34948,23.46313 v -25.06492 -25.06493 h 5.82083 5.82083 v 33.99896 33.99897 l -11.04635,-0.002 c -6.10262,-0.001 -11.81603,-0.12143 -12.76615,-0.26886 -2.07716,-0.32232 -5.42586,-1.90987 -7.27604,-3.44945 -0.7276,-0.60557 -11.07342,-10.76158 -22.99073,-22.56903 -11.91728,-11.80744 -21.71208,-21.46808 -21.76616,-21.46808 -0.0541,0 -0.12626,10.71563 -0.16031,23.8125 l -0.062,23.81251 -5.75468,0.0713 -5.75469,0.0713 v -34.00412 z m 98.16042,-0.005 v -33.99896 h 13.75833 13.75833 v 14.81667 c 0,8.14917 0.0982,14.81667 0.21818,14.81667 0.24593,0 5.99485,-4.41859 19.62187,-15.08125 5.11439,-4.00183 11.40444,-8.9101 13.97786,-10.90727 l 4.67897,-3.63123 9.78014,-0.007 c 8.21494,-0.006 9.71812,0.0502 9.3927,0.34961 -0.21309,0.19603 -3.18539,2.60082 -6.60513,5.34399 -7.68607,6.16544 -15.90196,12.77986 -20.62721,16.6065 -1.97019,1.59551 -5.09588,4.10503 -6.94595,5.57671 -1.8501,1.47167 -3.33838,2.81511 -3.30729,2.98542 0.0311,0.1703 2.86269,2.67061 6.29248,5.55625 3.42979,2.88563 10.0833,8.52082 14.78558,12.52265 4.70228,4.00182 9.05385,7.69276 9.67015,8.20208 1.45081,1.19896 10.70999,9.04898 11.68651,9.90792 l 0.74885,0.65869 -15.13012,0.008 -15.13012,0.008 -2.46467,-2.05111 c -1.35556,-1.12811 -5.5603,-4.60767 -9.34384,-7.73236 -3.78354,-3.12468 -9.99601,-8.27387 -13.80548,-11.44264 -3.80947,-3.16876 -7.05392,-5.76139 -7.2099,-5.76139 -0.19804,0 -0.28358,4.10988 -0.28358,13.62604 v 13.62678 h -13.75833 -13.75833 z m -255.455383,3.77032 c -0.08604,-0.47295 -0.121205,-2.64584 -0.07813,-4.82865 l 0.07831,-3.96875 14.221355,-0.0684 14.221354,-0.0684 v 4.89709 4.89709 H -23.365842 -37.50906 Z M 316.07737,219.12006 c -1.89849,-0.89816 -3.8083,-2.72664 -4.665,-4.46636 -0.5152,-1.04627 -0.63653,-1.76606 -0.70966,-4.21018 -0.0832,-2.77968 -0.0462,-3.0341 0.6483,-4.45235 0.4457,-0.91022 1.33888,-2.06185 2.2619,-2.9164 3.95851,-3.6649 9.28053,-3.62266 13.27947,0.10539 4.98612,4.64837 3.63026,12.93116 -2.60771,15.93017 -1.40666,0.67626 -1.87386,0.76321 -4.10104,0.76321 -2.21375,0 -2.70352,-0.0899 -4.10626,-0.75348 z m 7.7206,-1.51488 c 1.59951,-0.77012 3.09692,-2.33027 3.88599,-4.04884 0.87701,-1.91006 0.8001,-4.98668 -0.17426,-6.97088 -1.45272,-2.9583 -3.93009,-4.43859 -7.42836,-4.43859 -2.70701,0 -4.37134,0.73715 -6.08357,2.69449 -4.03439,4.61189 -1.70613,11.94862 4.26353,13.43517 1.50299,0.37427 3.99174,0.0725 5.53667,-0.67135 z m -7.58309,-7.38851 v -5.42396 h 2.61276 c 1.43703,0 2.98315,0.0741 3.43582,0.16461 2.51098,0.50219 3.23573,4.1441 1.03664,5.20915 -0.78692,0.38111 -0.79277,0.39766 -0.24429,0.69119 0.80592,0.43131 1.27627,1.51506 1.4156,3.26161 l 0.12137,1.52135 h -1.01394 -1.01396 v -1.42589 c 0,-2.13151 -0.53809,-2.66677 -2.68563,-2.67147 l -1.68,-0.004 -0.0773,2.05052 -0.0773,2.05052 h -0.91493 -0.9149 z m 5.82083,-0.92605 c 0.29104,-0.29104 0.52917,-0.8796 0.52917,-1.30791 0,-1.13478 -0.82804,-1.6025 -2.837,-1.6025 h -1.66092 v 1.71979 1.71979 h 1.71979 c 1.36702,0 1.82835,-0.10855 2.24896,-0.52917 z"
       style="fill:#000000;fill-opacity:1;stroke-width:0.26458335" />
  </g>
</svg>
