<?xml version="1.0" encoding="UTF-8" standalone="no"?>
<svg
   xmlns:dc="http://purl.org/dc/elements/1.1/"
   xmlns:cc="http://creativecommons.org/ns#"
   xmlns:rdf="http://www.w3.org/1999/02/22-rdf-syntax-ns#"
   xmlns:svg="http://www.w3.org/2000/svg"
   xmlns="http://www.w3.org/2000/svg"
   id="svg8"
   version="1.1"
   viewBox="0 0 17.881599 35.509201"
   height="35.509201mm"
   width="17.881599mm">
  <defs
     id="defs2" />
  <metadata
     id="metadata5">
    <rdf:RDF>
      <cc:Work
         rdf:about="">
        <dc:format>image/svg+xml</dc:format>
        <dc:type
           rdf:resource="http://purl.org/dc/dcmitype/StillImage" />
        <dc:title></dc:title>
      </cc:Work>
    </rdf:RDF>
  </metadata>
  <g
     transform="translate(-70.976072,-126.42933)"
     id="layer1">
    <g
       id="text817"
       style="font-style:normal;font-variant:normal;font-weight:normal;font-stretch:normal;font-size:10.58333302px;line-height:1.25;font-family:serif;-inkscape-font-specification:serif;letter-spacing:0px;word-spacing:0px;fill:#ffffff;fill-opacity:1;stroke:none;stroke-width:0.26458332"
       aria-label="?">
      <path
         id="path819"
         style="font-style:normal;font-variant:normal;font-weight:bold;font-stretch:normal;font-size:50.79999924px;font-family:'TeX Gyre Pagella Math';-inkscape-font-specification:'TeX Gyre Pagella Math Bold';stroke-width:0.26458332;fill:#ffffff"
         d="m 88.857671,134.25252 c 0,-4.41959 -4.013199,-7.82319 -9.245599,-7.82319 -2.2352,0 -4.0132,0.4572 -6.7056,1.778 l -1.9304,5.74039 1.4732,0.4064 1.016,-2.4384 c 0.5588,-1.37159 2.1336,-2.13359 4.4196,-2.13359 3.6576,0 6.2484,2.28599 6.2484,5.53719 0,2.032 -0.9144,3.6576 -3.9116,6.9596 -3.0988,3.4036 -3.9116,4.7752 -3.9116,6.5024 0,1.524 0.7112,2.7432 2.2352,3.7084 l 1.0668,-0.7112 c -0.8128,-0.9652 -1.1176,-1.6256 -1.1176,-2.4384 0,-1.6764 0.6604,-2.54 4.7752,-6.2484 4.317999,-3.9624 5.587999,-5.9436 5.587999,-8.8392 z m -7.010399,24.7396 c 0,-1.524 -1.4224,-2.9464 -2.9972,-2.9464 -1.524,0 -2.8956,1.4224 -2.8956,2.9464 0,1.524 1.3716,2.9464 2.8448,2.9464 1.6256,0 3.048,-1.3716 3.048,-2.9464 z" />
    </g>
  </g>
</svg>
