<?xml version="1.0" encoding="UTF-8" standalone="no"?>
<svg
   xmlns:dc="http://purl.org/dc/elements/1.1/"
   xmlns:cc="http://creativecommons.org/ns#"
   xmlns:rdf="http://www.w3.org/1999/02/22-rdf-syntax-ns#"
   xmlns:svg="http://www.w3.org/2000/svg"
   xmlns="http://www.w3.org/2000/svg"
   viewBox="0 0 1180.0001 1180"
   height="1180"
   width="1180"
   id="svg1056"
   version="1.1">
  <metadata
     id="metadata1062">
    <rdf:RDF>
      <cc:Work
         rdf:about="">
        <dc:format>image/svg+xml</dc:format>
        <dc:type
           rdf:resource="http://purl.org/dc/dcmitype/StillImage" />
        <dc:title></dc:title>
      </cc:Work>
    </rdf:RDF>
  </metadata>
  <defs
     id="defs1060" />
  <path
     id="path1066"
     d="M 1155.572,324.80582 C 1093.3083,239.9788 1015.7885,176.89773 924.64093,136.88755 836.28319,98.102004 743.09757,84.473429 647.67081,96.380001 626.21701,99.056864 569.05875,113.22518 546.99185,121.33619 445.47196,158.65125 363.07674,227.04983 311.29167,316.99751 c -57.3332,99.58438 -70.02475,219.96248 -33.92806,321.80452 41.16424,116.13951 132.9954,198.04522 245.88463,219.30849 112.37763,21.16689 223.16454,-26.47826 274.99141,-118.26316 10.10507,-17.89595 18.07993,-39.25556 21.93957,-58.76226 6.23709,-31.52239 5.80211,-52.64898 -1.65353,-80.30848 -5.40258,-20.04251 -10.75248,-31.29775 -20.38004,-42.8751 -11.02686,-13.26007 -18.97234,-15.31161 -22.72263,-5.86703 -1.56353,3.93755 -1.17393,6.77263 4.02512,29.28958 6.36437,27.5639 7.22161,38.47177 4.66748,59.39145 -9.39476,76.94823 -74.65892,142.14665 -156.40321,156.24571 -128.19784,22.11123 -251.58952,-65.7045 -282.6383,-201.14881 -24.64045,-107.4892 10.61664,-219.734 94.50287,-300.86016 28.98227,-28.02872 67.43832,-53.31664 107.96343,-70.99457 17.8223,-7.77446 61.70458,-20.61641 82.55119,-24.15819 170.53479,-28.9733 343.4746,55.46992 435.5856,212.68813 67.6077,115.39528 84.5394,255.77809 47.0403,390.01688 -40.1744,143.81561 -140.31084,268.87839 -276.81648,345.72299 -13.54004,7.6222 -15.75853,8.4439 -49.67684,18.3981 -43.27669,12.7007 -51.57132,13.6705 -25.59661,2.9928 166.69455,-68.5249 289.57233,-201.92561 337.38283,-366.27547 20.5135,-70.51543 25.0619,-144.30034 13.584,-220.35761 -2.9188,-19.34089 -17.222,-72.79681 -24.2972,-90.80557 -32.9347,-83.83382 -83.371,-150.69818 -152.01054,-201.52352 -17.31404,-12.82046 -58.32773,-36.44848 -78.11148,-45.00006 -65.68167,-28.39114 -132.05892,-38.20059 -203.80352,-30.11885 -8.00403,0.90162 -23.96497,4.56608 -47.46351,10.89728 -30.67453,8.26477 -37.52119,10.51789 -51.2511,16.86792 -33.00981,15.26688 -58.15695,31.3896 -83.75199,53.69668 -70.9738,61.85607 -108.46334,147.25153 -103.9052,236.68002 0.82506,16.18743 1.44978,19.47607 9.17127,48.2793 7.27361,27.13003 9.0633,32.41271 14.64532,43.21229 16.67444,32.26018 39.39909,58.48732 62.37978,71.99413 8.0648,4.74007 18.97017,8.9426 18.48247,7.12248 -0.0743,-0.27733 -5.71292,-6.70228 -12.53026,-14.27767 -27.64375,-30.71762 -45.27632,-66.29756 -52.89659,-106.73763 -8.575,-45.50658 -4.12649,-90.35851 13.40841,-135.18988 6.29647,-16.09815 26.16869,-50.62928 36.96103,-64.22553 73.98928,-93.21278 200.8502,-130.38533 321.31754,-94.15195 44.68126,13.43894 91.1572,39.67108 127.24995,71.82292 38.82324,34.58427 69.22327,76.88363 92.3366,128.47936 8.67212,19.35891 22.80112,69.2526 26.34122,93.01861 10.6208,71.3041 2.2908,144.79259 -23.93253,211.13425 -46.0697,116.55068 -138.41142,207.6208 -260.12652,256.5442 -22.12823,8.8945 -80.06523,24.8407 -102.20204,28.1294 -22.72173,3.3757 -46.38306,5.4927 -68.07655,6.0909 C 422.62039,1088.9755 278.31856,1030.7287 167.903,922.80985 150.83338,906.1262 121.53541,872.58642 107.32329,853.4593 75.132335,810.13571 48.368663,762.40463 27.808033,711.64958 l -7.549995,-18.63757 -3.110797,-24.2645 C 15.436305,655.40204 13.596712,639.9421 13.05926,634.39209 l -0.977186,-10.09092 10.206596,31.905 c 10.951965,34.23497 22.246182,63.16477 34.592072,88.60658 49.553918,102.1183 125.047588,187.2997 216.618308,244.41584 97.48107,60.80271 208.29413,88.90661 318.24174,80.71091 33.10646,-2.4677 48.59646,-5.2638 88.8762,-16.0427 41.38972,-11.076 56.19162,-16.4627 87.41195,-31.8107 105.25667,-51.74457 186.30165,-142.77353 222.11249,-249.47469 46.54917,-138.69654 13.24777,-287.80345 -85.60602,-383.30129 -62.48232,-60.36119 -147.343,-92.83261 -228.99454,-87.62344 -99.70355,6.36092 -182.58009,63.10899 -216.70008,148.3813 -5.12302,12.80339 -13.67605,47.0843 -12.67737,50.81142 0.19417,0.72467 1.95376,-3.41982 3.91018,-9.20995 30.32601,-89.75116 113.84272,-150.4571 212.93152,-154.77397 38.33071,-1.66992 80.04784,6.44761 116.61835,22.69217 15.31229,6.8017 43.67715,23.83071 56.39833,33.8591 37.26187,29.37434 67.19373,68.07759 87.49075,113.1295 8.26892,18.35392 21.5127,67.78055 23.58893,88.03529 10.15919,99.10842 -22.77981,195.37204 -92.11349,269.19996 -86.31885,91.91405 -216.57571,134.61604 -347.02614,113.76511 -51.7864,-8.2774 -100.19818,-25.61002 -146.9831,-52.6236 C 272.0345,873.59665 204.10784,795.34869 163.25613,697.18689 152.83204,672.13904 139.45347,626.98325 134.3595,599.65406 106.14993,448.30935 145.67392,291.29813 244.01458,164.0435 283.40196,113.0755 332.45763,67.630456 386.73822,31.824547 l 20.52811,-13.541169 28.1703,-8.202296 C 450.93032,5.5699067 462.51731,2.4487197 461.1856,3.1454327 368.16661,51.788385 301.34164,108.10107 243.28571,186.76744 c -16.64148,22.54928 -47.19177,75.63327 -58.78703,102.14801 -76.74603,175.49326 -55.19569,370.98869 56.54141,512.91953 64.17966,81.52235 155.95989,138.20835 253.93961,156.84008 42.69794,8.11941 81.17975,9.40724 126.75011,4.24187 16.43022,-1.86236 78.9113,-18.60998 94.01472,-25.19945 72.2339,-31.51765 126.51936,-77.60482 163.74091,-139.01241 C 917.506,735.97924 931.55495,672.33121 923.76114,598.11623 922.26857,583.9036 910.89235,541.4965 904.58767,526.64331 857.71909,416.22592 746.90881,353.22328 639.50453,375.92684 c -31.33755,6.62426 -63.9043,22.97772 -87.18419,43.77971 -18.94499,16.92851 -37.41213,44.86339 -45.51203,68.84517 -4.36816,12.93304 -9.19747,38.74804 -7.43871,39.76347 0.35136,0.20286 2.60614,-4.9113 5.01062,-11.3648 15.36144,-41.22937 48.38669,-75.96353 89.72609,-94.36902 14.89856,-6.63326 46.10881,-14.23779 61.06301,-14.87828 59.76555,-2.55981 115.99547,21.82119 157.21344,68.16692 35.46019,39.87127 55.72781,96.10249 54.75421,151.91194 -1.71021,98.03457 -61.51758,186.8219 -156.71124,232.64645 -17.2473,8.30253 -61.5198,21.62523 -80.99277,24.37275 C 503.24716,902.60513 378.86116,845.57839 304.75895,735.9492 220.8635,611.83155 217.65528,447.09237 296.47674,310.66244 321.63621,267.11453 349.88906,232.72037 388.60853,198.50435 444.72561,148.91424 507.59755,115.40633 581.86895,95.505371 772.63867,44.388777 980.15896,108.66475 1121.9643,262.79084 c 12.3644,13.43868 14.6746,16.72507 23.6391,33.62778 11.4801,21.6459 21.7899,42.0778 22.3094,44.2125 0.198,0.81239 -5.3557,-6.30892 -12.3408,-15.8253 z"
     style="fill:#ffffff;stroke-width:1.33333337" />
</svg>
